<?xml version="1.0" encoding="UTF-8" standalone="no"?>
<svg
   width="220"
   height="180"
   viewBox="0 0 58.208336 47.625081"
   version="1.1"
   id="svg2980"
   sodipodi:docname="masthead_only.svg"
   inkscape:version="1.2.2 (732a01da63, 2022-12-09)"
   inkscape:export-filename="masthead_only.png"
   inkscape:export-xdpi="600"
   inkscape:export-ydpi="600"
   xmlns:inkscape="http://www.inkscape.org/namespaces/inkscape"
   xmlns:sodipodi="http://sodipodi.sourceforge.net/DTD/sodipodi-0.dtd"
   xmlns="http://www.w3.org/2000/svg"
   xmlns:svg="http://www.w3.org/2000/svg">
  <defs
     id="defs2984" />
  <sodipodi:namedview
     id="namedview2982"
     pagecolor="#ffffff"
     bordercolor="#000000"
     borderopacity="0.25"
     inkscape:showpageshadow="2"
     inkscape:pageopacity="0.0"
     inkscape:pagecheckerboard="0"
     inkscape:deskcolor="#d1d1d1"
     showgrid="false"
     inkscape:zoom="4"
     inkscape:cx="97.375"
     inkscape:cy="86.625"
     inkscape:window-width="2400"
     inkscape:window-height="1261"
     inkscape:window-x="2391"
     inkscape:window-y="-9"
     inkscape:window-maximized="1"
     inkscape:current-layer="svg2980" />
  <g
     id="g3249"
     transform="translate(0.07735897,3.5832301)">
    <path
       style="fill:#212121;fill-opacity:1;stroke-width:0.176389"
       d="m 7.654,644.93 c -0.969,-0.111 -0.39,-0.582 2.083,-1.696 1.358,-0.612 2.866,-1.33 3.351,-1.595 0.815,-0.445 1.05,-0.484 3.093,-0.515 1.76,-0.026 2.298,-0.094 2.64,-0.334 0.546,-0.382 1.135,-0.403 0.994,-0.037 -0.084,0.22 0.115,0.265 1.194,0.265 1.566,0 2.432,0.155 2.353,0.42 -0.032,0.109 -0.716,0.53 -1.522,0.936 a 85.628,85.628 0 0 0 -3.077,1.656 l -1.613,0.917 -4.5,0.02 c -2.476,0.01 -4.724,-0.006 -4.996,-0.037 z m 4.61,-0.649 c 0.05,-0.048 -0.678,-0.088 -1.616,-0.088 -0.99,0 -1.705,0.072 -1.705,0.172 0,0.173 3.145,0.093 3.322,-0.084 z m 4.955,0.017 c -0.145,-0.14 -2.73,-0.214 -3.249,-0.094 -0.32,0.075 0.234,0.132 1.396,0.145 1.06,0.011 1.893,-0.012 1.853,-0.05 z m -3.77,-0.649 c 0.135,-0.217 -2.755,-0.205 -3.095,0.014 -0.18,0.115 0.258,0.166 1.366,0.159 0.896,-0.006 1.675,-0.084 1.73,-0.173 z m 4.889,-0.018 c 0.12,-0.076 -0.655,-0.138 -1.722,-0.138 -1.357,0 -1.86,0.053 -1.676,0.177 0.303,0.202 3.068,0.171 3.398,-0.039 z m -3.495,-0.695 c 0.2,-0.183 -0.574,-0.197 -2.24,-0.04 -0.655,0.063 -1.19,0.18 -1.19,0.262 0,0.19 3.207,-0.017 3.43,-0.222 z m 4.683,0.022 c 0.18,-0.116 -0.31,-0.172 -1.543,-0.174 -1.09,-0.002 -1.808,0.068 -1.808,0.174 0,0.23 2.997,0.23 3.351,0 z m -3.351,-0.697 c 0,-0.191 -2.915,-0.15 -3.11,0.044 -0.068,0.068 0.604,0.124 1.493,0.124 0.906,0 1.617,-0.074 1.617,-0.168 z m 4.674,-0.008 c 0.07,-0.113 -0.498,-0.176 -1.577,-0.176 -1.006,0 -1.686,0.07 -1.686,0.176 0,0.104 0.643,0.176 1.577,0.176 0.867,0 1.626,-0.079 1.686,-0.176 z m -3.88,-0.528 c 0.229,-0.098 -0.19,-0.147 -1.195,-0.14 -0.85,0.004 -1.59,0.078 -1.642,0.162 -0.121,0.197 2.37,0.177 2.837,-0.022 z m 3.836,-0.13 a 10.112,10.112 0 0 0 -1.5,0 c -0.412,0.037 -0.074,0.067 0.75,0.067 0.825,0 1.162,-0.03 0.75,-0.067 z m 0.573,3.217 a 9.57,9.57 0 0 0 -0.661,-0.166 c -0.617,-0.136 -0.612,-0.301 0.02,-0.675 0.397,-0.234 0.75,-0.275 1.652,-0.191 0.68,0.064 1.51,0.02 2.038,-0.107 l 0.89,-0.213 -0.426,-0.628 c -0.53,-0.783 -0.551,-1.784 -0.059,-2.87 l 0.36,-0.793 -0.401,-0.325 c -0.841,-0.68 -1.904,-1.19 -3.164,-1.515 -0.77,-0.199 -1.126,-0.352 -0.866,-0.373 0.412,-0.034 0.406,-0.044 -0.088,-0.155 -0.291,-0.065 -0.569,-0.07 -0.618,-0.01 -0.048,0.06 -0.226,0.16 -0.395,0.221 -0.524,0.193 -0.972,1.162 -1.103,2.38 -0.082,0.773 -0.175,1.077 -0.273,0.902 -0.203,-0.364 0.06,-2.147 0.392,-2.653 0.15,-0.228 0.276,-0.485 0.281,-0.572 0.006,-0.086 0.116,-0.23 0.246,-0.32 0.159,-0.11 0.102,-0.126 -0.176,-0.047 -0.645,0.182 -2.875,-0.09 -2.727,-0.332 0.069,-0.111 -0.07,-0.075 -0.309,0.081 -0.532,0.349 -0.932,1.464 -0.792,2.212 0.057,0.306 0.297,0.842 0.534,1.191 l 0.431,0.635 h -0.533 c -0.473,0 -0.582,-0.105 -0.954,-0.926 -0.365,-0.804 -0.398,-1.04 -0.254,-1.796 0.208,-1.094 0.517,-1.566 1.41,-2.157 0.699,-0.462 0.747,-0.468 3.832,-0.47 2.767,0 3.252,0.043 4.24,0.387 2.051,0.714 2.696,1.314 4.176,3.884 0.662,1.148 0.853,1.651 0.853,2.247 0,1.021 -0.336,1.352 -1.877,1.847 -0.698,0.224 -1.388,0.543 -1.533,0.71 -0.42,0.48 -3.267,0.89 -4.146,0.597 z m 5.237,-2.199 c 0.454,-0.123 0.86,-0.313 0.902,-0.424 0.042,-0.11 -0.211,-0.652 -0.562,-1.203 -1.17,-1.84 -1.96,-1.772 -2.1,0.18 -0.082,1.121 0.327,2.136 0.735,1.823 0.109,-0.084 0.57,-0.253 1.025,-0.376 z m -1.463,-4.064 c -0.899,-0.77 -3.685,-1.975 -3.685,-1.593 0,0.078 0.269,0.193 0.597,0.255 0.782,0.146 2.612,1.065 3.02,1.516 0.176,0.194 0.358,0.315 0.405,0.268 0.046,-0.046 -0.105,-0.247 -0.337,-0.446 z m 41.707,5.509 c -0.135,-0.086 -0.192,-0.668 -0.166,-1.717 0.042,-1.73 -0.147,-8.72 -0.319,-11.818 a 521.71,521.71 0 0 1 -0.285,-6.703 c -0.098,-2.619 -0.22,-5.357 -0.27,-6.085 -0.177,-2.551 -0.615,-7.677 -0.692,-8.114 a 27.111,27.111 0 0 1 -0.18,-1.411 c -0.356,-3.41 -1.44,-9.469 -2.305,-12.876 -1.192,-4.703 -2.982,-7.814 -5.15,-8.951 -1.487,-0.78 -2.673,-1.018 -4.981,-0.996 -9.367,-0.011 -20.663,5.389 -23.235,10.802 -1.792,3.772 1.565,9.014 4.606,12.952 2.476,3.052 2.834,3.506 2.901,3.68 0.124,0.321 0.4,0.133 0.294,-0.201 -0.064,-0.203 -0.032,-0.353 0.076,-0.353 0.104,0 0.189,-0.12 0.189,-0.265 0,-0.147 -0.157,-0.264 -0.353,-0.264 -0.194,0 -0.353,-0.08 -0.353,-0.177 0,-0.255 0.394,-0.216 0.82,0.082 0.202,0.142 0.418,0.209 0.48,0.147 0.192,-0.192 0.121,-0.724 -0.11,-0.82 -0.12,-0.05 0.049,-0.044 0.377,0.013 0.463,0.08 0.579,0.047 0.515,-0.144 -0.044,-0.136 -0.254,-0.273 -0.464,-0.304 -0.448,-0.066 -0.488,-0.254 -0.121,-0.56 0.338,-0.28 1.13,-0.086 1.275,0.313 0.06,0.167 0.257,0.494 0.436,0.728 0.186,0.242 0.282,0.564 0.223,0.75 -0.077,0.242 -0.013,0.325 0.25,0.325 0.196,0 0.408,0.085 0.472,0.188 0.186,0.302 1.52,-0.007 2.087,-0.483 0.46,-0.387 0.535,-0.4 0.808,-0.153 0.453,0.41 0.562,0.126 0.139,-0.36 -0.332,-0.382 -0.4,-0.398 -0.662,-0.162 -0.333,0.302 -0.704,0.348 -0.704,0.088 0,-0.097 0.066,-0.177 0.148,-0.177 0.081,0 0.238,-0.198 0.349,-0.44 0.11,-0.243 0.326,-0.442 0.48,-0.442 0.315,0 1.316,-1.026 1.316,-1.35 0,-0.117 -0.159,-0.264 -0.353,-0.325 -0.194,-0.062 -0.353,-0.224 -0.353,-0.36 0,-0.182 -0.141,-0.22 -0.529,-0.143 -0.41,0.082 -0.529,0.043 -0.529,-0.175 0,-0.294 -0.663,-0.747 -0.837,-0.572 -0.056,0.056 -0.092,0.382 -0.079,0.726 0.016,0.41 -0.088,0.72 -0.3,0.902 -0.26,0.222 -0.298,0.401 -0.188,0.888 0.103,0.457 0.075,0.633 -0.111,0.704 -0.425,0.163 -0.778,-0.087 -0.778,-0.55 0,-0.328 -0.117,-0.473 -0.447,-0.556 -0.481,-0.12 -0.904,-0.77 -0.965,-1.482 -0.064,-0.74 -0.018,-0.831 0.538,-1.061 0.45,-0.186 1.05,-0.94 1.05,-1.315 0,-0.105 -0.794,-0.015 -1.61,0.181 -0.34,0.082 -0.662,-0.02 -1.208,-0.38 -0.613,-0.406 -1,-0.51 -2.199,-0.59 -0.874,-0.059 -1.577,-0.199 -1.76,-0.351 -0.268,-0.222 -0.381,-0.213 -0.922,0.078 -0.527,0.285 -0.639,0.296 -0.777,0.077 -0.288,-0.456 -0.18,-0.598 0.945,-1.237 3.117,-1.772 6.32,-2.65 9.653,-2.648 2.745,0.003 5.045,0.454 7.756,1.523 1.463,0.577 4.623,2.798 5.888,4.14 1.17,1.24 2.694,3.402 3.417,4.847 1.797,3.595 2.477,9.165 1.628,13.335 -0.82,4.02 -2.494,7.105 -5.45,10.042 -1.9,1.887 -4.18,3.329 -6.631,4.195 -3.546,1.251 -8.163,1.424 -11.728,0.438 -1.207,-0.334 -3.528,-1.28 -3.528,-1.438 0,-0.065 0.157,-0.216 0.35,-0.336 0.294,-0.183 0.563,-0.133 1.698,0.318 0.741,0.294 1.383,0.5 1.426,0.457 0.043,-0.043 0.003,-0.224 -0.089,-0.404 -0.327,-0.638 -0.564,-1.601 -0.67,-2.72 a 43.79,43.79 0 0 0 -0.185,-1.662 c -0.16,-1.092 -0.113,-2.862 0.107,-4.023 0.221,-1.162 0.216,-1.214 -0.174,-1.628 -0.221,-0.236 -0.568,-0.479 -0.771,-0.54 -0.623,-0.189 -1.163,-0.806 -1.163,-1.33 0,-0.27 -0.159,-0.895 -0.353,-1.387 -0.425,-1.08 -0.45,-1.893 -0.07,-2.312 0.365,-0.404 0.173,-0.754 -0.282,-0.51 -0.181,0.096 -0.442,0.176 -0.58,0.176 -0.296,0 -1.008,-0.586 -1.008,-0.83 0,-0.094 -0.194,-0.26 -0.431,-0.368 -0.387,-0.176 -0.414,-0.255 -0.266,-0.77 0.155,-0.542 0.118,-0.614 -0.672,-1.313 -0.564,-0.498 -0.854,-0.659 -0.893,-0.493 -0.111,0.481 -0.37,0.231 -0.925,-0.897 -0.47,-0.956 -0.549,-1.288 -0.478,-2.023 0.05,-0.53 0.011,-0.903 -0.1,-0.94 -0.106,-0.036 -0.019,-0.296 0.202,-0.607 0.214,-0.3 0.388,-0.629 0.388,-0.732 0,-0.103 0.238,-0.458 0.53,-0.79 0.29,-0.331 0.528,-0.654 0.528,-0.717 0,-0.063 0.131,-0.41 0.29,-0.77 0.16,-0.361 0.313,-0.763 0.34,-0.893 0.089,-0.427 0.187,-0.389 0.828,0.325 0.388,0.433 0.536,0.706 0.382,0.706 -0.139,0 -0.252,0.066 -0.252,0.147 0,0.08 -0.238,0.147 -0.53,0.147 -0.29,0 -0.55,0.033 -0.576,0.073 -0.027,0.04 -0.228,0.407 -0.447,0.814 -0.399,0.74 -0.4,0.74 -0.04,0.932 0.496,0.266 0.448,0.683 -0.104,0.893 -0.324,0.124 -0.535,0.116 -0.706,-0.026 -0.19,-0.157 -0.243,-0.138 -0.243,0.085 0,0.157 0.1,0.287 0.22,0.289 0.148,0.002 0.133,0.06 -0.044,0.176 -0.235,0.154 -0.235,0.193 0,0.347 0.227,0.15 0.22,0.174 -0.044,0.177 -0.254,0.002 -0.303,0.15 -0.28,0.84 0.022,0.644 0.045,0.706 0.1,0.265 0.087,-0.705 0.31,-0.731 0.65,-0.075 0.14,0.273 0.382,0.601 0.535,0.729 0.217,0.18 0.233,0.286 0.072,0.48 -0.166,0.2 -0.071,0.388 0.474,0.946 0.375,0.384 0.765,0.696 0.866,0.694 0.102,-0.002 -0.013,-0.159 -0.256,-0.349 -0.41,-0.32 -0.416,-0.345 -0.082,-0.349 0.232,-0.003 0.37,-0.13 0.386,-0.356 0.015,-0.194 -0.047,-0.353 -0.138,-0.353 -0.091,0 -0.166,-0.129 -0.166,-0.286 0,-0.597 0.483,0.113 0.583,0.856 0.055,0.407 0.224,0.831 0.376,0.943 0.396,0.29 0.34,0.471 -0.103,0.33 -0.329,-0.104 -0.364,-0.066 -0.272,0.288 0.059,0.225 0.032,0.499 -0.06,0.61 -0.113,0.135 -0.037,0.27 0.234,0.415 0.221,0.118 0.478,0.388 0.571,0.6 0.094,0.213 0.33,0.417 0.523,0.453 0.34,0.063 0.341,0.052 0.04,-0.282 -0.172,-0.192 -0.266,-0.47 -0.208,-0.62 0.057,-0.15 0.02,-0.325 -0.084,-0.39 -0.304,-0.187 -0.216,-0.496 0.106,-0.372 0.162,0.062 0.359,0.011 0.438,-0.114 0.223,-0.351 0.175,-0.538 -0.11,-0.43 -0.142,0.056 -0.306,0.024 -0.363,-0.068 -0.057,-0.093 -0.012,-0.17 0.101,-0.17 0.117,0 0.159,-0.122 0.097,-0.283 -0.076,-0.198 -0.033,-0.255 0.143,-0.188 a 0.272,0.272 0 0 0 0.35,-0.157 c 0.053,-0.139 0.206,-0.253 0.34,-0.253 0.133,0 0.386,-0.159 0.561,-0.353 0.309,-0.34 0.308,-0.352 -0.016,-0.347 -0.185,0.003 -0.49,0.122 -0.679,0.265 -0.464,0.35 -1.111,0.326 -1.297,-0.05 -0.285,-0.579 -0.059,-1.628 0.453,-2.097 0.323,-0.296 0.409,-0.47 0.26,-0.532 -0.254,-0.105 -0.3,-0.59 -0.055,-0.59 0.09,0 0.214,0.159 0.276,0.353 0.118,0.37 0.354,0.46 0.517,0.196 0.053,-0.086 -0.02,-0.254 -0.164,-0.373 -0.144,-0.119 -0.215,-0.29 -0.159,-0.381 0.132,-0.214 0.6,0.168 0.6,0.491 0,0.445 1.113,0.178 1.168,-0.28 0.012,-0.1 0.032,-0.23 0.044,-0.286 0.013,-0.058 0.267,0.101 0.565,0.352 0.645,0.543 1.24,0.648 0.846,0.15 -0.228,-0.289 -0.217,-0.29 0.199,-0.018 0.25,0.163 0.417,0.42 0.385,0.59 -0.035,0.188 0.031,0.27 0.176,0.22 0.128,-0.046 0.213,-0.257 0.189,-0.47 -0.024,-0.214 0.03,-0.343 0.12,-0.287 0.09,0.056 0.214,0.02 0.275,-0.078 0.06,-0.099 -0.013,-0.18 -0.165,-0.18 -0.15,0 -0.274,-0.079 -0.274,-0.176 0,-0.097 0.079,-0.176 0.176,-0.176 0.097,0 0.176,-0.08 0.176,-0.18 0,-0.104 -0.187,-0.133 -0.443,-0.068 -0.377,0.094 -0.425,0.062 -0.324,-0.217 0.065,-0.181 0.053,-0.27 -0.026,-0.198 -0.08,0.072 -0.24,0.051 -0.357,-0.046 -0.158,-0.13 -0.2,-0.062 -0.164,0.266 0.027,0.243 -0.03,0.49 -0.125,0.548 -0.189,0.117 -5.328,-5.07 -7.044,-7.181 -8.159,-10.028 -4.139,-15.117 5.661,-20.627 3.878,-2.181 9.312,-3.752 15.578,-4.916 6.804,-1.264 11.223,-1.517 13.026,-0.744 0.786,0.337 1.883,1.43 2.372,2.363 0.14,0.267 0.288,1.061 0.329,1.764 0.203,3.498 0.583,51.492 0.463,58.384 -0.018,1.005 -0.163,1.197 -0.663,0.88 z m -20.522,-5.526 c 2.744,-0.531 3.801,-0.96 5.057,-2.052 2.937,-2.556 4.487,-6.072 4.753,-10.783 l 0.118,-2.085 -0.617,-0.69 c -0.34,-0.379 -0.703,-0.854 -0.808,-1.055 -0.308,-0.59 -0.222,-1.878 0.154,-2.286 0.181,-0.198 0.345,-0.516 0.363,-0.706 0.062,-0.666 -0.025,-1.16 -0.188,-1.06 -0.09,0.056 -0.214,0.021 -0.276,-0.078 -0.061,-0.1 0.004,-0.225 0.144,-0.279 0.22,-0.084 0.222,-0.21 0.012,-0.925 -0.347,-1.175 -1.942,-4.257 -3.163,-6.109 -0.962,-1.46 -1.424,-1.969 -3.34,-3.69 -0.799,-0.716 -1.123,-0.616 -0.82,0.254 0.266,0.763 0.257,0.826 -0.165,1.052 -0.3,0.16 -0.47,0.113 -0.976,-0.272 -0.874,-0.667 -1.319,-1.181 -1.29,-1.492 0.013,-0.15 0.006,-0.33 -0.018,-0.403 a 3.187,3.187 0 0 1 -0.152,-0.757 c -0.024,-0.294 -1.895,-1.205 -3.181,-1.549 -0.457,-0.122 -0.81,-0.33 -0.855,-0.504 -0.043,-0.163 -0.174,-0.334 -0.292,-0.379 -0.381,-0.146 -1.188,0.096 -1.298,0.39 -0.059,0.157 -0.231,0.382 -0.383,0.5 -0.169,0.132 -0.194,0.217 -0.065,0.22 a 0.403,0.403 0 0 0 0.319,-0.17 c 0.172,-0.279 1.5,-0.221 1.5,0.065 0,0.143 0.27,0.285 0.66,0.348 0.86,0.137 2.322,0.847 2.331,1.13 0.004,0.13 -0.213,0.22 -0.522,0.22 -0.737,0 -0.663,0.29 0.111,0.434 0.448,0.085 0.585,0.176 0.455,0.306 a 0.439,0.439 0 0 0 -0.093,0.429 c 0.056,0.144 -0.021,0.243 -0.19,0.243 -0.156,0 -0.283,-0.08 -0.283,-0.176 0,-0.097 -0.327,-0.177 -0.726,-0.177 -0.652,0 -0.717,-0.038 -0.63,-0.372 0.151,-0.574 -0.155,-1.16 -0.655,-1.255 -0.631,-0.12 -0.697,0.029 -0.188,0.429 0.437,0.343 0.63,1.375 0.258,1.375 a 0.177,0.177 0 0 1 -0.176,-0.177 c 0,-0.097 -0.119,-0.176 -0.264,-0.176 -0.146,0 -0.265,0.071 -0.265,0.159 0,0.087 -0.277,0.322 -0.615,0.521 -0.447,0.264 -0.587,0.45 -0.512,0.68 0.316,0.978 0.487,1.259 0.88,1.438 0.238,0.108 0.513,0.377 0.609,0.596 0.154,0.35 0.162,0.334 0.071,-0.121 -0.082,-0.41 -0.018,-0.585 0.305,-0.83 0.35,-0.267 0.378,-0.361 0.192,-0.663 -0.137,-0.222 -0.153,-0.392 -0.045,-0.46 0.096,-0.058 0.173,-0.26 0.173,-0.449 0,-0.396 0.098,-0.413 0.856,-0.148 0.305,0.106 0.555,0.304 0.555,0.44 0,0.137 0.08,0.248 0.177,0.248 0.097,0 0.176,-0.08 0.176,-0.177 0,-0.317 0.56,-0.184 0.649,0.155 0.047,0.181 0.323,0.505 0.611,0.718 0.44,0.325 0.49,0.432 0.303,0.657 -0.185,0.222 -0.152,0.32 0.194,0.581 l 0.416,0.314 -0.47,0.308 c -0.372,0.244 -0.523,0.264 -0.726,0.095 -0.33,-0.273 -0.717,-0.065 -0.458,0.247 0.101,0.122 0.131,0.273 0.068,0.337 -0.064,0.064 0.016,0.116 0.178,0.116 0.531,0 0.31,0.943 -0.297,1.268 -0.206,0.11 -0.77,0.23 -1.254,0.269 -0.484,0.038 -0.922,0.135 -0.973,0.216 -0.051,0.08 -0.252,0.177 -0.446,0.213 -0.204,0.038 -0.376,0.233 -0.409,0.461 -0.03,0.218 -0.16,0.395 -0.286,0.395 -0.132,0 -0.23,0.202 -0.23,0.472 0,0.474 -0.437,0.94 -0.881,0.94 -0.132,0 -0.474,0.12 -0.76,0.269 -0.569,0.294 -0.707,0.953 -0.283,1.35 0.256,0.239 0.18,0.911 -0.084,0.748 -0.088,-0.054 -0.122,-0.159 -0.077,-0.232 0.045,-0.073 -0.088,-0.127 -0.295,-0.12 -0.293,0.01 -0.407,-0.124 -0.506,-0.596 -0.156,-0.747 -0.614,-1.11 -1.228,-0.976 -0.301,0.066 -0.54,0.007 -0.687,-0.171 -0.39,-0.47 -1.204,-0.334 -1.78,0.296 -0.515,0.563 -0.697,1.418 -0.348,1.633 0.094,0.058 0.408,-0.016 0.697,-0.166 0.632,-0.327 1.601,-0.36 1.601,-0.055 0,0.12 -0.32,0.51 -0.712,0.868 -0.579,0.529 -0.692,0.733 -0.604,1.086 0.082,0.325 0.013,0.503 -0.272,0.703 -0.25,0.174 -0.361,0.41 -0.323,0.681 0.051,0.359 0.141,0.406 0.674,0.352 0.34,-0.034 0.796,-0.242 1.02,-0.466 0.421,-0.422 1.578,-0.677 1.906,-0.422 0.107,0.084 0.278,0.059 0.394,-0.057 0.112,-0.112 0.263,-0.146 0.334,-0.074 0.072,0.072 0.016,0.2 -0.124,0.287 -0.14,0.087 -0.217,0.182 -0.171,0.211 0.69,0.446 0.918,0.504 1.169,0.296 0.211,-0.176 0.293,-0.172 0.41,0.018 a 0.61,0.61 0 0 1 0.056,0.474 c -0.057,0.148 0.04,0.236 0.26,0.236 0.192,0 0.45,0.12 0.572,0.268 0.156,0.188 0.394,0.236 0.8,0.16 0.837,-0.157 1.21,0.022 1.556,0.745 0.303,0.636 0.301,0.645 -0.145,1.11 -0.478,0.5 -0.56,0.716 -0.274,0.716 0.097,0 0.177,-0.12 0.177,-0.265 0,-0.145 0.122,-0.264 0.271,-0.264 0.49,0 1.707,0.725 1.798,1.072 0.07,0.269 0.248,0.339 0.862,0.339 0.52,0 0.881,0.108 1.104,0.33 0.182,0.182 0.559,0.407 0.838,0.5 0.412,0.136 0.517,0.282 0.56,0.785 0.047,0.554 -0.025,0.67 -0.706,1.133 -1.014,0.688 -1.187,0.931 -1.194,1.672 -0.009,1.008 -0.853,1.753 -1.984,1.753 -0.931,0 -2.154,1.076 -2.015,1.773 0.116,0.578 -0.156,0.873 -0.804,0.873 -0.523,0 -0.62,0.156 -0.298,0.479 0.238,0.237 -0.289,1.037 -0.77,1.168 -0.17,0.046 -0.308,0.244 -0.308,0.439 0,0.195 -0.093,0.385 -0.206,0.423 -0.15,0.05 -0.156,0.21 -0.025,0.588 0.1,0.285 0.118,0.678 0.042,0.872 -0.118,0.299 -0.14,0.305 -0.151,0.044 -0.007,-0.17 -0.097,-0.309 -0.201,-0.309 -0.11,0 -0.14,-0.15 -0.074,-0.36 0.063,-0.2 0.028,-0.467 -0.078,-0.595 -0.143,-0.173 -0.124,-0.29 0.076,-0.456 0.219,-0.182 0.227,-0.274 0.046,-0.497 -0.188,-0.232 -0.175,-0.256 0.086,-0.159 0.26,0.098 0.309,0.01 0.309,-0.563 0,-0.516 0.08,-0.7 0.33,-0.766 0.269,-0.07 0.323,-0.231 0.288,-0.85 -0.052,-0.917 0.255,-1.333 0.777,-1.054 0.454,0.243 0.545,0.234 0.545,-0.059 0,-0.134 0.16,-0.286 0.358,-0.338 0.197,-0.051 0.335,-0.196 0.308,-0.32 -0.027,-0.126 0.07,-0.232 0.213,-0.237 0.341,-0.01 0.445,-0.569 0.169,-0.902 -0.12,-0.143 -0.155,-0.318 -0.079,-0.389 0.076,-0.07 0.173,-0.028 0.216,0.093 0.093,0.26 1.108,0.3 1.108,0.044 0,-0.097 0.08,-0.176 0.176,-0.176 0.097,0 0.177,0.119 0.177,0.264 0,0.146 0.088,0.265 0.195,0.265 0.107,0 0.15,-0.12 0.094,-0.265 -0.062,-0.16 -10e-4,-0.264 0.152,-0.264 0.16,0 0.213,0.104 0.145,0.282 -0.08,0.207 -0.02,0.266 0.22,0.22 0.195,-0.038 0.397,-0.304 0.498,-0.659 0.145,-0.503 0.118,-0.635 -0.17,-0.855 -0.323,-0.246 -0.318,-0.253 0.1,-0.133 0.36,0.103 0.401,0.084 0.22,-0.106 -0.293,-0.308 -0.28,-0.525 0.027,-0.408 0.136,0.053 0.294,0.019 0.352,-0.075 0.058,-0.093 -0.014,-0.215 -0.159,-0.27 -0.145,-0.056 -0.262,-0.204 -0.26,-0.328 0.001,-0.139 0.052,-0.158 0.132,-0.05 0.208,0.284 0.57,0.288 0.57,0.006 0,-0.158 0.104,-0.22 0.267,-0.156 0.193,0.074 0.236,0.021 0.154,-0.192 -0.063,-0.162 -0.222,-0.253 -0.355,-0.202 -0.133,0.051 -0.242,0.016 -0.242,-0.078 0,-0.261 0.377,-0.204 0.725,0.11 0.171,0.156 0.395,0.23 0.499,0.167 0.29,-0.18 0.22,-0.447 -0.122,-0.46 -0.263,-0.011 -0.257,-0.035 0.045,-0.162 0.312,-0.132 0.288,-0.163 -0.216,-0.273 -0.327,-0.072 -0.612,-0.265 -0.673,-0.456 -0.061,-0.193 -0.267,-0.33 -0.49,-0.329 -0.307,0.002 -0.332,0.036 -0.126,0.167 0.143,0.09 0.21,0.214 0.148,0.276 -0.144,0.143 -0.848,-0.228 -0.848,-0.446 0,-0.091 -0.12,-0.12 -0.265,-0.063 -0.145,0.055 -0.264,0.212 -0.264,0.347 0,0.284 -0.281,0.328 -0.441,0.07 -0.06,-0.098 -0.025,-0.177 0.077,-0.177 a 0.187,0.187 0 0 0 0.187,-0.187 c 0,-0.103 -0.08,-0.138 -0.176,-0.078 -0.097,0.06 -0.177,-0.015 -0.177,-0.166 0,-0.291 -0.458,-0.386 -0.558,-0.116 -0.033,0.088 -0.161,0.048 -0.286,-0.088 -0.192,-0.208 -0.14,-0.247 0.323,-0.247 0.314,0 0.524,-0.082 0.488,-0.19 -0.076,-0.225 -0.118,-0.228 -1.034,-0.073 -0.469,0.079 -0.799,0.045 -0.975,-0.101 -0.201,-0.168 -0.315,-0.172 -0.47,-0.017 -0.325,0.325 -0.485,0.24 -0.446,-0.237 0.034,-0.413 0.313,-0.648 0.313,-0.264 0,0.376 0.3,0.148 0.581,-0.441 0.216,-0.452 0.236,-0.621 0.077,-0.631 -0.17,-0.011 -0.169,-0.034 0.003,-0.103 0.121,-0.05 0.22,-0.206 0.22,-0.35 0,-0.143 -0.07,-0.216 -0.157,-0.162 -0.087,0.053 -0.204,-0.021 -0.26,-0.166 -0.055,-0.145 -0.202,-0.258 -0.327,-0.25 -0.181,0.011 -0.181,0.032 0.002,0.105 0.181,0.073 0.183,0.146 0.012,0.353 -0.138,0.165 -0.153,0.304 -0.043,0.38 0.225,0.154 0.273,0.912 0.057,0.912 -0.091,0 -0.165,-0.198 -0.165,-0.441 0,-0.242 -0.085,-0.44 -0.189,-0.44 -0.108,0 -0.14,-0.151 -0.076,-0.354 0.135,-0.425 -0.05,-0.448 -0.586,-0.072 -0.405,0.283 -0.913,0.231 -0.913,-0.093 0,-0.097 0.119,-0.13 0.264,-0.075 0.362,0.139 0.334,-0.11 -0.044,-0.396 -0.411,-0.313 -0.585,-0.305 -0.46,0.02 0.073,0.192 0.022,0.236 -0.182,0.158 -0.156,-0.06 -0.284,-0.228 -0.284,-0.373 0,-0.171 -0.1,-0.226 -0.284,-0.156 -0.204,0.078 -0.255,0.033 -0.182,-0.157 0.113,-0.296 -0.155,-0.37 -0.328,-0.09 a 0.41,0.41 0 0 1 -0.319,0.173 c -0.132,-0.002 -0.144,-0.05 -0.033,-0.132 0.307,-0.226 0.252,-0.495 -0.101,-0.495 -0.187,0 -0.34,0.067 -0.34,0.149 0,0.082 -0.08,0.1 -0.178,0.039 -0.098,-0.06 -0.232,0.034 -0.298,0.21 a 1.344,1.344 0 0 1 -0.378,0.514 c -0.142,0.106 -0.202,0.285 -0.133,0.397 0.074,0.12 0.013,0.203 -0.15,0.203 -0.412,0 -0.331,-0.484 0.17,-1.022 0.36,-0.388 0.392,-0.489 0.167,-0.536 -0.218,-0.047 -0.233,-0.112 -0.07,-0.31 0.247,-0.297 0.167,-0.308 -0.466,-0.068 -0.263,0.1 -0.427,0.232 -0.366,0.293 0.062,0.062 -0.048,0.224 -0.243,0.36 -0.195,0.137 -0.306,0.327 -0.246,0.424 0.06,0.096 -0.02,0.318 -0.179,0.493 -0.3,0.332 -0.494,1.6 -0.244,1.6 0.08,0 0.144,0.162 0.144,0.359 0,0.197 0.105,0.398 0.232,0.447 0.153,0.059 0.213,0.332 0.176,0.796 -0.046,0.58 0.029,0.786 0.414,1.143 0.298,0.277 0.589,0.398 0.794,0.333 0.21,-0.067 0.324,-0.015 0.324,0.146 0,0.137 0.201,0.48 0.447,0.762 0.298,0.342 0.41,0.63 0.338,0.865 -0.535,1.75 -0.617,2.969 -0.193,2.871 0.117,-0.027 0.213,0.03 0.213,0.128 0,0.097 -0.092,0.155 -0.205,0.13 -0.267,-0.062 -0.437,0.838 -0.231,1.222 0.088,0.164 0.116,0.41 0.064,0.547 -0.053,0.137 0.03,0.354 0.185,0.482 0.214,0.178 0.229,0.266 0.064,0.368 -0.172,0.106 -0.171,0.19 0.005,0.403 0.147,0.176 0.168,0.368 0.062,0.556 -0.164,0.295 0.177,1.994 0.44,2.19 0.074,0.054 0.134,0.254 0.134,0.444 0,0.442 1.03,0.766 3.087,0.972 1.773,0.177 2.635,0.115 5.115,-0.364 z m -7.295,-3.6 c 0.055,-0.145 0.132,-0.264 0.17,-0.264 0.039,0 0.07,0.12 0.07,0.265 0,0.145 -0.077,0.264 -0.171,0.264 -0.094,0 -0.125,-0.119 -0.07,-0.264 z M 37.43,633.61 c -0.06,-0.097 -0.03,-0.176 0.067,-0.176 0.097,0 0.226,0.079 0.286,0.176 0.06,0.097 0.03,0.176 -0.068,0.176 -0.097,0 -0.225,-0.079 -0.285,-0.176 z m 3.175,-1.587 c 0.06,-0.097 0.188,-0.177 0.285,-0.177 0.097,0 0.127,0.08 0.068,0.177 -0.06,0.097 -0.189,0.176 -0.286,0.176 -0.097,0 -0.127,-0.08 -0.067,-0.176 z m 1.5,-0.878 c 0,-0.239 0.313,-0.387 0.427,-0.202 0.054,0.088 -0.02,0.206 -0.164,0.262 -0.145,0.055 -0.264,0.029 -0.264,-0.06 z m -4.506,-0.369 c -0.064,-0.103 -0.079,-0.226 -0.032,-0.272 0.046,-0.046 0.13,0.038 0.188,0.188 0.12,0.31 0.018,0.365 -0.156,0.084 z m 7.415,-0.87 c -0.06,-0.097 -0.03,-0.177 0.068,-0.177 0.097,0 0.225,0.08 0.285,0.177 0.06,0.097 0.03,0.176 -0.067,0.176 -0.097,0 -0.226,-0.08 -0.286,-0.176 z m -1.499,-0.265 c -0.18,-0.216 -0.168,-0.264 0.067,-0.264 0.157,0 0.286,0.119 0.286,0.264 0,0.146 -0.03,0.265 -0.067,0.265 -0.036,0 -0.165,-0.12 -0.286,-0.265 z m -5.556,-0.264 c 0.06,-0.097 0.188,-0.177 0.285,-0.177 0.097,0 0.128,0.08 0.068,0.177 -0.06,0.097 -0.189,0.176 -0.286,0.176 -0.097,0 -0.127,-0.08 -0.067,-0.176 z m 6.438,-0.265 c 0,-0.145 0.077,-0.264 0.171,-0.264 0.094,0 0.125,0.119 0.07,0.264 -0.057,0.146 -0.133,0.265 -0.172,0.265 -0.038,0 -0.069,-0.12 -0.069,-0.265 z m -6.526,-0.264 c 0,-0.097 0.084,-0.177 0.187,-0.177 0.102,0 0.137,0.08 0.077,0.176 -0.06,0.097 -0.144,0.177 -0.186,0.177 -0.043,0 -0.078,-0.08 -0.078,-0.177 z m -0.074,-0.682 c -0.076,-0.123 -0.09,-0.272 -0.032,-0.33 0.158,-0.158 0.33,0.075 0.245,0.33 -0.06,0.18 -0.102,0.18 -0.213,0 z m 3.745,-0.145 c 0.127,-0.05 0.28,-0.044 0.338,0.014 0.059,0.059 -0.046,0.1 -0.232,0.093 -0.205,-0.008 -0.247,-0.05 -0.106,-0.107 z m 3.032,-0.035 c 0,-0.158 0.53,-0.431 0.634,-0.327 0.03,0.03 -0.1,0.152 -0.29,0.27 -0.19,0.12 -0.344,0.144 -0.344,0.057 z m -2.382,-0.373 c -0.06,-0.097 -0.03,-0.177 0.068,-0.177 0.097,0 0.225,0.08 0.285,0.177 0.06,0.097 0.03,0.176 -0.067,0.176 -0.097,0 -0.226,-0.08 -0.286,-0.176 z m -2.59,-0.473 c 0.127,-0.051 0.279,-0.045 0.338,0.013 0.058,0.059 -0.046,0.1 -0.232,0.093 -0.205,-0.008 -0.247,-0.05 -0.106,-0.107 z m 5.247,-0.181 c -0.095,-0.251 -0.075,-0.272 0.1,-0.099 0.12,0.12 0.174,0.262 0.12,0.317 -0.055,0.054 -0.153,-0.044 -0.22,-0.218 z m 0.43,-0.228 c 0,-0.097 0.08,-0.177 0.176,-0.177 a 0.177,0.177 0 0 1 0,0.353 0.177,0.177 0 0 1 -0.176,-0.176 z m -8.467,-0.353 a 0.177,0.177 0 0 1 0.353,0 c 0,0.097 -0.08,0.176 -0.176,0.176 a 0.177,0.177 0 0 1 -0.177,-0.176 z m 5.998,-0.176 c 0,-0.097 0.074,-0.177 0.166,-0.177 0.09,0 0.215,0.08 0.275,0.177 0.06,0.097 -0.015,0.176 -0.166,0.176 -0.152,0 -0.275,-0.08 -0.275,-0.176 z m -7.232,-0.439 c 0,-0.137 0.163,-0.187 0.44,-0.134 0.243,0.047 0.442,0.145 0.442,0.218 0,0.074 -0.199,0.134 -0.441,0.134 -0.243,0 -0.441,-0.098 -0.441,-0.218 z m 6.173,-0.267 c -0.29,-0.187 -0.243,-0.21 0.507,-0.242 0.339,-0.015 0.479,0.05 0.422,0.198 -0.1,0.262 -0.558,0.283 -0.929,0.044 z m -2.381,-0.705 c 0.06,-0.097 0.144,-0.177 0.187,-0.177 0.043,0 0.078,0.08 0.078,0.177 0,0.097 -0.084,0.176 -0.187,0.176 -0.103,0 -0.138,-0.08 -0.078,-0.176 z M 35.422,623.6 c 0.053,-0.337 -0.04,-0.462 -0.18,-0.24 -0.125,0.194 -0.196,0.168 -0.357,-0.132 -0.179,-0.335 -0.157,-0.37 0.202,-0.333 0.221,0.024 0.46,0.123 0.532,0.22 0.188,0.256 0.164,0.617 -0.041,0.617 -0.097,0 -0.167,-0.06 -0.156,-0.132 z m 4.132,-0.208 c -0.056,-0.09 -0.02,-0.214 0.078,-0.275 0.098,-0.061 0.179,0.013 0.179,0.164 0,0.31 -0.106,0.355 -0.257,0.11 z M 38.4,622.498 c 0,-0.097 0.084,-0.177 0.187,-0.177 0.102,0 0.137,0.08 0.077,0.177 -0.06,0.097 -0.144,0.176 -0.186,0.176 -0.043,0 -0.078,-0.08 -0.078,-0.176 z m 4.762,-1.048 c 0,-0.092 0.08,-0.215 0.177,-0.275 0.097,-0.06 0.176,0.014 0.176,0.166 0,0.15 -0.08,0.275 -0.176,0.275 -0.097,0 -0.177,-0.075 -0.177,-0.166 z m 0.377,-0.848 c -0.245,-0.457 -0.072,-0.983 0.278,-0.849 0.14,0.054 0.29,0.099 0.33,0.099 0.162,0 0.06,0.48 -0.168,0.791 -0.233,0.32 -0.247,0.319 -0.44,-0.041 z m 0.329,-0.398 c 0,-0.097 -0.035,-0.176 -0.078,-0.176 -0.043,0 -0.127,0.08 -0.187,0.176 -0.06,0.097 -0.025,0.177 0.078,0.177 0.103,0 0.187,-0.08 0.187,-0.177 z m 9.09,0.363 c -0.155,-0.251 0.042,-0.539 0.37,-0.539 0.155,0 0.243,0.124 0.21,0.294 -0.069,0.354 -0.42,0.503 -0.58,0.245 z m -10.11,-1.343 c -0.215,-0.15 -0.391,-0.359 -0.391,-0.462 0,-0.127 0.079,-0.123 0.242,0.013 0.133,0.11 0.352,0.173 0.485,0.138 0.134,-0.034 0.18,-0.027 0.103,0.015 -0.076,0.042 -0.047,0.187 0.066,0.323 0.274,0.33 -0.016,0.315 -0.504,-0.027 z m 1.02,0.099 c 0,-0.097 0.08,-0.177 0.176,-0.177 a 0.177,0.177 0 0 1 0,0.353 0.177,0.177 0 0 1 -0.176,-0.176 z m -5.38,-0.177 c 0.06,-0.097 0.223,-0.176 0.363,-0.176 0.14,0 0.254,0.08 0.254,0.176 0,0.097 -0.163,0.177 -0.363,0.177 -0.2,0 -0.314,-0.08 -0.254,-0.177 z m 1.147,-0.273 c 0,-0.3 0.57,-1.133 0.716,-1.043 0.094,0.058 0.126,0.18 0.07,0.27 -0.056,0.09 0.141,0.164 0.438,0.164 0.297,0 0.54,0.08 0.54,0.177 0,0.097 0.119,0.176 0.264,0.176 0.146,0 0.265,0.08 0.265,0.176 0,0.247 -0.485,0.222 -0.569,-0.029 -0.052,-0.156 -0.209,-0.156 -0.658,0 -0.634,0.221 -1.066,0.265 -1.066,0.109 z m -1.599,-0.252 c -0.248,-0.05 -0.753,-0.342 -1.12,-0.648 -0.638,-0.529 -0.652,-0.561 -0.284,-0.678 0.27,-0.085 0.503,-0.013 0.77,0.238 0.212,0.199 0.716,0.414 1.121,0.479 0.866,0.138 1.14,0.536 0.438,0.635 -0.26,0.037 -0.676,0.025 -0.925,-0.026 z m 1.187,-1.004 c -0.183,-0.183 -0.138,-0.764 0.059,-0.764 0.097,0 0.176,0.073 0.176,0.162 0,0.09 0.048,0.288 0.107,0.441 0.107,0.278 -0.119,0.385 -0.342,0.161 z m 15.146,-1.168 c -0.076,-0.174 -0.088,-0.366 -0.028,-0.427 0.18,-0.179 0.324,0.073 0.241,0.42 -0.073,0.309 -0.082,0.309 -0.213,0.006 z M 39.81,603.095 c 0,-0.097 0.124,-0.177 0.275,-0.177 0.151,0 0.226,0.08 0.166,0.177 -0.06,0.097 -0.184,0.176 -0.275,0.176 -0.091,0 -0.166,-0.08 -0.166,-0.176 z m 0.379,31.728 c -0.37,-0.14 -0.45,-0.066 -0.315,0.288 0.09,0.232 0.151,0.24 0.357,0.051 0.212,-0.196 0.206,-0.245 -0.042,-0.34 z m 1.17,-1.423 c 0.417,0.079 0.45,0.055 0.253,-0.183 -0.493,-0.597 -1.364,-0.358 -0.977,0.268 0.083,0.133 0.141,0.136 0.184,0.01 0.034,-0.102 0.277,-0.145 0.54,-0.095 z m 16.698,-1.685 c 0.04,-0.206 0.164,-0.545 0.275,-0.753 0.111,-0.208 0.156,-0.498 0.1,-0.645 -0.101,-0.264 0.232,-0.994 0.821,-1.797 0.238,-0.325 0.263,-0.494 0.113,-0.774 -0.265,-0.496 -0.067,-1.514 0.391,-2.002 0.547,-0.582 0.338,-1.019 -0.412,-0.86 -0.708,0.149 -1.057,0.436 -0.53,0.436 0.207,0 0.426,-0.08 0.486,-0.177 0.06,-0.097 0.184,-0.176 0.275,-0.176 0.284,0 0.182,0.46 -0.174,0.782 -0.435,0.394 -0.655,1.604 -0.356,1.963 0.18,0.218 0.116,0.408 -0.363,1.074 -0.372,0.52 -0.576,1.003 -0.566,1.347 0.009,0.296 -0.1,0.763 -0.243,1.038 -0.142,0.274 -0.218,0.499 -0.17,0.499 0.05,0 0.007,0.218 -0.093,0.485 -0.166,0.44 -0.157,0.46 0.096,0.21 0.153,-0.15 0.31,-0.443 0.35,-0.65 z m -14.278,-0.75 c 0.139,-0.225 -0.27,-0.225 -0.618,0 -0.215,0.138 -0.192,0.17 0.122,0.173 0.213,0 0.436,-0.077 0.496,-0.174 z m 15.081,-6.33 c 0,-0.274 -0.517,-0.592 -0.792,-0.487 -0.4,0.154 -0.795,-0.059 -0.795,-0.428 0,-0.332 -0.489,-0.699 -0.915,-0.687 -0.128,0.003 -0.026,0.182 0.226,0.397 0.251,0.215 0.51,0.538 0.575,0.72 0.085,0.236 0.24,0.305 0.556,0.244 0.248,-0.047 0.523,0.02 0.636,0.157 0.225,0.27 0.509,0.318 0.509,0.085 z m -2.822,-2.324 c 0,-0.2 -0.076,-0.317 -0.169,-0.26 -0.093,0.058 -0.124,0.222 -0.07,0.364 0.14,0.365 0.239,0.322 0.239,-0.104 z m -0.252,-0.695 c 0.36,0 0.31,-0.31 -0.082,-0.52 -0.25,-0.133 -0.391,-0.11 -0.56,0.092 -0.184,0.223 -0.18,0.261 0.026,0.217 0.17,-0.037 0.24,0.088 0.218,0.387 -0.02,0.255 0.005,0.31 0.057,0.132 0.05,-0.17 0.203,-0.308 0.341,-0.308 z m -18.622,-1.059 a 0.177,0.177 0 0 0 -0.176,-0.176 0.177,0.177 0 0 0 -0.177,0.176 0.177,0.177 0 0 0 0.353,0 z m 18.444,-0.662 c -0.31,-0.293 -0.32,-0.292 -0.213,0.015 0.063,0.178 0.114,0.412 0.114,0.52 0,0.137 0.065,0.133 0.213,-0.015 0.166,-0.166 0.141,-0.28 -0.114,-0.52 z m 1.067,-2.336 a 6.69,6.69 0 0 1 0.35,-0.997 c 0.136,-0.306 0.242,-0.782 0.236,-1.058 -0.014,-0.586 -0.09,-0.44 -0.608,1.173 -0.17,0.533 -0.459,1.217 -0.64,1.52 -0.18,0.302 -0.325,0.62 -0.322,0.705 0.012,0.29 0.883,-0.899 0.984,-1.343 z M 30.17,616.583 c -0.15,-0.39 -0.395,-0.312 -0.29,0.092 0.051,0.193 0.16,0.31 0.241,0.259 0.082,-0.05 0.104,-0.209 0.05,-0.351 z m 7.63,-0.868 c -0.063,-0.247 -0.227,-0.45 -0.366,-0.45 -0.21,0 -0.203,0.09 0.044,0.518 0.345,0.602 0.482,0.573 0.321,-0.068 z m 23.228,0.08 c 0.1,-0.383 -0.14,-0.492 -0.29,-0.133 -0.061,0.146 -0.239,0.05 -0.525,-0.287 -0.413,-0.485 -0.478,-0.502 -1.442,-0.381 -0.572,0.071 -0.943,0.192 -0.856,0.279 0.087,0.087 0.483,0.07 0.914,-0.04 0.735,-0.186 0.776,-0.174 1.233,0.36 0.549,0.638 0.836,0.699 0.966,0.202 z m -24.682,-0.97 c 0.056,-0.146 0.034,-0.265 -0.048,-0.265 -0.082,0 -0.248,0.12 -0.369,0.265 -0.178,0.215 -0.17,0.264 0.048,0.264 0.147,0 0.313,-0.119 0.369,-0.264 z m 3.508,-0.035 c 0.073,-0.04 0.132,-0.434 0.132,-0.874 0,-0.652 0.066,-0.817 0.353,-0.892 0.194,-0.051 0.353,-0.163 0.353,-0.248 0,-0.237 -0.577,-0.176 -0.94,0.1 -0.245,0.185 -0.449,0.2 -0.838,0.065 -0.477,-0.166 -0.716,-0.498 -0.36,-0.498 0.086,0 0.206,-0.139 0.265,-0.308 0.06,-0.17 0.156,-0.408 0.212,-0.53 0.057,-0.122 -0.012,-0.22 -0.156,-0.22 -0.142,0 -0.302,0.165 -0.354,0.366 -0.053,0.201 -0.248,0.406 -0.435,0.454 -0.249,0.066 -0.317,0.202 -0.257,0.516 0.045,0.236 0.132,0.436 0.194,0.447 0.061,0.01 0.39,0.042 0.729,0.07 0.82,0.066 0.854,0.086 0.44,0.264 l -0.352,0.151 0.353,0.018 c 0.325,0.017 0.328,0.032 0.044,0.198 -0.325,0.189 -0.428,0.691 -0.141,0.691 0.092,0 0.245,-0.138 0.34,-0.307 0.094,-0.17 0.228,-0.25 0.298,-0.18 0.164,0.164 -0.251,0.663 -0.553,0.663 a 0.449,0.449 0 0 0 -0.346,0.184 c -0.104,0.17 0.659,0.072 1.02,-0.13 z m 17.419,-0.054 c 0,-0.097 -0.12,-0.176 -0.265,-0.176 -0.146,0 -0.265,-0.08 -0.265,-0.176 a 0.177,0.177 0 0 0 -0.176,-0.177 c -0.493,0 0.01,0.53 0.661,0.695 0.025,0.006 0.045,-0.069 0.045,-0.166 z m 1.122,-0.265 c 0.264,-0.265 0.335,-0.442 0.54,-1.366 0.06,-0.267 0.2,-0.485 0.311,-0.485 0.325,0 0.849,0.555 0.849,0.899 0,0.375 0.282,0.592 0.439,0.338 0.06,-0.098 0.044,-0.179 -0.037,-0.179 -0.082,0 -0.235,-0.23 -0.341,-0.511 -0.285,-0.754 -0.843,-1 -1.279,-0.564 -0.211,0.211 -0.307,0.482 -0.25,0.704 0.065,0.247 -0.072,0.527 -0.44,0.895 -0.303,0.303 -0.431,0.534 -0.296,0.534 0.131,0 0.358,-0.12 0.504,-0.265 z m 1.686,-0.272 c -0.129,-0.08 -0.317,-0.092 -0.419,-0.028 -0.108,0.068 -0.056,0.142 0.124,0.177 0.17,0.034 0.315,0.155 0.323,0.27 0.008,0.126 0.051,0.113 0.11,-0.034 0.052,-0.133 -0.01,-0.306 -0.138,-0.385 z m -0.515,-0.355 c 0,-0.091 -0.08,-0.166 -0.177,-0.166 -0.097,0 -0.176,0.124 -0.176,0.275 0,0.151 0.08,0.226 0.176,0.166 0.097,-0.06 0.177,-0.184 0.177,-0.275 z M 56.743,613.6 c 0,-0.14 -0.079,-0.303 -0.176,-0.363 -0.097,-0.06 -0.176,0.055 -0.176,0.254 0,0.2 0.079,0.364 0.176,0.364 0.097,0 0.176,-0.115 0.176,-0.255 z m -26.105,-0.342 c 0,-0.037 -0.199,-0.106 -0.441,-0.152 -0.243,-0.047 -0.441,-0.016 -0.441,0.067 0,0.084 0.198,0.152 0.44,0.152 0.243,0 0.442,-0.03 0.442,-0.067 z m 26.54,-1.167 c 0.344,0 0.506,-0.62 0.274,-1.052 -0.127,-0.238 -0.37,-0.36 -0.715,-0.36 -0.61,0 -0.67,-0.176 -0.166,-0.49 0.296,-0.185 0.323,-0.286 0.16,-0.592 -0.109,-0.202 -0.159,-0.57 -0.112,-0.817 0.05,-0.264 -0.051,-0.673 -0.247,-0.994 -0.434,-0.711 -0.42,-0.862 0.061,-0.709 0.352,0.112 0.369,0.093 0.155,-0.164 -0.337,-0.406 -0.525,-0.362 -0.654,0.152 a 1.13,1.13 0 0 0 0.145,0.838 c 0.37,0.57 0.544,2.247 0.234,2.247 -0.324,0 -0.47,0.441 -0.226,0.684 0.109,0.11 0.383,0.198 0.609,0.198 0.627,0 0.72,0.518 0.164,0.922 -0.266,0.194 -0.466,0.508 -0.462,0.725 0.006,0.348 0.03,0.339 0.27,-0.103 0.145,-0.267 0.374,-0.485 0.51,-0.485 z m -17.456,0.352 c 0.06,-0.097 -0.015,-0.176 -0.166,-0.176 -0.151,0 -0.275,0.08 -0.275,0.176 0,0.097 0.075,0.177 0.166,0.177 0.091,0 0.215,-0.08 0.275,-0.177 z m -0.013,-1.078 c -0.177,-0.288 -0.428,-0.16 -0.428,0.218 0,0.312 0.044,0.338 0.262,0.156 0.145,-0.12 0.22,-0.288 0.166,-0.374 z m -0.605,-0.95 c -0.12,-0.146 -0.299,-0.265 -0.396,-0.265 -0.098,0 -0.079,0.117 0.044,0.265 0.12,0.145 0.299,0.265 0.396,0.265 0.098,0 0.079,-0.117 -0.044,-0.265 z m 16.326,-0.22 c 0.595,-0.475 0.804,-1.137 0.431,-1.368 -0.097,-0.06 -0.176,-0.302 -0.176,-0.54 0,-0.236 -0.067,-0.43 -0.148,-0.43 -0.082,0 -0.244,-0.21 -0.361,-0.468 -0.344,-0.753 -0.552,-0.268 -0.623,1.451 -0.086,2.078 -0.067,2.107 0.877,1.354 z m -0.706,-0.353 c 0.074,-0.267 0.12,-0.922 0.103,-1.456 l -0.031,-0.97 0.352,0.441 c 0.194,0.243 0.355,0.615 0.357,0.828 0.002,0.212 0.084,0.436 0.182,0.496 0.17,0.105 -0.718,1.146 -0.978,1.146 -0.066,0 -0.06,-0.219 0.015,-0.485 z m -23.028,0.21 c 0,-0.14 -0.074,-0.254 -0.165,-0.254 -0.091,0 -0.154,0.153 -0.14,0.34 0.029,0.385 0.305,0.307 0.305,-0.086 z m 22.299,-0.714 c 0.425,-0.163 0.333,-0.384 -0.124,-0.296 -0.374,0.071 -0.398,0.026 -0.334,-0.642 0.068,-0.712 0.262,-0.925 0.454,-0.499 0.055,0.122 0.08,0.062 0.057,-0.132 -0.024,-0.194 -0.16,-0.353 -0.304,-0.353 -0.177,0 -0.3,0.278 -0.384,0.871 -0.162,1.13 -0.05,1.314 0.635,1.05 z m -6.686,-2.583 c -0.096,-0.74 -0.232,-1.023 -0.678,-1.41 -0.714,-0.616 -3.73,-2.169 -4.493,-2.312 -0.86,-0.162 -0.53,0.153 0.446,0.423 0.463,0.128 1.358,0.494 1.989,0.813 l 1.146,0.579 0.031,0.843 c 0.027,0.737 0.115,0.916 0.69,1.417 0.364,0.315 0.734,0.573 0.824,0.573 0.095,0 0.114,-0.39 0.045,-0.926 z m 4.115,0.054 c 0.076,-0.537 -0.44,-0.986 -0.796,-0.691 -0.25,0.208 -0.318,0.892 -0.11,1.1 0.274,0.273 0.846,0.015 0.906,-0.41 z m -0.785,-0.113 c 0.059,-0.153 0.107,-0.312 0.107,-0.352 0,-0.041 0.08,-0.074 0.177,-0.074 0.097,0 0.176,0.159 0.176,0.353 0,0.206 -0.118,0.352 -0.284,0.352 -0.186,0 -0.246,-0.096 -0.176,-0.279 z m 5.006,-0.217 c 0.041,-0.125 -0.037,-0.168 -0.197,-0.107 -0.192,0.074 -0.282,-0.036 -0.323,-0.396 -0.062,-0.534 -0.675,-0.84 -0.675,-0.336 0,0.152 -0.063,0.277 -0.14,0.277 -0.25,0 -0.565,-0.414 -0.565,-0.74 0,-0.175 -0.092,-0.318 -0.204,-0.318 -0.32,0 -1.384,-0.874 -1.384,-1.137 0,-0.13 -0.113,-0.28 -0.251,-0.333 -0.565,-0.217 0.216,1.022 0.852,1.352 0.349,0.18 0.634,0.425 0.634,0.543 0,0.118 0.228,0.432 0.506,0.699 0.487,0.467 0.509,0.471 0.6,0.121 0.14,-0.535 0.422,-0.442 0.546,0.181 0.105,0.525 0.453,0.638 0.6,0.194 z m -12.484,-0.386 c 0,-0.097 -0.218,-0.168 -0.485,-0.158 l -0.485,0.017 0.441,0.141 c 0.243,0.078 0.461,0.15 0.485,0.16 0.025,0.01 0.044,-0.063 0.044,-0.16 z m 4.7,-0.837 a 3.42,3.42 0 0 1 0.366,-0.868 c 0.552,-0.853 -0.552,-2.714 -1.768,-2.98 -0.638,-0.14 -0.85,0.043 -0.23,0.199 0.609,0.152 1.388,0.903 1.678,1.614 0.205,0.502 0.189,0.654 -0.14,1.334 -0.407,0.84 -0.465,1.186 -0.2,1.186 0.096,0 0.228,-0.219 0.293,-0.485 z m -8.14,-0.008 c 0.504,-0.143 0.706,-0.41 0.712,-0.942 0.004,-0.37 -0.074,-0.46 -0.388,-0.44 -0.372,0.021 -0.379,0.046 -0.124,0.435 0.313,0.477 0.333,0.444 -0.45,0.71 -0.53,0.178 -0.652,0.16 -0.982,-0.15 -0.208,-0.196 -0.473,-0.355 -0.59,-0.355 -0.116,0 0.048,0.236 0.365,0.524 0.338,0.308 0.685,0.482 0.84,0.421 0.146,-0.057 0.424,-0.148 0.618,-0.203 z m 2.911,-0.464 c -0.97,-0.503 -1.94,-0.737 -1.94,-0.469 0,0.105 0.226,0.19 0.502,0.19 0.278,0 0.644,0.158 0.82,0.354 0.194,0.213 0.536,0.349 0.866,0.344 0.543,-0.008 0.54,-0.01 -0.248,-0.42 z m -3.176,-0.097 c 0.384,-0.243 0.05,-0.47 -0.88,-0.598 -0.786,-0.107 -0.79,-0.105 -0.31,0.16 0.267,0.147 0.486,0.345 0.486,0.439 0,0.216 0.361,0.215 0.704,-10e-4 z m -2.115,-0.478 c 0,-0.225 0.653,-0.505 1.014,-0.436 0.193,0.037 0.308,-0.312 0.24,-0.727 -0.013,-0.076 0.097,-0.184 0.243,-0.24 0.147,-0.056 0.266,-0.182 0.266,-0.28 0,-0.108 -0.468,-0.15 -1.202,-0.109 -0.913,0.052 -1.497,0.211 -2.425,0.663 -0.673,0.328 -1.245,0.612 -1.271,0.633 -0.17,0.13 0.232,0.605 0.548,0.65 0.98,0.14 2.587,0.044 2.587,-0.154 z m 13.934,-1.114 c 0,-0.194 -0.03,-0.353 -0.067,-0.353 -0.038,0 -0.11,0.159 -0.16,0.353 -0.051,0.194 -0.02,0.352 0.067,0.352 0.088,0 0.16,-0.158 0.16,-0.352 z m -0.673,-0.391 c -0.127,-0.127 -0.209,-0.137 -0.209,-0.027 0,0.236 0.209,0.444 0.327,0.326 0.05,-0.05 -0.003,-0.185 -0.118,-0.3 z m -9.059,-0.647 c 0.08,-0.55 0.58,-0.683 2.456,-0.659 1.697,0.022 2.182,-0.133 0.882,-0.281 -1.101,-0.126 -2.691,-0.022 -3.114,0.205 -0.203,0.109 -0.37,0.338 -0.37,0.509 0,0.171 -0.099,0.416 -0.22,0.545 -0.178,0.188 -0.17,0.218 0.044,0.154 0.146,-0.044 0.29,-0.257 0.322,-0.473 z m -0.68,-0.009 c 0.274,-0.514 0.221,-0.717 -0.188,-0.717 -0.409,0 -1.394,0.526 -1.394,0.744 0,0.22 0.173,0.164 0.732,-0.234 0.589,-0.42 0.863,-0.316 0.538,0.203 -0.12,0.194 -0.14,0.345 -0.043,0.345 0.094,0 0.254,-0.153 0.354,-0.34 z M 11.5,638.53 c -1.012,-0.772 -3.312,-2.27 -4.851,-3.158 -6.603,-3.815 -8.916,-6.802 -8.308,-10.728 0.308,-1.987 1.319,-3.761 3.141,-5.514 2.608,-2.51 4.814,-3.77 4.814,-2.75 0,0.133 -0.682,0.79 -1.515,1.46 -1.784,1.434 -3.229,3.133 -3.898,4.585 -0.392,0.848 -0.494,1.361 -0.553,2.754 -0.068,1.619 -0.042,1.776 0.472,2.874 0.299,0.639 0.834,1.516 1.189,1.95 1.624,1.982 5.917,3.986 9.601,4.483 a 47.2,47.2 0 0 1 1.892,0.283 c 0.418,0.086 0.556,0.428 0.173,0.428 -0.123,0 -0.517,0.2 -0.876,0.443 -0.46,0.313 -0.707,0.648 -0.84,1.14 -0.18,0.67 -0.102,1.015 0.49,2.165 0.143,0.279 -0.254,0.102 -0.931,-0.415 z m 17.468,-0.819 c -0.967,-0.059 -1.505,-0.26 -1.505,-0.56 0,-0.065 0.507,-0.086 1.127,-0.047 0.66,0.042 1.264,-0.01 1.456,-0.127 0.257,-0.157 -0.015,-0.192 -1.26,-0.163 -1.54,0.035 -1.616,0.018 -2.51,-0.57 -0.508,-0.333 -0.899,-0.685 -0.869,-0.782 0.03,-0.097 0.499,-0.39 1.042,-0.652 0.968,-0.467 1.06,-0.477 4.572,-0.495 4.494,-0.024 4.203,-0.04 4.203,0.22 0,0.25 -0.74,0.728 -3.22,2.08 -0.945,0.515 -1.719,1.002 -1.719,1.082 0,0.08 -0.06,0.13 -0.132,0.113 -0.073,-0.019 -0.606,-0.063 -1.185,-0.099 z m 2.127,-1.325 c 0.072,-0.072 -0.482,-0.13 -1.232,-0.13 -0.75,0 -1.326,0.059 -1.28,0.132 0.105,0.171 2.34,0.17 2.512,-0.001 z m -3.057,-0.608 a 3.133,3.133 0 0 0 -0.881,-0.002 c -0.269,0.041 -0.091,0.075 0.394,0.077 0.485,0 0.704,-0.032 0.487,-0.074 z m 3.526,-0.005 a 10.112,10.112 0 0 0 -1.5,0 c -0.412,0.038 -0.074,0.068 0.75,0.068 0.825,0 1.162,-0.03 0.75,-0.068 z m 1.543,-0.508 c 0,-0.037 -0.615,-0.055 -1.367,-0.04 -1.32,0.029 -1.334,0.033 -0.397,0.133 0.921,0.098 1.764,0.054 1.764,-0.093 z m -5.24,-0.086 c -0.139,-0.14 -0.286,-0.141 -0.52,-0.005 -0.285,0.166 -0.261,0.19 0.195,0.194 0.38,0.004 0.468,-0.047 0.326,-0.189 z m 1.318,0.073 a 1.936,1.936 0 0 0 -0.706,-0.004 c -0.22,0.043 -0.081,0.079 0.307,0.08 0.388,0.003 0.567,-0.032 0.399,-0.076 z m 0.791,-0.348 a 0.681,0.681 0 0 0 -0.44,0 c -0.122,0.049 -0.023,0.089 0.22,0.089 0.242,0 0.342,-0.04 0.22,-0.09 z m 2.649,-0.007 a 3.137,3.137 0 0 0 -0.882,-0.002 c -0.268,0.04 -0.091,0.075 0.394,0.076 0.485,10e-4 0.705,-0.032 0.488,-0.074 z m -4.677,-2.49 c -0.68,-0.078 -2.368,-2.677 -3.318,-5.108 -1.1,-2.813 -1.451,-4.881 -1.339,-7.888 0.15,-3.978 1.41,-7.693 3.65,-10.76 0.937,-1.283 1.175,-1.451 1.536,-1.09 0.27,0.27 0.26,0.326 -0.162,0.779 -2.661,2.86 -4.445,8.309 -4.115,12.57 0.297,3.85 1.488,7.32 3.458,10.08 0.486,0.681 0.859,1.29 0.829,1.356 -0.03,0.064 -0.272,0.092 -0.539,0.062 z m -7.451,-7.991 c -1.325,-1.466 -4.19,-4.06 -7.092,-6.42 -5.38,-4.495 -15.566,-11.797 -15.573,-19.131 -0.004,-4.895 4.372,-9.929 12.887,-14.344 14.752,-7.65 42.72,-13.445 87.564,-13.445 9.573,0 12.51,-0.074 24.783,0.454 45.595,2.318 68.351,13.932 68.351,24.682 0,9.267 -13.576,20.98 -40.13,24.513 -1.018,0.107 -2.11,0.227 -2.425,0.266 -0.532,0.068 -0.573,0.036 -0.573,-0.442 0,-0.574 -0.043,-0.556 2.117,-0.882 15.412,-2.767 34.574,-12.798 34.72,-22.487 0.114,-7.538 -15.727,-14.973 -25.107,-17.946 -3.957,-1.243 -7.157,-1.996 -12.612,-2.968 l -3.88,-0.693 c -1.63,-0.293 -5.448,-0.88 -6.23,-0.958 a 527.277,527.277 0 0 1 -7.529,-0.801 c -1.783,-0.215 -7.523,-0.791 -10.495,-1.053 -2.624,-0.232 -10.746,-0.535 -16.492,-0.616 -6.6,-0.092 -17.373,0.201 -25.841,0.705 -6.478,0.385 -6.894,0.52 -9.172,0.701 -34.663,2.772 -63.257,14.796 -63.257,24.683 0,2.741 2.013,5.607 4.357,6.84 3.839,2.019 10.582,2.394 15.498,0.823 1.438,-0.46 2.116,-0.639 2.009,-0.352 -0.032,0.086 -0.48,0.488 -0.994,0.893 -1.621,1.276 -3.509,4.238 -4.333,6.799 -0.737,2.29 -1.18,6.814 -0.843,8.603 0.106,0.56 0.39,1.51 0.632,2.108 0.242,0.6 0.414,1.115 0.383,1.147 -0.032,0.031 -0.357,-0.274 -0.723,-0.68 z m 11.023,0.057 c 0,-0.183 0.382,-0.565 0.564,-0.565 0.078,0 0.141,0.159 0.141,0.353 0,0.235 -0.117,0.353 -0.353,0.353 -0.194,0 -0.352,-0.064 -0.352,-0.141 z m -0.618,-7.091 c -0.06,-0.097 -0.025,-0.177 0.078,-0.177 0.103,0 0.187,0.08 0.187,0.177 0,0.097 -0.035,0.176 -0.078,0.176 -0.043,0 -0.127,-0.08 -0.187,-0.176 z m 0.441,-0.988 c 0,-0.14 0.22,-0.21 0.6,-0.19 0.715,0.037 0.676,0.224 -0.068,0.333 -0.35,0.052 -0.532,0.002 -0.532,-0.143 z m -0.529,-0.6 c 0,-0.097 0.084,-0.176 0.187,-0.176 0.103,0 0.138,0.08 0.078,0.176 -0.06,0.097 -0.144,0.177 -0.187,0.177 -0.043,0 -0.078,-0.08 -0.078,-0.177 z m 1.666,-0.368 c -0.054,-0.089 0.064,-0.16 0.264,-0.16 0.2,0 0.363,-0.085 0.363,-0.188 0,-0.102 0.087,-0.133 0.192,-0.068 0.137,0.085 0.137,0.173 0.002,0.309 -0.25,0.25 -0.696,0.308 -0.82,0.107 z m 2.513,-0.803 c -0.187,-0.188 0.048,-0.408 0.324,-0.302 0.142,0.055 0.214,0.17 0.16,0.257 -0.114,0.185 -0.324,0.205 -0.484,0.045 z m 0.495,-0.769 c 0.06,-0.097 0.144,-0.176 0.187,-0.176 0.043,0 0.078,0.08 0.078,0.176 0,0.097 -0.084,0.176 -0.187,0.176 -0.102,0 -0.137,-0.079 -0.078,-0.176 z m -1.356,-0.826 c 0.128,-0.051 0.28,-0.045 0.339,0.014 0.058,0.059 -0.046,0.1 -0.232,0.093 -0.205,-0.008 -0.247,-0.05 -0.107,-0.107 z m -3.67,-0.659 a 0.28,0.28 0 0 1 0.279,-0.279 c 0.153,0 0.248,0.094 0.21,0.21 -0.11,0.327 -0.49,0.38 -0.49,0.07 z m 2.116,0.084 c 0,-0.091 0.08,-0.215 0.176,-0.275 0.097,-0.06 0.177,0.015 0.177,0.166 0,0.152 -0.08,0.275 -0.177,0.275 -0.097,0 -0.176,-0.074 -0.176,-0.166 z m 1.411,-0.186 c 0,-0.097 0.12,-0.177 0.265,-0.177 0.145,0 0.264,0.08 0.264,0.177 0,0.097 -0.119,0.176 -0.264,0.176 -0.146,0 -0.265,-0.08 -0.265,-0.176 z m 6.977,-0.305 a 0.467,0.467 0 0 1 0.099,-0.475 c 0.155,-0.142 0.18,-0.112 0.1,0.118 -0.134,0.378 0.11,0.404 0.409,0.044 0.12,-0.145 0.329,-0.264 0.462,-0.264 0.434,0 0.258,0.28 -0.359,0.574 -0.553,0.264 -0.611,0.264 -0.711,0.003 z m -7.859,-0.754 a 0.177,0.177 0 0 1 0.353,0 c 0,0.097 -0.08,0.177 -0.176,0.177 a 0.177,0.177 0 0 1 -0.177,-0.177 z m 2.646,-0.54 c 0,-0.102 0.08,-0.137 0.176,-0.077 0.097,0.06 0.177,0.144 0.177,0.187 0,0.042 -0.08,0.077 -0.177,0.077 -0.097,0 -0.176,-0.084 -0.176,-0.186 z m 1.147,0.011 c -0.06,-0.097 0.014,-0.176 0.166,-0.176 a 0.27,0.27 0 0 0 0.275,-0.265 c 0,-0.145 0.082,-0.265 0.182,-0.265 0.124,0 0.126,0.107 0.006,0.33 -0.097,0.181 -0.126,0.38 -0.065,0.441 0.062,0.061 -0.016,0.111 -0.172,0.111 -0.156,0 -0.332,-0.079 -0.392,-0.176 z m -1.573,-0.682 c -0.076,-0.123 -0.09,-0.271 -0.033,-0.33 0.158,-0.157 0.33,0.075 0.245,0.33 -0.06,0.18 -0.101,0.18 -0.212,0 z m 0.888,-0.332 c 0.167,-0.693 0.244,-0.716 0.244,-0.074 0,0.308 -0.081,0.559 -0.18,0.559 -0.107,0 -0.133,-0.197 -0.064,-0.485 z m -1.432,-0.22 c 0.06,-0.098 0.188,-0.177 0.285,-0.177 0.097,0 0.128,0.08 0.068,0.176 -0.06,0.097 -0.189,0.177 -0.286,0.177 -0.097,0 -0.127,-0.08 -0.067,-0.177 z m 2.991,-0.012 c -0.064,-0.104 -0.074,-0.23 -0.022,-0.283 0.126,-0.126 0.47,0.097 0.47,0.305 0,0.225 -0.304,0.21 -0.448,-0.022 z m 1.242,0.011 a 0.328,0.328 0 0 1 0.049,-0.383 c 0.117,-0.118 0.219,-0.108 0.304,0.03 a 0.328,0.328 0 0 1 -0.048,0.384 c -0.118,0.118 -0.22,0.107 -0.305,-0.03 z m -4.678,-0.621 c -0.122,-0.148 -0.192,-0.287 -0.153,-0.309 0.81,-0.467 0.862,-0.48 0.862,-0.232 0,0.138 -0.099,0.291 -0.22,0.34 -0.17,0.068 -0.167,0.092 0.01,0.103 0.127,0.008 0.182,0.093 0.122,0.19 -0.154,0.25 -0.362,0.22 -0.62,-0.092 z m 1.239,0.086 c -0.23,-0.153 -0.219,-0.212 0.078,-0.439 0.392,-0.299 0.694,-0.11 0.526,0.327 -0.13,0.339 -0.236,0.358 -0.604,0.112 z m 1.587,-0.092 c 0,-0.458 0.438,-1.667 0.586,-1.617 0.318,0.106 0.337,1.12 0.026,1.43 -0.279,0.28 -0.612,0.381 -0.612,0.187 z m 0.98,-0.063 a 0.197,0.197 0 0 1 0.063,-0.27 0.197,0.197 0 0 1 0.27,0.063 0.197,0.197 0 0 1 -0.063,0.27 0.197,0.197 0 0 1 -0.27,-0.063 z m -4.331,-0.72 c 0,-0.098 0.084,-0.177 0.187,-0.177 0.102,0 0.137,0.08 0.077,0.176 -0.06,0.097 -0.144,0.177 -0.186,0.177 -0.043,0 -0.078,-0.08 -0.078,-0.177 z m 1.142,-0.537 c -0.169,-0.273 0.13,-0.54 0.411,-0.367 0.182,0.112 0.176,0.183 -0.03,0.354 -0.19,0.158 -0.29,0.161 -0.38,0.013 z m 1.327,-0.34 c 0,-0.22 0.626,-0.556 0.77,-0.413 0.153,0.154 -0.234,0.584 -0.527,0.584 -0.133,0 -0.243,-0.077 -0.243,-0.17 z m 1.653,-0.571 c -0.144,-0.234 0.265,-0.487 0.794,-0.49 0.338,-0.002 0.38,0.044 0.215,0.242 -0.27,0.326 -0.87,0.473 -1.009,0.248 z m -5.666,-0.165 c -0.12,-0.122 -0.22,-0.325 -0.22,-0.452 0,-0.126 -0.08,-0.229 -0.177,-0.229 a 0.177,0.177 0 0 1 -0.176,-0.176 c 0,-0.264 0.456,-0.213 0.698,0.078 0.116,0.14 0.185,0.423 0.153,0.629 -0.046,0.3 -0.1,0.33 -0.278,0.15 z m 3.484,0.038 c 0,-0.219 1.06,-0.739 1.256,-0.617 0.27,0.166 0.17,0.364 -0.294,0.575 -0.541,0.247 -0.962,0.265 -0.962,0.042 z m -1.268,-0.31 c 0.128,-0.051 0.28,-0.045 0.338,0.014 0.059,0.058 -0.045,0.1 -0.231,0.092 -0.206,-0.008 -0.247,-0.05 -0.107,-0.106 z m -1.161,-0.618 c 0.088,-0.264 0.489,-0.41 0.489,-0.177 0,0.094 -0.126,0.22 -0.28,0.28 -0.171,0.065 -0.252,0.026 -0.209,-0.103 z m 2.017,-0.085 c -0.22,-0.221 -0.117,-0.45 0.157,-0.344 0.157,0.06 0.227,0.03 0.166,-0.07 -0.06,-0.095 0.055,-0.174 0.255,-0.174 0.41,0 0.465,0.18 0.152,0.494 -0.235,0.234 -0.549,0.275 -0.73,0.094 z m 32.365,-21.93 c -0.063,-0.05 -0.274,-0.406 -0.468,-0.794 -0.469,-0.936 -1.667,-2.123 -2.501,-2.476 -1.458,-0.618 -5.55,-0.51 -10.904,0.29 -1.261,0.187 -2.4,0.38 -2.532,0.427 -0.131,0.047 -0.766,0.197 -1.41,0.333 -0.646,0.137 -1.312,0.303 -1.482,0.37 -0.172,0.069 -0.309,0.043 -0.309,-0.057 5.782,-2.704 30.011,-6.667 54.481,-6.447 16.581,0.148 33.309,2.145 44.344,8.03 -0.157,0.042 -5.662,0.234 -35.63,0.23 -19.769,-0.004 -37.637,0.036 -39.709,0.088 -2.071,0.051 -3.817,0.054 -3.88,0.005 z"
       transform="matrix(0.27152,0,0,0.2584,3.2344458,-144.91928)"
       id="path2878" />
    <g
       aria-label="URBAN"
       style="font-style:italic;font-size:19.484px;line-height:1.25;font-family:Calibri;-inkscape-font-specification:'Calibri, Italic';font-variant-ligatures:none;text-align:center;letter-spacing:0.926042px;word-spacing:0;text-anchor:middle;fill:#212121;fill-opacity:1;stroke-width:0.264583"
       id="g2890"
       transform="translate(-152.81356,-51.642251)">
      <path
         d="m 75.461,329.998 v -6.707 q 0,-0.857 0.38,-1.285 0.39,-0.428 1.019,-0.428 0.656,0 1.037,0.428 0.39,0.428 0.39,1.285 v 6.859 q 0,1.17 0.257,1.96 0.266,0.78 0.932,1.218 0.666,0.428 1.865,0.428 1.655,0 2.34,-0.876 0.685,-0.884 0.685,-2.673 v -6.916 q 0,-0.866 0.38,-1.285 0.381,-0.428 1.019,-0.428 0.637,0 1.027,0.428 0.4,0.419 0.4,1.285 v 6.707 q 0,1.636 -0.324,2.73 -0.314,1.094 -1.199,1.922 -0.76,0.704 -1.77,1.027 -1.008,0.324 -2.359,0.324 -1.607,0 -2.768,-0.343 -1.16,-0.352 -1.893,-1.075 -0.733,-0.732 -1.075,-1.864 -0.343,-1.142 -0.343,-2.721 z"
         style="font-style:normal;font-family:'Arial Rounded MT Bold';-inkscape-font-specification:'Arial Rounded MT Bold, ';fill:#212121;fill-opacity:1"
         transform="matrix(0.27152,0,0,0.2584,154.903,-24.471)"
         id="path2880" />
      <path
         d="m 94.499,329.716 h -0.99 v 4.54 q 0,0.897 -0.39,1.32 -0.39,0.425 -1.017,0.425 -0.676,0 -1.047,-0.444 -0.371,-0.443 -0.371,-1.3 v -10.874 q 0,-0.925 0.41,-1.34 0.408,-0.414 1.322,-0.414 h 4.595 q 0.951,0 1.626,0.086 0.676,0.077 1.218,0.328 0.657,0.28 1.16,0.8 0.505,0.52 0.762,1.215 0.266,0.684 0.266,1.455 0,1.581 -0.884,2.526 -0.876,0.944 -2.664,1.34 0.751,0.404 1.436,1.195 0.685,0.79 1.218,1.687 0.542,0.887 0.837,1.61 0.305,0.713 0.305,0.983 0,0.28 -0.181,0.559 -0.171,0.27 -0.476,0.424 -0.304,0.164 -0.704,0.164 -0.475,0 -0.799,-0.232 -0.323,-0.221 -0.561,-0.568 -0.229,-0.347 -0.628,-1.022 L 97.81,332.27 q -0.61,-1.05 -1.094,-1.6 -0.476,-0.55 -0.97,-0.752 -0.495,-0.202 -1.247,-0.202 z m 1.617,-5.938 H 93.51 v 3.885 h 2.53 q 1.018,0 1.713,-0.174 0.694,-0.183 1.056,-0.607 0.37,-0.434 0.37,-1.186 0,-0.588 -0.294,-1.031 -0.295,-0.453 -0.818,-0.675 -0.495,-0.212 -1.95,-0.212 z m 15.67,11.985 h -4.262 q -0.923,0 -1.323,-0.416 -0.39,-0.426 -0.39,-1.345 v -10.663 q 0,-0.938 0.4,-1.345 0.409,-0.416 1.313,-0.416 h 4.519 q 0.998,0 1.731,0.126 0.733,0.126 1.313,0.484 0.495,0.3 0.875,0.764 0.38,0.455 0.58,1.016 0.2,0.552 0.2,1.17 0,2.13 -2.093,3.116 2.75,0.89 2.75,3.464 0,1.19 -0.6,2.149 -0.599,0.948 -1.617,1.403 -0.637,0.27 -1.465,0.387 -0.828,0.106 -1.931,0.106 z m -0.21,-6.299 h -2.94 v 4.141 h 3.036 q 2.863,0 2.863,-2.1 0,-1.073 -0.742,-1.557 -0.742,-0.484 -2.217,-0.484 z m -2.94,-5.728 v 3.667 h 2.588 q 1.056,0 1.627,-0.203 0.58,-0.203 0.885,-0.774 0.238,-0.407 0.238,-0.91 0,-1.074 -0.752,-1.422 -0.751,-0.358 -2.293,-0.358 z"
         style="font-style:normal;font-family:'Arial Rounded MT Bold';-inkscape-font-specification:'Arial Rounded MT Bold, ';fill:#212121;fill-opacity:1;stroke-width:0.264583"
         transform="matrix(0.27152,0,0,0.2584,154.903,-24.471)"
         id="path2882" />
      <path
         d="m 129.701,334.184 -0.666,-1.75 h -5.67 l -0.666,1.788 q -0.39,1.046 -0.666,1.417 -0.276,0.362 -0.904,0.362 -0.532,0 -0.942,-0.39 -0.409,-0.39 -0.409,-0.885 0,-0.285 0.096,-0.59 0.095,-0.304 0.313,-0.847 l 3.568,-9.057 0.362,-0.932 q 0.218,-0.552 0.456,-0.913 0.248,-0.362 0.638,-0.58 0.4,-0.229 0.98,-0.229 0.59,0 0.98,0.228 0.4,0.22 0.637,0.571 0.247,0.352 0.409,0.761 0.171,0.4 0.428,1.075 l 3.644,9 q 0.428,1.028 0.428,1.494 0,0.485 -0.41,0.894 -0.399,0.4 -0.97,0.4 -0.332,0 -0.57,-0.124 -0.238,-0.114 -0.4,-0.314 -0.162,-0.21 -0.352,-0.628 z m -5.594,-3.872 h 4.167 l -2.102,-5.756 z m 15.198,-7.04 5.432,8.22 v -8.297 q 0,-0.808 0.343,-1.208 0.352,-0.409 0.942,-0.409 0.609,0 0.96,0.41 0.353,0.399 0.353,1.207 v 10.97 q 0,1.836 -1.523,1.836 -0.38,0 -0.685,-0.114 -0.304,-0.105 -0.57,-0.343 -0.267,-0.238 -0.495,-0.552 -0.228,-0.323 -0.457,-0.656 l -5.299,-8.125 v 8.173 q 0,0.799 -0.37,1.208 -0.372,0.409 -0.952,0.409 -0.6,0 -0.961,-0.41 -0.362,-0.418 -0.362,-1.207 v -10.76 q 0,-0.685 0.153,-1.075 0.18,-0.429 0.599,-0.695 0.419,-0.276 0.904,-0.276 0.38,0 0.647,0.124 0.276,0.123 0.475,0.333 0.21,0.21 0.419,0.542 0.219,0.333 0.447,0.695 z"
         style="font-style:normal;font-family:'Arial Rounded MT Bold';-inkscape-font-specification:'Arial Rounded MT Bold, ';fill:#212121;fill-opacity:1"
         transform="matrix(0.27152,0,0,0.2584,154.903,-24.471)"
         id="path2884" />
      <path
         style="opacity:1;fill:#212121;fill-opacity:1;stroke-width:0.799999;stroke-linecap:square;paint-order:fill markers stroke"
         d="m 90.684,321.629 h 1.732 v 1.64 h -1.732 z"
         transform="matrix(0.27152,0,0,0.2584,154.903,-24.471)"
         id="path2886" />
      <path
         style="fill:#212121;fill-opacity:1;stroke-width:0.799999;stroke-linecap:square;paint-order:fill markers stroke"
         d="m 105.811,321.578 h 1.732 v 14.185 h -1.732 z"
         transform="matrix(0.27152,0,0,0.2584,154.903,-24.471)"
         id="path2888" />
    </g>
    <g
       aria-label="CRUISE"
       style="font-style:italic;font-size:19.484px;line-height:1.25;font-family:Calibri;-inkscape-font-specification:'Calibri, Italic';font-variant-ligatures:none;text-align:center;letter-spacing:-0.132292px;word-spacing:0;text-anchor:middle;fill:#212121;fill-opacity:1;stroke-width:0.264583"
       id="g2906"
       transform="translate(-152.81356,-51.642251)">
      <path
         d="m 87.59,349.897 q 0,0.666 -0.333,1.446 -0.324,0.771 -1.028,1.523 -0.704,0.742 -1.798,1.208 -1.094,0.466 -2.55,0.466 -1.103,0 -2.007,-0.21 -0.904,-0.209 -1.646,-0.646 -0.732,-0.447 -1.35,-1.17 -0.553,-0.657 -0.943,-1.466 -0.39,-0.818 -0.59,-1.74 -0.19,-0.923 -0.19,-1.96 0,-1.684 0.486,-3.016 0.494,-1.332 1.408,-2.274 0.913,-0.951 2.14,-1.446 1.227,-0.495 2.616,-0.495 1.694,0 3.016,0.676 1.323,0.675 2.027,1.674 0.704,0.99 0.704,1.874 0,0.486 -0.343,0.857 -0.342,0.37 -0.828,0.37 -0.542,0 -0.818,-0.256 -0.266,-0.257 -0.6,-0.885 -0.55,-1.037 -1.302,-1.55 -0.743,-0.514 -1.837,-0.514 -1.74,0 -2.778,1.322 -1.027,1.322 -1.027,3.758 0,1.627 0.457,2.711 0.456,1.075 1.293,1.608 0.838,0.533 1.96,0.533 1.218,0 2.055,-0.6 0.847,-0.608 1.275,-1.779 0.18,-0.551 0.447,-0.894 0.267,-0.352 0.856,-0.352 0.505,0 0.866,0.352 0.362,0.352 0.362,0.875 z"
         style="font-style:normal;font-family:'Arial Rounded MT Bold';-inkscape-font-specification:'Arial Rounded MT Bold, ';fill:#212121;fill-opacity:1"
         transform="matrix(0.27152,0,0,0.2584,154.903,-24.471)"
         id="path2892" />
      <path
         d="m 93.793,348.233 h -0.989 v 4.556 q 0,0.9 -0.39,1.325 -0.39,0.426 -1.018,0.426 -0.675,0 -1.046,-0.445 -0.371,-0.445 -0.371,-1.306 v -10.911 q 0,-0.929 0.409,-1.345 0.409,-0.416 1.322,-0.416 h 4.595 q 0.951,0 1.627,0.087 0.675,0.078 1.218,0.33 0.656,0.28 1.16,0.802 0.505,0.522 0.761,1.219 0.267,0.687 0.267,1.46 0,1.587 -0.885,2.535 -0.875,0.948 -2.664,1.344 0.752,0.407 1.437,1.2 0.685,0.793 1.218,1.693 0.542,0.89 0.837,1.615 0.304,0.716 0.304,0.987 0,0.28 -0.18,0.56 -0.172,0.272 -0.476,0.426 -0.305,0.165 -0.704,0.165 -0.476,0 -0.8,-0.232 -0.323,-0.223 -0.56,-0.57 -0.23,-0.35 -0.629,-1.026 l -1.132,-1.916 q -0.609,-1.054 -1.094,-1.605 -0.476,-0.552 -0.97,-0.755 -0.495,-0.203 -1.247,-0.203 z m 1.618,-5.959 h -2.607 v 3.899 h 2.53 q 1.019,0 1.713,-0.174 0.695,-0.184 1.056,-0.61 0.371,-0.435 0.371,-1.19 0,-0.59 -0.295,-1.035 -0.295,-0.454 -0.818,-0.677 -0.495,-0.213 -1.95,-0.213 z"
         style="font-style:normal;font-family:'Arial Rounded MT Bold';-inkscape-font-specification:'Arial Rounded MT Bold, ';fill:#212121;fill-opacity:1;stroke-width:0.264583"
         transform="matrix(0.27152,0,0,0.2584,154.903,-24.471)"
         id="path2894" />
      <path
         style="letter-spacing:0.926042px;fill:#212121;fill-opacity:1;stroke-width:0.799999;stroke-linecap:square;paint-order:fill markers stroke"
         d="m 89.978,340.117 h 1.732 v 1.64 h -1.731 z"
         transform="matrix(0.27152,0,0,0.2584,154.903,-24.471)"
         id="path2896" />
      <path
         d="m 104.21,348.537 v -6.707 q 0,-0.856 0.366,-1.285 0.376,-0.428 0.981,-0.428 0.633,0 1,0.428 0.376,0.429 0.376,1.285 v 6.86 q 0,1.17 0.248,1.959 0.257,0.78 0.899,1.218 0.642,0.428 1.797,0.428 1.596,0 2.257,-0.875 0.66,-0.885 0.66,-2.674 v -6.916 q 0,-0.866 0.367,-1.285 0.367,-0.428 0.981,-0.428 0.615,0 0.99,0.428 0.386,0.419 0.386,1.285 v 6.707 q 0,1.636 -0.312,2.73 -0.303,1.094 -1.156,1.922 -0.733,0.704 -1.706,1.028 -0.972,0.323 -2.274,0.323 -1.55,0 -2.67,-0.343 -1.118,-0.352 -1.824,-1.075 -0.706,-0.732 -1.037,-1.864 -0.33,-1.142 -0.33,-2.721 z"
         style="font-style:normal;font-family:'Arial Rounded MT Bold';-inkscape-font-specification:'Arial Rounded MT Bold, ';fill:#212121;fill-opacity:1;stroke-width:0.264583"
         transform="matrix(0.27152,0,0,0.2584,154.903,-24.471)"
         id="path2898" />
      <path
         d="M 118.179,352.818 V 341.83 q 0,-0.857 0.39,-1.285 0.39,-0.428 1.008,-0.428 0.638,0 1.028,0.428 0.4,0.419 0.4,1.285 v 10.988 q 0,0.866 -0.4,1.294 -0.39,0.428 -1.028,0.428 -0.609,0 -1.008,-0.428 -0.39,-0.438 -0.39,-1.294 z m 16.45,-2.702 q 0,1.265 -0.657,2.274 -0.647,1.008 -1.902,1.58 -1.256,0.57 -2.978,0.57 -2.065,0 -3.406,-0.78 -0.951,-0.561 -1.55,-1.494 -0.59,-0.942 -0.59,-1.826 0,-0.514 0.351,-0.876 0.362,-0.37 0.914,-0.37 0.447,0 0.751,0.285 0.314,0.285 0.533,0.846 0.266,0.666 0.57,1.114 0.315,0.447 0.876,0.742 0.561,0.285 1.475,0.285 1.256,0 2.036,-0.58 0.79,-0.59 0.79,-1.465 0,-0.695 -0.429,-1.123 -0.418,-0.438 -1.094,-0.666 -0.666,-0.228 -1.788,-0.485 -1.504,-0.352 -2.522,-0.818 -1.008,-0.476 -1.607,-1.285 -0.59,-0.818 -0.59,-2.026 0,-1.151 0.628,-2.046 0.628,-0.894 1.817,-1.37 1.189,-0.485 2.797,-0.485 1.284,0 2.217,0.324 0.941,0.314 1.56,0.846 0.618,0.524 0.904,1.104 0.285,0.58 0.285,1.132 0,0.504 -0.362,0.913 -0.352,0.4 -0.884,0.4 -0.486,0 -0.742,-0.238 -0.248,-0.247 -0.543,-0.799 -0.38,-0.79 -0.913,-1.227 -0.533,-0.447 -1.712,-0.447 -1.094,0 -1.77,0.485 -0.666,0.476 -0.666,1.151 0,0.419 0.228,0.723 0.229,0.304 0.628,0.523 0.4,0.22 0.809,0.343 0.41,0.123 1.35,0.361 1.18,0.276 2.132,0.61 0.96,0.332 1.627,0.808 0.675,0.476 1.046,1.208 0.38,0.723 0.38,1.78 z"
         style="font-style:normal;font-family:'Arial Rounded MT Bold';-inkscape-font-specification:'Arial Rounded MT Bold, ';fill:#212121;fill-opacity:1"
         transform="matrix(0.27152,0,0,0.2584,154.903,-24.471)"
         id="path2900" />
      <path
         d="m 146.396,342.333 h -6.504 v 3.483 h 5.989 q 0.66,0 0.981,0.3 0.33,0.29 0.33,0.774 0,0.484 -0.32,0.794 -0.32,0.3 -0.991,0.3 h -5.989 v 4.035 h 6.727 q 0.68,0 1.021,0.319 0.35,0.31 0.35,0.832 0,0.503 -0.35,0.823 -0.34,0.31 -1.02,0.31 h -7.846 q -0.942,0 -1.36,-0.417 -0.409,-0.416 -0.409,-1.345 v -10.663 q 0,-0.619 0.185,-1.006 0.185,-0.397 0.574,-0.57 0.398,-0.185 1.01,-0.185 h 7.622 q 0.69,0 1.02,0.31 0.34,0.3 0.34,0.793 0,0.503 -0.34,0.813 -0.33,0.3 -1.02,0.3 z"
         style="font-style:normal;font-family:'Arial Rounded MT Bold';-inkscape-font-specification:'Arial Rounded MT Bold, ';fill:#212121;fill-opacity:1;stroke-width:0.264583"
         transform="matrix(0.27152,0,0,0.2584,154.903,-24.471)"
         id="path2902" />
      <path
         style="letter-spacing:0.926042px;fill:#212121;fill-opacity:1;stroke-width:0.799999;stroke-linecap:square;paint-order:fill markers stroke"
         d="m 137.005,340.117 h 1.732 v 14.185 h -1.732 z"
         transform="matrix(0.27152,0,0,0.2584,154.903,-24.471)"
         id="path2904" />
    </g>
    <g
       aria-label="SHIP"
       style="font-style:italic;font-size:19.484px;line-height:1.25;font-family:Calibri;-inkscape-font-specification:'Calibri, Italic';font-variant-ligatures:none;text-align:center;letter-spacing:7.9375px;word-spacing:0;text-anchor:middle;fill:#212121;fill-opacity:1;stroke-width:0.264583"
       id="g2914"
       transform="translate(-152.81356,-51.642251)">
      <path
         d="m 86.426,368.655 q 0,1.266 -0.657,2.274 -0.647,1.009 -1.903,1.58 -1.255,0.57 -2.977,0.57 -2.065,0 -3.406,-0.78 -0.952,-0.561 -1.55,-1.494 -0.59,-0.941 -0.59,-1.826 0,-0.514 0.351,-0.875 0.362,-0.372 0.914,-0.372 0.447,0 0.751,0.286 0.314,0.285 0.533,0.847 0.266,0.666 0.57,1.113 0.315,0.447 0.876,0.742 0.561,0.285 1.475,0.285 1.255,0 2.035,-0.58 0.79,-0.59 0.79,-1.465 0,-0.695 -0.428,-1.123 -0.419,-0.438 -1.094,-0.666 -0.666,-0.228 -1.789,-0.485 -1.503,-0.352 -2.52,-0.818 -1.01,-0.476 -1.609,-1.285 -0.59,-0.818 -0.59,-2.026 0,-1.151 0.628,-2.045 0.628,-0.895 1.818,-1.37 1.189,-0.486 2.797,-0.486 1.284,0 2.216,0.324 0.942,0.314 1.56,0.847 0.619,0.523 0.904,1.103 0.286,0.58 0.286,1.132 0,0.505 -0.362,0.914 -0.352,0.4 -0.885,0.4 -0.485,0 -0.742,-0.239 -0.247,-0.247 -0.542,-0.799 -0.38,-0.79 -0.913,-1.227 -0.533,-0.447 -1.713,-0.447 -1.094,0 -1.77,0.485 -0.665,0.476 -0.665,1.151 0,0.419 0.228,0.723 0.229,0.305 0.628,0.523 0.4,0.22 0.809,0.343 0.409,0.124 1.35,0.361 1.18,0.276 2.132,0.61 0.96,0.332 1.627,0.808 0.675,0.476 1.046,1.208 0.38,0.723 0.38,1.78 z m 13.179,-8.286 v 3.996 h 6.098 v -3.996 q 0,-0.856 0.381,-1.284 0.39,-0.429 1.018,-0.429 0.637,0 1.027,0.429 0.4,0.418 0.4,1.284 v 10.988 q 0,0.866 -0.4,1.294 -0.4,0.428 -1.027,0.428 -0.637,0 -1.018,-0.428 -0.38,-0.438 -0.38,-1.294 v -4.69 h -6.099 v 4.69 q 0,0.866 -0.4,1.294 -0.399,0.428 -1.027,0.428 -0.637,0 -1.018,-0.428 -0.38,-0.438 -0.38,-1.294 V 360.37 q 0,-0.856 0.37,-1.284 0.381,-0.429 1.028,-0.429 0.638,0 1.028,0.429 0.4,0.418 0.4,1.284 z m 21.865,10.988 V 360.37 q 0,-0.856 0.39,-1.284 0.39,-0.429 1.01,-0.429 0.637,0 1.027,0.429 0.4,0.418 0.4,1.284 v 10.988 q 0,0.866 -0.4,1.294 -0.39,0.428 -1.028,0.428 -0.609,0 -1.008,-0.428 -0.39,-0.438 -0.39,-1.294 z"
         style="font-style:normal;font-family:'Arial Rounded MT Bold';-inkscape-font-specification:'Arial Rounded MT Bold, ';fill:#212121;fill-opacity:1"
         transform="matrix(0.27152,0,0,0.2584,154.903,-24.471)"
         id="path2908" />
      <path
         d="m 142.628,367.343 h -2.588 v 3.994 q 0,0.857 -0.4,1.3 -0.4,0.442 -1.008,0.442 -0.638,0 -1.028,-0.433 -0.39,-0.443 -0.39,-1.29 V 360.48 q 0,-0.943 0.428,-1.347 0.429,-0.404 1.36,-0.404 h 3.626 q 1.607,0 2.473,0.25 0.856,0.24 1.475,0.799 0.628,0.558 0.951,1.366 0.324,0.809 0.324,1.82 0,2.155 -1.313,3.272 -1.313,1.107 -3.91,1.107 z m -0.685,-6.468 h -1.903 v 4.312 h 1.903 q 0.999,0 1.664,-0.212 0.676,-0.212 1.028,-0.693 0.352,-0.481 0.352,-1.26 0,-0.934 -0.542,-1.521 -0.61,-0.626 -2.502,-0.626 z"
         style="font-style:normal;font-family:'Arial Rounded MT Bold';-inkscape-font-specification:'Arial Rounded MT Bold, ';fill:#212121;fill-opacity:1;stroke-width:0.264583"
         transform="matrix(0.27152,0,0,0.2584,154.903,-24.471)"
         id="path2910" />
      <path
         style="letter-spacing:0.926042px;fill:#212121;fill-opacity:1;stroke-width:0.799999;stroke-linecap:square;paint-order:fill markers stroke"
         d="m 137.214,358.729 h 1.732 v 1.64 h -1.732 z"
         transform="matrix(0.27152,0,0,0.2584,154.903,-24.471)"
         id="path2912" />
    </g>
    <g
       aria-label="ANALYSIS"
       transform="matrix(0.57206,0,0,0.54442,-221.33156,-388.77628)"
       style="font-size:3.83967px;line-height:1.3;font-family:'Arial Rounded MT Bold';-inkscape-font-specification:'Arial Rounded MT Bold, Normal';font-variant-ligatures:none;letter-spacing:0;word-spacing:0;white-space:pre;shape-inside:url(#rect12816-2);fill:#212121;fill-opacity:1;stroke-width:0.033227"
       id="g2920">
      <path
         d="m 464.918,747.645 -0.131,-0.345 h -1.118 l -0.13,0.353 q -0.078,0.206 -0.132,0.28 -0.055,0.07 -0.178,0.07 -0.105,0 -0.186,-0.077 -0.08,-0.076 -0.08,-0.174 0,-0.056 0.018,-0.116 0.02,-0.06 0.062,-0.167 l 0.703,-1.785 0.072,-0.184 q 0.043,-0.108 0.09,-0.18 0.048,-0.07 0.125,-0.114 0.079,-0.045 0.193,-0.045 0.117,0 0.193,0.045 0.08,0.043 0.126,0.113 0.049,0.069 0.08,0.15 0.034,0.078 0.085,0.211 l 0.718,1.774 q 0.084,0.202 0.084,0.294 0,0.096 -0.08,0.177 -0.079,0.078 -0.191,0.078 -0.066,0 -0.113,-0.024 -0.047,-0.023 -0.079,-0.062 -0.031,-0.041 -0.069,-0.124 z m -1.102,-0.763 h 0.82 l -0.414,-1.134 z m 3.107,-1.387 1.07,1.62 v -1.635 q 0,-0.16 0.068,-0.238 0.07,-0.08 0.185,-0.08 0.12,0 0.19,0.08 0.07,0.078 0.07,0.238 v 2.162 q 0,0.361 -0.3,0.361 -0.076,0 -0.136,-0.022 -0.06,-0.02 -0.112,-0.068 -0.053,-0.046 -0.098,-0.108 l -0.09,-0.13 -1.044,-1.6 v 1.61 q 0,0.157 -0.073,0.238 -0.073,0.08 -0.188,0.08 -0.118,0 -0.189,-0.08 -0.071,-0.083 -0.071,-0.238 v -2.12 q 0,-0.136 0.03,-0.213 0.035,-0.084 0.118,-0.136 0.082,-0.055 0.178,-0.055 0.075,0 0.128,0.025 0.054,0.024 0.093,0.065 0.041,0.041 0.083,0.107 z m 4.176,2.15 -0.131,-0.345 h -1.118 l -0.131,0.353 q -0.077,0.206 -0.131,0.28 -0.055,0.07 -0.178,0.07 -0.105,0 -0.186,-0.077 -0.08,-0.076 -0.08,-0.174 0,-0.056 0.018,-0.116 0.019,-0.06 0.062,-0.167 l 0.703,-1.785 0.071,-0.184 q 0.043,-0.108 0.09,-0.18 0.049,-0.07 0.126,-0.114 0.079,-0.045 0.193,-0.045 0.116,0 0.193,0.045 0.079,0.043 0.126,0.113 0.048,0.069 0.08,0.15 0.034,0.078 0.085,0.211 l 0.718,1.774 q 0.084,0.202 0.084,0.294 0,0.096 -0.08,0.177 -0.08,0.078 -0.192,0.078 -0.065,0 -0.112,-0.024 -0.047,-0.023 -0.079,-0.062 -0.032,-0.041 -0.07,-0.124 z m -1.103,-0.763 h 0.822 l -0.415,-1.134 z m 2.928,-1.383 v 2 h 1.128 q 0.135,0 0.207,0.066 0.073,0.065 0.073,0.165 0,0.1 -0.072,0.165 -0.07,0.062 -0.208,0.062 h -1.344 q -0.182,0 -0.262,-0.081 -0.08,-0.08 -0.08,-0.26 v -2.117 q 0,-0.17 0.076,-0.253 0.077,-0.085 0.2,-0.085 0.126,0 0.203,0.085 0.079,0.082 0.079,0.253 z m 2.179,2.165 v -0.872 l -0.671,-1.04 q -0.088,-0.14 -0.126,-0.22 -0.035,-0.078 -0.035,-0.137 0,-0.095 0.073,-0.164 0.075,-0.07 0.183,-0.07 0.115,0 0.173,0.066 0.06,0.063 0.178,0.257 l 0.514,0.834 0.519,-0.834 0.079,-0.13 q 0.032,-0.052 0.07,-0.097 0.038,-0.047 0.085,-0.071 0.047,-0.025 0.115,-0.025 0.105,0 0.174,0.07 0.071,0.067 0.071,0.157 0,0.073 -0.035,0.146 -0.036,0.073 -0.122,0.203 l -0.688,1.055 v 0.872 q 0,0.17 -0.079,0.255 -0.079,0.084 -0.2,0.084 -0.124,0 -0.201,-0.082 -0.077,-0.084 -0.077,-0.257 z m 4.056,-0.532 q 0,0.249 -0.13,0.448 -0.127,0.198 -0.374,0.31 -0.248,0.113 -0.587,0.113 -0.407,0 -0.671,-0.153 -0.188,-0.11 -0.306,-0.295 -0.116,-0.185 -0.116,-0.36 0,-0.1 0.07,-0.172 0.07,-0.073 0.18,-0.073 0.087,0 0.147,0.056 0.062,0.056 0.105,0.167 0.053,0.131 0.113,0.22 0.062,0.087 0.172,0.145 0.11,0.057 0.29,0.057 0.248,0 0.402,-0.115 0.156,-0.116 0.156,-0.288 0,-0.137 -0.085,-0.222 -0.082,-0.086 -0.215,-0.13 -0.132,-0.046 -0.353,-0.097 -0.296,-0.069 -0.497,-0.16 -0.198,-0.094 -0.317,-0.254 -0.116,-0.161 -0.116,-0.4 0,-0.226 0.124,-0.402 0.124,-0.177 0.358,-0.27 0.234,-0.096 0.551,-0.096 0.253,0 0.437,0.064 0.186,0.062 0.308,0.167 0.121,0.103 0.178,0.217 0.056,0.115 0.056,0.223 0,0.1 -0.071,0.18 -0.07,0.079 -0.175,0.079 -0.095,0 -0.146,-0.047 -0.049,-0.049 -0.107,-0.157 -0.075,-0.156 -0.18,-0.242 -0.105,-0.088 -0.337,-0.088 -0.216,0 -0.349,0.095 -0.131,0.094 -0.131,0.227 0,0.083 0.045,0.143 0.045,0.06 0.123,0.103 0.08,0.043 0.16,0.067 0.08,0.025 0.266,0.071 0.233,0.055 0.42,0.12 0.19,0.066 0.32,0.16 0.134,0.093 0.207,0.238 0.075,0.142 0.075,0.35 z m 0.771,0.532 V 745.5 q 0,-0.17 0.077,-0.253 0.077,-0.085 0.199,-0.085 0.125,0 0.202,0.085 0.079,0.082 0.079,0.253 v 2.165 q 0,0.17 -0.079,0.255 -0.077,0.084 -0.202,0.084 -0.12,0 -0.199,-0.084 -0.077,-0.086 -0.077,-0.255 z m 3.544,-0.532 q 0,0.249 -0.13,0.448 -0.127,0.198 -0.374,0.31 -0.248,0.113 -0.587,0.113 -0.407,0 -0.671,-0.153 -0.188,-0.11 -0.306,-0.295 -0.116,-0.185 -0.116,-0.36 0,-0.1 0.07,-0.172 0.07,-0.073 0.18,-0.073 0.088,0 0.148,0.056 0.061,0.056 0.105,0.167 0.052,0.131 0.112,0.22 0.062,0.087 0.173,0.145 0.11,0.057 0.29,0.057 0.248,0 0.401,-0.115 0.156,-0.116 0.156,-0.288 0,-0.137 -0.084,-0.222 -0.083,-0.086 -0.216,-0.13 -0.131,-0.046 -0.353,-0.097 -0.296,-0.069 -0.496,-0.16 -0.2,-0.094 -0.317,-0.254 -0.116,-0.161 -0.116,-0.4 0,-0.226 0.123,-0.402 0.124,-0.177 0.358,-0.27 0.235,-0.096 0.552,-0.096 0.253,0 0.436,0.064 0.186,0.062 0.308,0.167 0.122,0.103 0.178,0.217 0.056,0.115 0.056,0.223 0,0.1 -0.071,0.18 -0.07,0.079 -0.174,0.079 -0.096,0 -0.147,-0.047 -0.048,-0.049 -0.106,-0.157 -0.075,-0.156 -0.18,-0.242 -0.105,-0.088 -0.338,-0.088 -0.216,0 -0.349,0.095 -0.13,0.094 -0.13,0.227 0,0.083 0.044,0.143 0.045,0.06 0.124,0.103 0.079,0.043 0.16,0.067 0.08,0.025 0.265,0.071 0.233,0.055 0.42,0.12 0.19,0.066 0.321,0.16 0.133,0.093 0.206,0.238 0.075,0.142 0.075,0.35 z"
         style="letter-spacing:0.276281px;fill:#212121;fill-opacity:1"
         id="path2916" />
      <path
         style="opacity:1;fill:#212121;fill-opacity:1;stroke-width:0.379713;stroke-linecap:square;paint-order:fill markers stroke"
         d="m 472.367,747.687 h 0.386 v 0.27 h -0.386 z"
         id="path2918" />
    </g>
    <g
       aria-label="SOLUTIONS"
       transform="matrix(0.52206,0,0,0.54442,-198.15356,-385.91428)"
       style="font-size:3.83967px;line-height:1.3;font-family:'Arial Rounded MT Bold';-inkscape-font-specification:'Arial Rounded MT Bold, Normal';font-variant-ligatures:none;letter-spacing:0;word-spacing:0;white-space:pre;shape-inside:url(#rect12816-2-5);fill:#212121;fill-opacity:1;stroke-width:0.0347816"
       id="g2928">
      <path
         d="m 465.248,747.132 q 0,0.249 -0.13,0.448 -0.127,0.198 -0.374,0.31 -0.248,0.113 -0.587,0.113 -0.407,0 -0.671,-0.153 -0.188,-0.11 -0.306,-0.295 -0.116,-0.185 -0.116,-0.36 0,-0.1 0.07,-0.172 0.07,-0.073 0.18,-0.073 0.087,0 0.147,0.056 0.062,0.056 0.105,0.167 0.053,0.131 0.113,0.22 0.062,0.087 0.172,0.145 0.11,0.057 0.29,0.057 0.248,0 0.402,-0.115 0.156,-0.116 0.156,-0.288 0,-0.137 -0.085,-0.222 -0.082,-0.086 -0.215,-0.13 -0.132,-0.046 -0.353,-0.097 -0.296,-0.069 -0.497,-0.16 -0.198,-0.094 -0.317,-0.254 -0.116,-0.161 -0.116,-0.4 0,-0.226 0.124,-0.402 0.124,-0.177 0.358,-0.27 0.234,-0.096 0.551,-0.096 0.253,0 0.437,0.064 0.186,0.062 0.308,0.167 0.121,0.103 0.178,0.217 0.056,0.115 0.056,0.223 0,0.1 -0.071,0.18 -0.07,0.079 -0.175,0.079 -0.095,0 -0.146,-0.047 -0.049,-0.049 -0.107,-0.157 -0.075,-0.156 -0.18,-0.242 -0.105,-0.088 -0.337,-0.088 -0.216,0 -0.349,0.095 -0.131,0.094 -0.131,0.227 0,0.083 0.045,0.143 0.045,0.06 0.124,0.103 0.078,0.043 0.159,0.067 0.08,0.025 0.266,0.071 0.233,0.055 0.42,0.12 0.19,0.066 0.32,0.16 0.134,0.093 0.207,0.238 0.075,0.142 0.075,0.35 z m 1.682,-1.971 q 0.427,0 0.733,0.175 0.307,0.172 0.465,0.493 0.157,0.318 0.157,0.75 0,0.318 -0.086,0.579 -0.086,0.26 -0.259,0.452 -0.172,0.19 -0.423,0.292 -0.252,0.101 -0.576,0.101 -0.323,0 -0.578,-0.103 -0.254,-0.105 -0.425,-0.294 -0.17,-0.19 -0.259,-0.456 -0.086,-0.266 -0.086,-0.575 0,-0.317 0.09,-0.581 0.092,-0.265 0.264,-0.45 0.173,-0.186 0.42,-0.283 0.248,-0.1 0.563,-0.1 z m 0.79,1.414 q 0,-0.302 -0.097,-0.523 -0.097,-0.222 -0.279,-0.334 -0.18,-0.114 -0.414,-0.114 -0.167,0 -0.31,0.063 -0.14,0.062 -0.243,0.182 -0.102,0.12 -0.162,0.308 -0.058,0.185 -0.058,0.418 0,0.234 0.058,0.423 0.06,0.19 0.167,0.315 0.109,0.124 0.248,0.186 0.14,0.062 0.307,0.062 0.214,0 0.392,-0.107 0.18,-0.107 0.285,-0.33 0.107,-0.223 0.107,-0.55 z m 1.587,-1.076 v 2 h 1.129 q 0.135,0 0.206,0.066 0.073,0.065 0.073,0.165 0,0.1 -0.071,0.165 -0.072,0.062 -0.208,0.062 h -1.345 q -0.181,0 -0.262,-0.081 -0.079,-0.08 -0.079,-0.26 v -2.117 q 0,-0.17 0.075,-0.253 0.077,-0.085 0.2,-0.085 0.126,0 0.203,0.085 0.079,0.082 0.079,0.253 z"
         style="fill:#212121;fill-opacity:1"
         id="path2922" />
      <path
         style="shape-inside:url(#rect12816-2);fill:#212121;fill-opacity:1;stroke-width:0.397478;stroke-linecap:square;paint-order:fill markers stroke"
         d="m 468.75,747.675 h 0.341 v 0.282 h -0.34 z"
         id="path2924" />
      <path
         d="m 470.893,746.82 v -1.32 q 0,-0.17 0.075,-0.253 0.077,-0.085 0.2,-0.085 0.13,0 0.205,0.085 0.077,0.084 0.077,0.253 v 1.351 q 0,0.231 0.05,0.387 0.053,0.153 0.184,0.24 0.131,0.084 0.368,0.084 0.326,0 0.46,-0.173 0.136,-0.174 0.136,-0.526 V 745.5 q 0,-0.171 0.075,-0.253 0.075,-0.085 0.2,-0.085 0.126,0 0.203,0.085 0.079,0.082 0.079,0.253 v 1.321 q 0,0.323 -0.064,0.538 -0.062,0.216 -0.236,0.38 -0.15,0.138 -0.349,0.202 -0.199,0.063 -0.465,0.063 -0.317,0 -0.545,-0.067 -0.23,-0.07 -0.374,-0.212 -0.144,-0.144 -0.211,-0.367 -0.068,-0.225 -0.068,-0.537 z m 4.698,-1.153 h -0.607 v 1.997 q 0,0.173 -0.077,0.257 -0.077,0.082 -0.199,0.082 -0.123,0 -0.202,-0.084 -0.077,-0.084 -0.077,-0.255 v -1.997 h -0.608 q -0.142,0 -0.211,-0.062 -0.07,-0.063 -0.07,-0.166 0,-0.107 0.072,-0.17 0.073,-0.061 0.21,-0.061 h 1.77 q 0.144,0 0.213,0.064 0.071,0.063 0.071,0.166 0,0.104 -0.07,0.167 -0.072,0.062 -0.215,0.062 z m 0.638,1.997 V 745.5 q 0,-0.17 0.077,-0.253 0.077,-0.085 0.198,-0.085 0.126,0 0.203,0.085 0.079,0.082 0.079,0.253 v 2.165 q 0,0.17 -0.079,0.255 -0.077,0.084 -0.203,0.084 -0.12,0 -0.198,-0.084 -0.077,-0.086 -0.077,-0.255 z m 2.388,-2.503 q 0.428,0 0.733,0.175 0.308,0.172 0.465,0.493 0.158,0.318 0.158,0.75 0,0.318 -0.086,0.579 -0.086,0.26 -0.259,0.452 -0.173,0.19 -0.424,0.292 -0.251,0.101 -0.575,0.101 -0.323,0 -0.578,-0.103 -0.255,-0.105 -0.425,-0.294 -0.171,-0.19 -0.26,-0.456 -0.085,-0.266 -0.085,-0.575 0,-0.317 0.09,-0.581 0.092,-0.265 0.264,-0.45 0.173,-0.186 0.42,-0.283 0.248,-0.1 0.562,-0.1 z m 0.792,1.414 q 0,-0.302 -0.098,-0.523 -0.097,-0.222 -0.28,-0.334 -0.18,-0.114 -0.414,-0.114 -0.166,0 -0.309,0.063 -0.14,0.062 -0.244,0.182 -0.1,0.12 -0.16,0.308 -0.059,0.185 -0.059,0.418 0,0.234 0.058,0.423 0.06,0.19 0.167,0.315 0.109,0.124 0.247,0.186 0.141,0.062 0.308,0.062 0.214,0 0.392,-0.107 0.18,-0.107 0.285,-0.33 0.107,-0.223 0.107,-0.55 z m 1.766,-1.08 1.07,1.62 v -1.635 q 0,-0.16 0.068,-0.238 0.07,-0.08 0.185,-0.08 0.12,0 0.19,0.08 0.07,0.078 0.07,0.238 v 2.162 q 0,0.361 -0.3,0.361 -0.076,0 -0.136,-0.022 -0.06,-0.02 -0.112,-0.068 -0.053,-0.046 -0.098,-0.108 l -0.09,-0.13 -1.044,-1.6 v 1.61 q 0,0.157 -0.073,0.238 -0.073,0.08 -0.188,0.08 -0.118,0 -0.19,-0.08 -0.07,-0.083 -0.07,-0.238 v -2.12 q 0,-0.136 0.03,-0.213 0.035,-0.084 0.118,-0.136 0.082,-0.055 0.178,-0.055 0.075,0 0.127,0.025 0.055,0.024 0.094,0.065 0.041,0.041 0.083,0.107 z m 4.28,1.637 q 0,0.249 -0.13,0.448 -0.127,0.198 -0.374,0.31 -0.248,0.113 -0.587,0.113 -0.407,0 -0.671,-0.153 -0.188,-0.11 -0.306,-0.295 -0.116,-0.185 -0.116,-0.36 0,-0.1 0.07,-0.172 0.07,-0.073 0.18,-0.073 0.087,0 0.147,0.056 0.062,0.056 0.105,0.167 0.053,0.131 0.113,0.22 0.062,0.087 0.172,0.145 0.11,0.057 0.29,0.057 0.248,0 0.402,-0.115 0.156,-0.116 0.156,-0.288 0,-0.137 -0.085,-0.222 -0.082,-0.086 -0.215,-0.13 -0.132,-0.046 -0.353,-0.097 -0.296,-0.069 -0.497,-0.16 -0.198,-0.094 -0.317,-0.254 -0.116,-0.161 -0.116,-0.4 0,-0.226 0.124,-0.402 0.124,-0.177 0.358,-0.27 0.234,-0.096 0.551,-0.096 0.253,0 0.437,0.064 0.186,0.062 0.308,0.167 0.121,0.103 0.178,0.217 0.056,0.115 0.056,0.223 0,0.1 -0.071,0.18 -0.07,0.079 -0.175,0.079 -0.095,0 -0.146,-0.047 -0.049,-0.049 -0.107,-0.157 -0.075,-0.156 -0.18,-0.242 -0.105,-0.088 -0.337,-0.088 -0.216,0 -0.349,0.095 -0.131,0.094 -0.131,0.227 0,0.083 0.045,0.143 0.045,0.06 0.124,0.103 0.078,0.043 0.159,0.067 0.08,0.025 0.266,0.071 0.233,0.055 0.42,0.12 0.19,0.066 0.32,0.16 0.134,0.093 0.207,0.238 0.075,0.142 0.075,0.35 z"
         style="fill:#212121;fill-opacity:1"
         id="path2926" />
    </g>
    <path
       style="fill:#212121;fill-opacity:1;stroke-width:0.799999;stroke-linecap:square;paint-order:fill markers stroke"
       d="m 189.786,612.19 a 2.367,2.367 0 0 0 -2.367,2.367 2.367,2.367 0 0 0 2.367,2.367 2.367,2.367 0 0 0 2.367,-2.367 2.367,2.367 0 0 0 -2.367,-2.367 z m 0,0.462 a 1.905,1.905 0 0 1 1.905,1.905 1.905,1.905 0 0 1 -1.905,1.904 1.905,1.905 0 0 1 -1.905,-1.904 1.905,1.905 0 0 1 1.905,-1.905 z"
       transform="matrix(0.27152,0,0,0.2584,3.2344458,-144.91928)"
       id="path2930" />
    <g
       style="font-size:3.34591px;line-height:1.25;font-family:'Arial Rounded MT Bold';-inkscape-font-specification:'Arial Rounded MT Bold, Normal';font-variant-ligatures:none;text-align:center;letter-spacing:0;word-spacing:0;text-anchor:middle;fill:#212121;fill-opacity:1;stroke-width:0.264583"
       id="g2934"
       transform="translate(-152.81356,-51.642251)">
      <path
         d="m 173.096,388.59 h -0.17 v 0.77 c 0,0.1 -0.022,0.175 -0.067,0.223 a 0.228,0.228 0 0 1 -0.175,0.072 0.223,0.223 0 0 1 -0.18,-0.075 c -0.042,-0.05 -0.063,-0.124 -0.063,-0.22 v -2.137 l 1.086,-0.004 c 0.11,0 0.202,0.005 0.28,0.015 a 0.695,0.695 0 0 1 0.408,0.19 0.666,0.666 0 0 1 0.176,0.453 c 0,0.179 -0.05,0.321 -0.152,0.428 -0.1,0.107 -0.252,0.183 -0.457,0.227 a 0.887,0.887 0 0 1 0.247,0.203 c 0.078,0.09 0.148,0.185 0.209,0.286 0.062,0.1 0.11,0.19 0.144,0.273 0.035,0.08 0.052,0.136 0.052,0.166 0,0.032 -0.01,0.063 -0.031,0.095 a 0.202,0.202 0 0 1 -0.082,0.072 0.254,0.254 0 0 1 -0.12,0.028 0.232,0.232 0 0 1 -0.138,-0.04 0.371,0.371 0 0 1 -0.096,-0.096 4.615,4.615 0 0 1 -0.108,-0.173 l -0.195,-0.324 a 1.736,1.736 0 0 0 -0.187,-0.27 0.456,0.456 0 0 0 -0.167,-0.128 0.575,0.575 0 0 0 -0.214,-0.035 z m 0.278,-1.006 h -0.448 v 0.658 h 0.435 c 0.116,0 0.214,-0.01 0.294,-0.03 0.08,-0.02 0.14,-0.054 0.18,-0.102 a 0.296,0.296 0 0 0 0.065,-0.201 0.305,0.305 0 0 0 -0.192,-0.29 c -0.056,-0.023 -0.168,-0.035 -0.334,-0.035 z"
         style="fill:#212121;fill-opacity:1"
         transform="matrix(0.27152,0,0,0.2584,149.515,-41.3)"
         aria-label="R"
         id="path2932" />
    </g>
    <g
       style="font-size:4.56936px;line-height:1.25;font-family:'Arial Rounded MT Bold';-inkscape-font-specification:'Arial Rounded MT Bold, Normal';font-variant-ligatures:none;text-align:center;letter-spacing:0;word-spacing:0;text-anchor:middle;fill:#212121;fill-opacity:1;stroke-width:0.264583"
       id="g2938"
       transform="translate(-152.81356,-51.642251)">
      <path
         d="m 189.827,411.412 q 0,0.114 -0.069,0.243 -0.067,0.13 -0.207,0.248 -0.139,0.116 -0.35,0.188 -0.213,0.07 -0.478,0.07 -0.565,0 -0.882,-0.327 -0.316,-0.33 -0.316,-0.884 0,-0.374 0.145,-0.662 0.145,-0.288 0.42,-0.444 0.274,-0.159 0.655,-0.159 0.237,0 0.433,0.07 0.198,0.069 0.335,0.178 0.138,0.11 0.21,0.234 0.073,0.123 0.073,0.23 0,0.11 -0.083,0.185 -0.08,0.076 -0.196,0.076 -0.076,0 -0.127,-0.038 -0.05,-0.04 -0.112,-0.127 -0.111,-0.17 -0.234,-0.254 -0.12,-0.085 -0.308,-0.085 -0.27,0 -0.435,0.212 -0.165,0.21 -0.165,0.576 0,0.171 0.042,0.316 0.043,0.143 0.123,0.246 0.08,0.1 0.194,0.154 0.114,0.051 0.25,0.051 0.183,0 0.312,-0.085 0.132,-0.084 0.233,-0.258 0.055,-0.103 0.12,-0.161 0.065,-0.058 0.158,-0.058 0.112,0 0.186,0.085 0.073,0.084 0.073,0.18 z"
         style="fill:#212121;fill-opacity:1"
         transform="matrix(0.27152,0,0,0.2584,156.35,-40.657)"
         aria-label="c"
         id="path2936" />
    </g>
    <path
       style="fill:#212121;fill-opacity:1;stroke-width:0.799999;stroke-linecap:square;paint-order:fill markers stroke"
       d="m 149.377,587.214 a 2.367,2.367 0 0 0 -2.368,2.367 2.367,2.367 0 0 0 2.368,2.367 2.367,2.367 0 0 0 2.367,-2.367 2.367,2.367 0 0 0 -2.367,-2.367 z m 0,0.462 a 1.905,1.905 0 0 1 1.904,1.905 1.905,1.905 0 0 1 -1.904,1.904 1.905,1.905 0 0 1 -1.905,-1.904 1.905,1.905 0 0 1 1.905,-1.905 z"
       transform="matrix(0.27152,0,0,0.2584,3.2344458,-144.91928)"
       id="path2940" />
  </g>
  <g
     aria-label="urbancruiseship.org Exhibit constructed by jye 4-18-2023"
     style="font-size:4.93889px;line-height:1.25;fill:#212121;fill-opacity:1;stroke-width:0.264583"
     id="g2944"
     transform="translate(-1.2344248,-37.045282)" />
  <rect
     style="fill:none;stroke-width:0.997952;paint-order:stroke fill markers;stop-color:#000000"
     id="rect5995"
     width="221.32442"
     height="178.1909"
     x="0.70710677"
     y="0.70710677"
     transform="matrix(0.2630005,0,0,0.26726999,-0.1860176,-0.18898842)"
     inkscape:label="rect5995" />
</svg>
