<svg width="179mm" height="232.842" viewBox="0 0 179 61.606" xmlns:xlink="http://www.w3.org/1999/xlink" xmlns="http://www.w3.org/2000/svg"><defs><linearGradient xlink:href="#a" id="e" gradientUnits="userSpaceOnUse" gradientTransform="translate(-611.098 132.085)" x1="625.319" y1="132.547" x2="625.319" y2="116.896"/><linearGradient id="a"><stop style="stop-color:#d9d9d9;stop-opacity:1" offset="0"/><stop style="stop-color:#4e4e4e;stop-opacity:1" offset="1"/></linearGradient><linearGradient xlink:href="#b" id="f" gradientUnits="userSpaceOnUse" gradientTransform="translate(-611.098 132.085)" x1="506.829" y1="145.672" x2="506.829" y2="117.358"/><linearGradient id="b"><stop style="stop-color:#1f1f1f;stop-opacity:1" offset="0"/><stop style="stop-color:#a9a9a9;stop-opacity:1" offset=".7"/></linearGradient><linearGradient xlink:href="#c" id="h" gradientUnits="userSpaceOnUse" gradientTransform="matrix(.42048 0 0 1 -278.278 -382.323)" x1="-7.258" y1="260.542" x2="-3.499" y2="260.542"/><linearGradient id="c"><stop style="stop-color:#fff;stop-opacity:1" offset="0"/><stop style="stop-color:#fff;stop-opacity:0" offset="1"/></linearGradient><linearGradient xlink:href="#d" id="j" gradientUnits="userSpaceOnUse" gradientTransform="translate(-465.328)" x1="493.149" y1="136.406" x2="588.469" y2="66.403"/><linearGradient id="d"><stop style="stop-color:gray;stop-opacity:1" offset="0"/><stop style="stop-color:#888;stop-opacity:1" offset=".005"/><stop style="stop-color:#b2b2b2;stop-opacity:1" offset=".095"/><stop style="stop-color:#d9d9d9;stop-opacity:1" offset=".238"/><stop style="stop-color:#d9d9d9;stop-opacity:1" offset=".545"/><stop style="stop-color:#d9d9d9;stop-opacity:1" offset=".704"/><stop style="stop-color:#8c8c8c;stop-opacity:1" offset=".781"/><stop style="stop-color:#4d4d4d;stop-opacity:1" offset=".857"/><stop style="stop-color:#4d4d4d;stop-opacity:1" offset="1"/></linearGradient><filter style="color-interpolation-filters:sRGB" id="g" x="-.062" y="-.062" width="1.123" height="1.123"><feGaussianBlur stdDeviation=".194"/></filter><filter style="color-interpolation-filters:sRGB" id="i" x="-.016" y="-.064" width="1.031" height="1.128"><feGaussianBlur stdDeviation=".372"/></filter></defs><g transform="translate(129.444 -224.66)"><path style="opacity:.85;fill:url(#e);fill-opacity:1;stroke:none;stroke-width:.7;stroke-linecap:butt;stroke-linejoin:miter;stroke-dasharray:none;stroke-opacity:1" d="M-24.33 263.559c13.467 1.068 25.862 1.725 41.77 1.725 21.277 0 31.6-2.033 31.6-16.627l-62.213-.137c0 11.836-10.323 14.685-11.173 14.755-.166.017-.167.261.016.284z"/><path style="opacity:.85;fill:url(#f);fill-opacity:1;stroke:none;stroke-width:.7;stroke-linecap:butt;stroke-linejoin:miter;stroke-dasharray:none;stroke-opacity:1" d="M-94.473 255.073c-21.781 0-34.392 3.365-34.392 12.364v.876c0 4.933.8 8.346 0 13.527l57.515.149c-6.51-5.891-18.364-6.073-28.56-7.742-11.092-1.816-19.69-3.75-21.955-6.994-.453-.649-.034-2.44.105-3.653.208-1.809 2.26-2.827 4.454-3.782 4.784-2.084 14.12-3.565 22.833-4.577.115 0 .12-.167 0-.168z"/><path style="fill:#fff;fill-opacity:1;stroke:none;stroke-width:.815759;stroke-linecap:square;stroke-dasharray:none;stroke-opacity:1;paint-order:markers fill stroke;filter:url(#g)" d="M-75.415 276.193h7.567v7.572h-7.567z"/><path style="fill:url(#h);fill-opacity:1;stroke:none;stroke-width:.3175;stroke-linecap:round;stroke-linejoin:round;stroke-dasharray:none;stroke-opacity:1;paint-order:markers fill stroke" transform="rotate(-90)" d="M-282.589-128.865h3.171v14.168h-3.171z"/><rect style="fill:#fff;fill-opacity:1;stroke:none;stroke-width:.0864092;stroke-linecap:round;stroke-linejoin:round;stroke-miterlimit:4;stroke-dasharray:none;stroke-opacity:1;paint-order:fill markers stroke;filter:url(#i)" width="57.091" height="13.965" x="-130.021" y="277.891" ry="3.612" rx="10.529"/><path style="opacity:1;fill:#fff;fill-opacity:1;stroke:#fff;stroke-width:.3175;stroke-linecap:round;stroke-linejoin:round;stroke-dasharray:none;stroke-opacity:1" d="M24.026 135.062c.435-7.118 22.097-9.596 38.588-9.133 12.264.344 26.287 2.885 40.111 4.165 26.749 2.479 30.041 1.206 30.041-13.59l.024-23.423c-.015-.492-.99-.442-1.035.033-1.637 19.071-1.162 27.42-4.18 31.822-3.466 5.057-18.778 2.838-30.832 1.622-13.569-1.369-25.003-3.73-44.945-3.25-9.071.22-19.524 1.496-24.65 4.113-3.678 1.878-5.413 3.912-3.122 7.641z" transform="translate(-145.77 132.085)"/><path style="opacity:.85;fill:url(#j);fill-opacity:1;stroke:#fff;stroke-width:.3175;stroke-linecap:round;stroke-linejoin:round;stroke-dasharray:none;stroke-opacity:1" d="M24.026 135.062c.435-7.118 22.097-9.596 38.588-9.133 12.264.344 26.287 2.885 40.111 4.165 26.749 2.479 30.041 1.206 30.041-13.59l.024-23.423c-.015-.492-.99-.442-1.035.033-1.637 19.071-1.162 27.42-4.18 31.822-3.466 5.057-18.778 2.838-30.832 1.622-13.569-1.369-25.003-3.73-44.945-3.25-9.071.22-19.524 1.496-24.65 4.113-3.678 1.878-5.413 3.912-3.122 7.641z" transform="translate(-145.77 132.085)"/></g></svg>