<svg width="221.182" height="30.92mm" viewBox="0 0 58.521 30.92" xml:space="preserve" xmlns="http://www.w3.org/2000/svg"><defs><filter id="a" x="-.03" y="-.06" width="1.059" height="1.119" color-interpolation-filters="sRGB"><feGaussianBlur stdDeviation="1.032"/></filter></defs><rect transform="translate(-278.37 2.438) scale(.65582)" x="427.68" y="-.49" width="83.529" height="41.442" rx="14.716" ry="4.358" fill="#6b6b6b" filter="url(#a)" style="paint-order:fill markers stroke"/><rect width="54.78" height="27.179" rx="9.651" ry="2.858" fill="#ffb4b4" style="paint-order:fill markers stroke"/><g fill-opacity=".9" stroke-width=".174" style="font-variant-ligatures:none" aria-label="CITIES"><path d="M10.21 9.485q0 .47-.197 1.02-.192.545-.61 1.075-.417.524-1.066.853-.648.33-1.511.33-.654 0-1.19-.148-.536-.148-.976-.457-.434-.316-.8-.826-.328-.464-.56-1.035-.23-.577-.349-1.229-.113-.651-.113-1.383 0-1.19.288-2.13.293-.94.835-1.605.541-.672 1.269-1.021.727-.35 1.55-.35 1.005 0 1.789.478.784.477 1.201 1.182.417.698.417 1.323 0 .343-.203.604-.203.262-.49.262-.322 0-.485-.18-.158-.182-.356-.626-.327-.732-.772-1.094-.44-.363-1.089-.363-1.032 0-1.647.934-.609.933-.609 2.653 0 1.148.27 1.914.272.759.768 1.135t1.162.376q.722 0 1.218-.423.502-.43.756-1.256.107-.39.265-.631.158-.249.507-.249.3 0 .514.249t.214.618zM14.265 11.547V3.789q0-.604.231-.907.231-.302.598-.302.378 0 .609.302.237.296.237.907v7.758q0 .611-.237.914-.231.302-.61.302-.36 0-.597-.302-.231-.31-.231-.914zM25.662 4.393h-1.827v7.153q0 .618-.231.92-.231.296-.598.296-.372 0-.61-.302-.23-.302-.23-.914V4.393h-1.828q-.428 0-.637-.221-.209-.229-.209-.598 0-.383.215-.605.22-.221.631-.221h5.324q.435 0 .643.228.215.228.215.598t-.215.598q-.214.221-.643.221zM30.062 11.547V3.789q0-.604.231-.907.231-.302.598-.302.378 0 .609.302.237.296.237.907v7.758q0 .611-.237.914-.231.302-.61.302-.36 0-.597-.302-.231-.31-.231-.914zM41.54 4.286h-3.774v2.418h3.474q.384 0 .57.208.191.202.191.537 0 .336-.186.551-.186.208-.575.208h-3.474v2.801h3.903q.395 0 .592.222.203.215.203.578 0 .349-.203.57-.197.215-.592.215h-4.552q-.547 0-.79-.288-.236-.29-.236-.934V3.97q0-.43.107-.698.107-.276.333-.397.231-.127.586-.127h4.422q.4 0 .592.215.198.208.198.55 0 .35-.198.565-.192.208-.592.208zM52.56 9.639q0 .893-.39 1.605-.384.712-1.128 1.115-.745.403-1.765.403-1.224 0-2.02-.55-.563-.397-.919-1.055-.35-.665-.35-1.29 0-.362.21-.618.214-.261.54-.261.266 0 .446.201.186.202.316.598.158.47.339.786.186.315.518.524.333.201.875.201.744 0 1.206-.41.469-.416.469-1.034 0-.49-.254-.793-.248-.309-.649-.47-.395-.161-1.06-.342-.891-.249-1.495-.578-.597-.336-.953-.907-.35-.577-.35-1.43 0-.813.373-1.445t1.077-.967q.705-.342 1.658-.342.762 0 1.314.228.559.222.925.598.367.37.536.779t.17.8q0 .355-.215.644-.209.282-.525.282-.287 0-.44-.168-.146-.174-.321-.564-.226-.557-.541-.866-.316-.316-1.016-.316-.648 0-1.049.343-.395.335-.395.812 0 .296.136.51t.372.37q.237.155.48.242.242.087.8.255.7.195 1.264.43.57.235.964.57.4.337.62.854.226.51.226 1.256z"/></g><g fill-opacity=".9" stroke-width=".228" style="font-variant-ligatures:none" aria-label="Sustainable design principles"><path d="m2.58 18.371.325-.028q.023.195.107.321.085.124.263.203.177.076.4.076.197 0 .348-.059.15-.058.224-.16.074-.103.074-.223 0-.123-.07-.214-.072-.092-.235-.154-.105-.04-.464-.126-.359-.087-.503-.164-.186-.097-.279-.241-.09-.146-.09-.325 0-.198.112-.368.111-.173.326-.261.215-.09.478-.09.29 0 .51.095.222.092.341.274.12.18.128.41l-.33.025q-.027-.247-.181-.373-.153-.126-.453-.126-.313 0-.457.115-.142.114-.142.275 0 .14.101.231.1.091.519.187.42.094.577.165.228.105.336.267.108.16.108.37 0 .207-.119.392-.119.183-.342.286-.223.101-.502.101-.353 0-.593-.103-.238-.103-.375-.309-.135-.208-.142-.469zM6.32 19.208v-.277q-.22.32-.599.32-.167 0-.312-.064-.144-.064-.215-.16-.07-.098-.098-.238-.02-.094-.02-.299v-1.169h.32v1.047q0 .25.02.337.03.126.128.2.097.07.241.07t.27-.073q.126-.074.178-.2.053-.128.053-.37v-1.01h.32v1.886zM6.98 18.645l.315-.05q.027.19.148.292.122.1.34.1.221 0 .328-.088.106-.09.106-.211 0-.109-.094-.17-.065-.044-.327-.11-.351-.088-.488-.152-.135-.066-.206-.18-.07-.115-.07-.254 0-.126.057-.232.059-.109.158-.18.075-.055.203-.092.13-.04.277-.04.222 0 .39.065.168.064.248.174.08.108.11.291l-.313.043q-.021-.146-.124-.228-.101-.081-.288-.081-.22 0-.314.073-.094.072-.094.17 0 .062.039.112.039.052.122.085.048.018.283.082.339.09.472.15.135.056.212.166.076.11.076.274 0 .16-.094.302-.092.14-.268.218-.176.077-.398.077-.368 0-.562-.153-.192-.153-.245-.453zM9.624 18.922l.047.282q-.135.029-.242.029-.174 0-.27-.055-.096-.055-.135-.144-.04-.09-.04-.378V17.57H8.75v-.249h.235v-.467l.318-.192v.66h.322v.248h-.322v1.103q0 .137.016.176.018.04.055.062.04.023.11.023.053 0 .14-.012zM11.168 18.975q-.178.151-.343.213-.163.062-.352.062-.31 0-.478-.15-.167-.153-.167-.39 0-.138.063-.252.064-.115.165-.185.103-.069.23-.105.095-.024.285-.048.387-.046.57-.11l.002-.083q0-.196-.09-.276-.123-.108-.365-.108-.225 0-.334.08-.106.078-.158.279l-.312-.043q.042-.2.14-.323.098-.124.282-.19.185-.068.429-.068.241 0 .392.057t.222.144q.071.085.1.217.016.082.016.295v.426q0 .446.02.565.02.117.081.226h-.334q-.05-.1-.064-.233zm-.027-.714q-.174.07-.522.12-.197.029-.279.065-.082.035-.126.104-.044.068-.044.151 0 .128.095.214.098.085.285.085.184 0 .328-.08.144-.082.212-.222.051-.109.051-.32zM11.963 16.971v-.368h.32v.368zm0 2.237V17.32h.32v1.887zM12.769 19.208v-1.887h.288v.268q.208-.31.6-.31.17 0 .313.062.144.06.215.16.071.1.1.236.017.089.017.31v1.16h-.32V18.06q0-.195-.037-.291-.037-.098-.133-.155-.094-.058-.222-.058-.205 0-.354.13-.147.129-.147.491v1.03zM16.024 18.975q-.178.151-.343.213-.163.062-.352.062-.31 0-.478-.15-.167-.153-.167-.39 0-.138.063-.252.064-.115.165-.185.103-.069.23-.105.095-.024.285-.048.387-.046.57-.11l.002-.083q0-.196-.09-.276-.123-.108-.365-.108-.225 0-.334.08-.106.078-.158.279l-.312-.043q.042-.2.14-.323.098-.124.282-.19.185-.068.429-.068.241 0 .392.057t.222.144q.071.085.1.217.016.082.016.295v.426q0 .446.02.565.02.117.081.226h-.334q-.05-.1-.064-.233zm-.027-.714q-.174.07-.522.12-.197.029-.279.065-.082.035-.126.104-.044.068-.044.151 0 .128.095.214.098.085.285.085.184 0 .328-.08.144-.082.212-.222.051-.109.051-.32zM17.111 19.208h-.297v-2.604h.32v.929q.203-.254.517-.254.174 0 .329.07.156.07.256.198.1.126.158.305.057.18.057.384 0 .485-.24.75t-.576.265q-.334 0-.524-.28zm-.004-.958q0 .34.093.49.15.248.408.248.21 0 .363-.182.153-.183.153-.543 0-.37-.148-.546-.146-.175-.353-.175-.21 0-.363.182t-.153.526zM18.833 19.208v-2.604h.32v2.604zM20.94 18.6l.33.04q-.078.29-.29.45-.21.16-.54.16-.413 0-.657-.254-.241-.256-.241-.716 0-.476.245-.739t.636-.263q.378 0 .618.258.24.257.24.725l-.002.085h-1.407q.018.31.176.476.158.165.395.165.175 0 .3-.092.124-.092.197-.295zm-1.05-.517h1.054q-.022-.238-.121-.357-.153-.185-.396-.185-.22 0-.372.148-.15.147-.165.394zM23.907 19.208v-.238q-.18.28-.528.28-.225 0-.415-.124-.189-.124-.294-.346-.103-.224-.103-.514 0-.282.095-.511.094-.231.282-.354.188-.122.421-.122.17 0 .304.072.133.071.217.187v-.935h.318v2.605zm-1.01-.942q0 .363.152.542.153.18.36.18.21 0 .356-.17.147-.173.147-.525 0-.387-.149-.569-.15-.18-.368-.18-.213 0-.357.173-.142.174-.142.55zM25.998 18.6l.33.04q-.078.29-.29.45-.21.16-.54.16-.413 0-.657-.254-.241-.256-.241-.716 0-.476.245-.739t.636-.263q.378 0 .618.258.24.257.24.725l-.002.085H24.93q.018.31.176.476.158.165.395.165.175 0 .3-.092.124-.092.197-.295zm-1.05-.517h1.054q-.022-.238-.121-.357-.153-.185-.396-.185-.22 0-.372.148-.15.147-.165.394zM26.602 18.645l.316-.05q.027.19.148.292.122.1.34.1.221 0 .328-.088.106-.09.106-.211 0-.109-.094-.17-.066-.044-.327-.11-.352-.088-.488-.152-.135-.066-.206-.18-.07-.115-.07-.254 0-.126.057-.232.059-.109.158-.18.075-.055.203-.092.13-.04.277-.04.222 0 .389.065.169.064.249.174.08.108.11.291l-.313.043q-.021-.146-.124-.228-.101-.081-.288-.081-.22 0-.314.073-.095.072-.095.17 0 .062.04.112.039.052.122.085.048.018.283.082.339.09.472.15.135.056.212.166.076.11.076.274 0 .16-.094.302-.093.14-.268.218-.176.077-.398.077-.368 0-.562-.153-.192-.153-.245-.453zM28.551 16.971v-.368h.32v.368zm0 2.237V17.32h.32v1.887zM29.299 19.364l.31.046q.02.144.11.21.118.089.324.089.222 0 .343-.09.121-.088.164-.248.025-.098.023-.41-.21.247-.522.247-.39 0-.603-.281-.213-.28-.213-.673 0-.27.098-.498.097-.229.282-.353.187-.125.437-.125.334 0 .551.27v-.227h.295v1.63q0 .441-.09.624-.09.185-.285.292-.194.106-.478.106-.337 0-.545-.152-.208-.151-.201-.457zm.265-1.133q0 .37.147.541t.37.17q.22 0 .37-.168.148-.17.148-.533 0-.346-.154-.522-.153-.176-.37-.176-.213 0-.362.174-.15.172-.15.513zM31.381 19.208v-1.887h.288v.268q.208-.31.6-.31.17 0 .313.062.144.06.215.16.071.1.1.236.017.089.017.31v1.16h-.32V18.06q0-.195-.037-.291-.037-.098-.133-.155-.094-.058-.222-.058-.204 0-.354.13-.147.129-.147.491v1.03zM34.416 19.931v-2.61h.291v.245q.103-.144.233-.215.13-.073.315-.073.241 0 .426.125.185.124.279.352.094.225.094.495 0 .29-.105.523-.103.23-.302.355-.197.123-.416.123-.16 0-.287-.068-.126-.067-.208-.17v.918zm.29-1.656q0 .364.147.539.148.174.357.174.213 0 .364-.18.153-.181.153-.56 0-.36-.15-.54-.147-.179-.353-.179-.204 0-.362.192-.156.19-.156.554zM36.436 19.208v-1.887h.288v.286q.11-.2.202-.264.095-.064.206-.064.162 0 .33.103l-.111.296q-.117-.069-.235-.069-.104 0-.188.064-.083.062-.119.174-.053.17-.053.373v.988zM37.653 16.971v-.368h.32v.368zm0 2.237V17.32h.32v1.887zM38.459 19.208v-1.887h.288v.268q.208-.31.6-.31.17 0 .313.062.144.06.215.16.071.1.1.236.017.089.017.31v1.16h-.32V18.06q0-.195-.037-.291-.037-.098-.133-.155-.094-.058-.222-.058-.205 0-.354.13-.147.129-.147.491v1.03zM41.714 18.517l.314.04q-.051.326-.264.51-.212.184-.52.184-.388 0-.624-.253-.235-.254-.235-.726 0-.306.101-.535.102-.23.308-.343.208-.115.451-.115.307 0 .503.156.195.155.25.44l-.31.049q-.045-.19-.159-.286-.112-.096-.272-.096-.241 0-.392.174-.151.172-.151.547 0 .38.145.552.146.173.38.173.189 0 .315-.116.126-.115.16-.355zM42.304 16.971v-.368h.32v.368zm0 2.237V17.32h.32v1.887zM43.111 19.931v-2.61h.291v.245q.103-.144.233-.215.13-.073.315-.073.241 0 .426.125.185.124.279.352.094.225.094.495 0 .29-.105.523-.103.23-.302.355-.197.123-.416.123-.16 0-.287-.068-.126-.067-.208-.17v.918zm.29-1.656q0 .364.147.539.148.174.357.174.213 0 .364-.18.153-.181.153-.56 0-.36-.15-.54-.147-.179-.353-.179-.204 0-.362.192-.156.19-.156.554zM45.127 19.208v-2.604h.32v2.604zM47.234 18.6l.33.04q-.078.29-.29.45-.21.16-.54.16-.413 0-.657-.254-.241-.256-.241-.716 0-.476.245-.739t.636-.263q.378 0 .618.258.24.257.24.725l-.002.085h-1.407q.018.31.176.476.158.165.395.165.175 0 .3-.092.124-.092.197-.295zm-1.05-.517h1.054q-.022-.238-.121-.357-.153-.185-.396-.185-.22 0-.372.148-.15.147-.165.394zM47.838 18.645l.316-.05q.027.19.148.292.122.1.34.1.221 0 .328-.088.106-.09.106-.211 0-.109-.094-.17-.066-.044-.327-.11-.352-.088-.488-.152-.135-.066-.206-.18-.07-.115-.07-.254 0-.126.057-.232.059-.109.158-.18.075-.055.203-.092.13-.04.277-.04.222 0 .389.065.169.064.249.174.08.108.11.291l-.313.043q-.021-.146-.124-.228-.101-.081-.288-.081-.22 0-.314.073-.095.072-.095.17 0 .062.04.112.039.052.122.085.048.018.283.082.339.09.472.15.135.056.212.166.076.11.076.274 0 .16-.094.302-.093.14-.268.218-.176.077-.398.077-.368 0-.562-.153-.192-.153-.245-.453z"/></g></svg>