<svg width="221.182" height="30.92mm" viewBox="0 0 58.521 30.92" xml:space="preserve" xmlns="http://www.w3.org/2000/svg"><defs><filter id="a" x="-.03" y="-.06" width="1.059" height="1.119" color-interpolation-filters="sRGB"><feGaussianBlur stdDeviation="1.032"/></filter></defs><rect transform="translate(-278.37 2.438) scale(.65582)" x="427.68" y="-.49" width="83.529" height="41.442" rx="14.716" ry="4.358" fill="#6b6b6b" filter="url(#a)" style="paint-order:fill markers stroke"/><rect width="54.78" height="27.179" rx="9.651" ry="2.858" fill="#b998d6" style="paint-order:fill markers stroke"/><g fill-opacity=".9" stroke-width=".174" style="font-variant-ligatures:none" aria-label="COSTS"><path d="M9.99 9.71q0 .47-.198 1.02-.193.545-.612 1.075-.42.524-1.072.854-.652.329-1.52.329-.657 0-1.195-.148t-.981-.457q-.437-.316-.805-.826-.33-.464-.562-1.034-.232-.578-.351-1.23-.114-.651-.114-1.383 0-1.19.29-2.13.294-.94.839-1.605.544-.672 1.275-1.021t1.56-.35q1.008 0 1.797.478.788.476 1.207 1.182.42.698.42 1.323 0 .343-.204.605-.204.262-.494.262-.323 0-.487-.182-.159-.181-.357-.624-.33-.733-.777-1.095-.442-.363-1.094-.363-1.038 0-1.656.934-.612.933-.612 2.653 0 1.148.272 1.914.272.76.771 1.135.499.377 1.168.377.726 0 1.225-.424.504-.43.76-1.256.107-.39.266-.631.159-.249.51-.249.3 0 .516.249.215.249.215.618zM17.67 2.805q1.292 0 2.216.624.93.618 1.406 1.767.476 1.142.476 2.687 0 1.142-.26 2.075-.261.934-.783 1.62-.522.684-1.281 1.047-.76.363-1.74.363-.976 0-1.747-.37-.77-.376-1.287-1.054-.516-.679-.782-1.633-.261-.953-.261-2.062 0-1.135.272-2.082.278-.947.8-1.612.521-.665 1.27-1.014.748-.356 1.7-.356zm2.392 5.064q0-1.081-.295-1.874-.295-.792-.845-1.195-.544-.41-1.253-.41-.504 0-.935.228-.425.222-.737.652-.306.43-.488 1.101-.176.665-.176 1.498 0 .84.176 1.518.182.679.505 1.129.329.443.748.665.425.221.93.221.646 0 1.185-.382.544-.383.861-1.183.324-.799.324-1.968zM32.033 9.864q0 .894-.391 1.606-.386.712-1.134 1.115-.749.403-1.775.403-1.23 0-2.03-.551-.566-.396-.924-1.055-.351-.665-.351-1.29 0-.362.21-.617.215-.262.544-.262.266 0 .448.201.187.202.317.598.159.47.34.786.188.316.522.524.335.201.879.201.748 0 1.213-.41.47-.416.47-1.034 0-.49-.254-.792-.25-.31-.652-.47-.397-.162-1.066-.343-.896-.249-1.503-.578-.6-.336-.958-.907-.351-.577-.351-1.43 0-.813.374-1.444t1.083-.968q.708-.342 1.666-.342.766 0 1.321.228.562.222.93.598.369.37.539.78.17.409.17.798 0 .356-.216.645-.21.282-.527.282-.289 0-.442-.168-.147-.174-.323-.564-.227-.557-.544-.866-.318-.316-1.021-.316-.652 0-1.055.343-.396.335-.396.812 0 .296.136.51.136.216.374.37.238.155.482.242t.805.255q.703.195 1.27.43.572.235.97.571.402.336.623.853.227.51.227 1.256zM41.367 4.618H39.53v7.154q0 .618-.232.92-.233.296-.601.296-.374 0-.612-.303-.233-.302-.233-.913V4.618h-1.837q-.43 0-.64-.221-.21-.229-.21-.598 0-.383.215-.605.221-.221.635-.221h5.352q.437 0 .646.228.216.228.216.598t-.216.598q-.215.221-.646.221zM52.052 9.864q0 .894-.391 1.606-.386.712-1.134 1.115t-1.775.403q-1.23 0-2.03-.551-.566-.396-.923-1.055-.352-.665-.352-1.29 0-.362.21-.617.215-.262.544-.262.267 0 .448.201.187.202.318.598.158.47.34.786.187.316.521.524.335.201.88.201.748 0 1.212-.41.471-.416.471-1.034 0-.49-.255-.792-.25-.31-.652-.47-.397-.162-1.066-.343-.896-.249-1.502-.578-.601-.336-.959-.907-.351-.577-.351-1.43 0-.813.374-1.444.374-.632 1.083-.968.709-.342 1.667-.342.765 0 1.32.228.562.222.93.598.369.37.54.78.17.409.17.798 0 .356-.216.645-.21.282-.528.282-.289 0-.442-.168-.147-.174-.323-.564-.227-.557-.544-.866-.318-.316-1.02-.316-.653 0-1.055.343-.397.335-.397.812 0 .296.136.51.136.216.374.37.238.155.482.242t.805.255q.703.195 1.27.43.573.235.97.571.402.336.623.853.227.51.227 1.256z"/></g><g fill-opacity=".9" stroke-width=".228" style="font-variant-ligatures:none" aria-label="Internalized vs. subsidized"><path d="M2.58 19.474V16.87h.345v2.604zM3.492 19.474v-1.887h.287v.268q.208-.31.6-.31.171 0 .314.062.144.06.215.16.07.1.1.236.017.089.017.31v1.16h-.32v-1.147q0-.195-.037-.291-.038-.098-.134-.155-.094-.058-.222-.058-.204 0-.353.13-.148.13-.148.491v1.03zM6.213 19.188l.047.282q-.135.029-.242.029-.174 0-.27-.055-.096-.055-.135-.144-.04-.09-.04-.378v-1.086H5.34v-.249h.235v-.467l.318-.192v.66h.321v.248h-.321v1.103q0 .137.016.176.018.04.055.062.039.023.11.023.053 0 .14-.012zM7.818 18.866l.33.04q-.078.29-.29.45-.21.16-.54.16-.413 0-.657-.254-.242-.256-.242-.716 0-.476.246-.739t.636-.263q.378 0 .618.258.24.257.24.725l-.002.085H6.75q.018.31.176.476.158.165.394.165.176 0 .3-.092.125-.092.198-.295zm-1.05-.517H7.82q-.021-.238-.12-.357-.153-.185-.397-.185-.22 0-.371.148-.15.147-.165.394zM8.546 19.474v-1.887h.288v.286q.11-.2.202-.264.095-.064.207-.064.161 0 .328.103l-.11.296q-.117-.069-.234-.069-.105 0-.189.064-.083.062-.119.174-.053.17-.053.373v.988zM9.761 19.474v-1.887h.288v.268q.208-.31.6-.31.171 0 .313.062.144.06.215.16.071.1.1.236.018.089.018.31v1.16h-.32v-1.147q0-.195-.038-.291-.037-.098-.133-.155-.094-.058-.222-.058-.204 0-.353.13-.148.13-.148.491v1.03zM13.016 19.241q-.178.151-.343.213-.163.062-.352.062-.31 0-.478-.15-.167-.153-.167-.39 0-.138.063-.252.064-.115.165-.185.103-.069.23-.105.095-.024.285-.048.387-.046.57-.11l.002-.083q0-.196-.09-.276-.123-.108-.365-.108-.225 0-.334.08-.106.078-.158.279l-.312-.043q.042-.2.14-.323.098-.124.282-.19.185-.068.429-.068.241 0 .392.057t.222.144q.071.085.1.217.016.082.016.295v.426q0 .446.02.565.02.117.081.226h-.334q-.05-.1-.064-.233zm-.027-.714q-.174.07-.522.12-.197.029-.279.065-.082.035-.126.104-.044.068-.044.151 0 .128.095.214.098.085.285.085.184 0 .328-.08.144-.082.212-.222.051-.109.051-.32zM13.801 19.474V16.87h.32v2.604zM14.619 17.237v-.368h.32v.368zm0 2.237v-1.887h.32v1.887zM15.256 19.474v-.26l1.201-1.378q-.204.01-.36.01h-.77v-.259h1.542v.212l-1.021 1.197-.198.219q.215-.016.404-.016h.872v.275zM18.536 18.866l.33.04q-.078.29-.29.45-.21.16-.54.16-.413 0-.657-.254-.241-.256-.241-.716 0-.476.245-.739t.636-.263q.378 0 .618.258.24.257.24.725l-.002.085h-1.407q.018.31.176.476.158.165.395.165.175 0 .3-.092.124-.092.197-.295zm-1.05-.517h1.054q-.022-.238-.121-.357-.153-.185-.396-.185-.22 0-.372.148-.15.147-.165.394zM20.492 19.474v-.238q-.18.28-.528.28-.225 0-.415-.124-.189-.124-.294-.346-.103-.224-.103-.514 0-.282.095-.511.094-.231.282-.354.188-.122.421-.122.17 0 .304.072.133.071.217.187v-.935h.318v2.605zm-1.01-.942q0 .363.152.542.153.18.36.18.21 0 .356-.17.147-.173.147-.525 0-.387-.149-.569-.15-.18-.368-.18-.213 0-.357.173-.142.174-.142.55zM22.827 19.474l-.718-1.887h.338l.405 1.13q.066.183.12.38.043-.149.12-.359l.419-1.15h.329l-.715 1.886zM23.994 18.911l.316-.05q.027.19.148.292.122.1.34.1.221 0 .328-.088.106-.09.106-.211 0-.109-.094-.17-.066-.044-.327-.11-.352-.088-.488-.152-.135-.066-.206-.18-.07-.115-.07-.254 0-.126.057-.232.059-.109.158-.18.075-.055.203-.092.13-.04.277-.04.222 0 .389.065.169.064.249.174.08.108.11.291l-.313.043q-.021-.146-.124-.228-.101-.081-.288-.081-.22 0-.314.073-.095.072-.095.17 0 .062.04.112.039.052.122.085.048.018.283.082.339.09.472.15.135.056.212.166.076.11.076.274 0 .16-.094.302-.093.14-.268.218-.176.077-.398.077-.368 0-.562-.153-.192-.153-.245-.453zM26.032 19.474v-.364h.364v.364zM27.835 18.911l.316-.05q.027.19.148.292.122.1.34.1.221 0 .328-.088.106-.09.106-.211 0-.109-.094-.17-.066-.044-.327-.11-.352-.088-.488-.152-.135-.066-.206-.18-.07-.115-.07-.254 0-.126.057-.232.059-.109.158-.18.075-.055.203-.092.13-.04.277-.04.222 0 .389.065.169.064.249.174.08.108.11.291l-.313.043q-.021-.146-.124-.228-.101-.081-.288-.081-.22 0-.314.073-.095.072-.095.17 0 .062.04.112.039.052.122.085.048.018.283.082.339.09.472.15.135.056.212.166.076.11.076.274 0 .16-.094.302-.093.14-.268.218-.176.077-.398.077-.368 0-.562-.153-.192-.153-.245-.453zM31.019 19.474v-.277q-.22.32-.599.32-.167 0-.312-.064-.144-.064-.215-.16-.07-.098-.098-.238-.02-.094-.02-.299v-1.169h.32v1.047q0 .25.02.337.03.126.128.2.097.07.241.07t.27-.073q.126-.074.178-.2.053-.128.053-.37v-1.01h.32v1.886zM32.101 19.474h-.297V16.87h.32v.929q.203-.254.517-.254.174 0 .329.07.156.07.256.198.1.126.158.305.057.18.057.384 0 .485-.24.75t-.576.265q-.334 0-.524-.28zm-.004-.958q0 .34.093.49.15.248.408.248.21 0 .363-.182.153-.183.153-.543 0-.37-.148-.546-.145-.176-.353-.176-.21 0-.363.183-.153.182-.153.526zM33.702 18.911l.316-.05q.027.19.148.292.122.1.34.1.221 0 .328-.088.106-.09.106-.211 0-.109-.094-.17-.066-.044-.327-.11-.352-.088-.488-.152-.135-.066-.206-.18-.07-.115-.07-.254 0-.126.057-.232.059-.109.158-.18.075-.055.203-.092.13-.04.277-.04.222 0 .389.065.169.064.249.174.08.108.11.291l-.313.043q-.021-.146-.124-.228-.101-.081-.288-.081-.22 0-.314.073-.095.072-.095.17 0 .062.04.112.039.052.122.085.048.018.283.082.339.09.472.15.135.056.212.166.076.11.076.274 0 .16-.094.302-.093.14-.268.218-.176.077-.398.077-.368 0-.562-.153-.192-.153-.245-.453zM35.65 17.237v-.368h.32v.368zm0 2.237v-1.887h.32v1.887zM37.681 19.474v-.238q-.18.28-.528.28-.225 0-.415-.124-.189-.124-.294-.346-.103-.224-.103-.514 0-.282.095-.511.094-.231.282-.354.188-.122.421-.122.17 0 .304.072.133.071.217.187v-.935h.318v2.605zm-1.01-.942q0 .363.152.542.153.18.36.18.21 0 .356-.17.147-.173.147-.525 0-.387-.149-.569-.15-.18-.368-.18-.213 0-.357.173-.142.174-.142.55zM38.482 17.237v-.368h.32v.368zm0 2.237v-1.887h.32v1.887zM39.12 19.474v-.26l1.201-1.378q-.204.01-.36.01h-.77v-.259h1.542v.212l-1.021 1.197-.198.219q.215-.016.404-.016h.872v.275zM42.4 18.866l.33.04q-.078.29-.29.45-.21.16-.54.16-.413 0-.657-.254-.241-.256-.241-.716 0-.476.245-.739t.636-.263q.378 0 .618.258t.24.725l-.002.085h-1.407q.018.31.176.476.158.165.395.165.175 0 .3-.092.124-.092.197-.295zm-1.05-.517h1.054q-.022-.238-.121-.357-.153-.185-.396-.185-.22 0-.372.148-.15.147-.165.394zM44.356 19.474v-.238q-.18.28-.528.28-.225 0-.415-.124-.189-.124-.294-.346-.103-.224-.103-.514 0-.282.095-.511.094-.231.282-.354.188-.122.421-.122.17 0 .304.072.133.071.217.187v-.935h.318v2.605zm-1.01-.942q0 .363.152.542.153.18.36.18.21 0 .356-.17.147-.173.147-.525 0-.387-.149-.569-.15-.18-.368-.18-.213 0-.357.173-.142.174-.142.55z"/></g></svg>