<svg width="221.182" height="30.92mm" viewBox="0 0 58.521 30.92" xml:space="preserve" xmlns="http://www.w3.org/2000/svg"><defs><filter id="a" x="-.03" y="-.06" width="1.059" height="1.119" color-interpolation-filters="sRGB"><feGaussianBlur stdDeviation="1.032"/></filter></defs><rect transform="translate(-278.37 2.438) scale(.65582)" x="427.68" y="-.49" width="83.529" height="41.442" rx="14.716" ry="4.358" fill="#6b6b6b" filter="url(#a)" style="paint-order:fill markers stroke"/><rect width="54.78" height="27.179" rx="9.651" ry="2.858" fill="#f2bb56" style="paint-order:fill markers stroke"/><g fill-opacity=".9" stroke-width=".174" style="font-variant-ligatures:none" aria-label="ENERGY"><path d="M8.014 4.286H4.273v2.418h3.445q.38 0 .565.209.19.201.19.537T8.288 8q-.184.209-.57.209H4.273v2.8h3.87q.391 0 .587.223.201.214.201.577 0 .35-.2.571-.197.215-.588.215H3.629q-.542 0-.783-.289-.235-.289-.235-.933V3.97q0-.43.107-.699.106-.275.33-.396.229-.128.581-.128h4.385q.397 0 .587.215.196.208.196.55 0 .35-.196.565-.19.208-.587.208zM12.914 3.776l3.194 5.803V3.722q0-.57.2-.853.208-.289.555-.289.358 0 .564.289.207.282.207.853v7.745q0 1.296-.894 1.296-.224 0-.403-.08-.18-.075-.336-.242-.156-.168-.29-.39-.135-.228-.269-.464l-3.115-5.736v5.77q0 .564-.218.853-.219.289-.56.289-.352 0-.565-.289-.212-.295-.212-.853V4.024q0-.483.09-.759.106-.302.352-.49.246-.195.531-.195.224 0 .38.087.163.088.28.236.123.147.246.382.129.235.263.49zM25.353 4.286h-3.741v2.418h3.445q.38 0 .565.209.19.201.19.537t-.185.55q-.184.209-.57.209h-3.445v2.8h3.87q.392 0 .587.223.202.214.202.577 0 .35-.202.571-.195.215-.587.215h-4.513q-.543 0-.783-.289-.235-.289-.235-.933V3.97q0-.43.106-.699.106-.275.33-.396.23-.128.582-.128h4.384q.397 0 .588.215.195.208.195.55 0 .35-.195.565-.19.208-.588.208zM30.32 8.384h-.581v3.163q0 .625-.23.92-.229.296-.598.296-.397 0-.615-.309-.218-.309-.218-.907V3.971q0-.645.24-.934.24-.289.777-.289h2.702q.56 0 .956.06.397.054.716.229.386.195.683.558t.447.846q.157.477.157 1.014 0 1.102-.52 1.76-.515.658-1.567.934.442.282.845.832.403.551.716 1.176.319.618.492 1.122.179.497.179.685 0 .195-.106.39-.1.187-.28.295-.179.114-.414.114-.28 0-.47-.161-.19-.155-.33-.396-.134-.242-.369-.712l-.665-1.33q-.358-.733-.643-1.115-.28-.383-.57-.524-.292-.141-.734-.141zm.951-4.138H29.74v2.707h1.487q.599 0 1.007-.121.408-.128.62-.423.219-.302.219-.826 0-.41-.174-.719-.173-.316-.48-.47-.291-.148-1.147-.148zM44.164 8.592v1.887q0 .376-.061.605-.062.222-.23.403-.162.181-.42.35-.743.483-1.43.704-.689.222-1.5.222-.945 0-1.722-.35T37.475 11.4q-.548-.665-.845-1.613-.29-.947-.29-2.115 0-1.149.285-2.103t.839-1.618 1.348-1.015q.794-.356 1.8-.356.828 0 1.466.269.638.262 1.035.665.397.403.598.853.201.45.201.8 0 .375-.234.644-.23.262-.554.262-.18 0-.347-.1-.162-.101-.274-.283-.308-.577-.52-.873-.213-.296-.576-.497-.358-.202-.917-.202-.576 0-1.03.242-.453.235-.777.692-.319.45-.492 1.108-.168.659-.168 1.458 0 1.733.66 2.667.666.933 1.851.933.576 0 1.08-.181.509-.182 1.029-.517V8.92h-1.287q-.464 0-.704-.168-.235-.168-.235-.57 0-.33.196-.545.2-.215.542-.215h1.885q.347 0 .587.074t.386.33q.151.254.151.765zM48.073 11.547V8.424l-2.002-3.728q-.263-.504-.375-.786-.106-.282-.106-.49 0-.342.218-.591.224-.249.548-.249.342 0 .515.236.179.228.531.92l1.533 2.989 1.549-2.99.235-.463q.095-.188.207-.349.117-.168.257-.255.14-.088.341-.088.314 0 .52.249.213.242.213.564 0 .262-.106.524-.107.262-.364.726l-2.052 3.781v3.123q0 .612-.235.914-.235.302-.599.302-.369 0-.598-.295-.23-.303-.23-.92z"/></g><g fill-opacity=".9" stroke-width=".228" style="font-variant-ligatures:none" aria-label="Production, distribution, and consumption"><path d="M2.512 19.184V16.58h.982q.26 0 .396.024.192.032.322.123.13.089.208.25.08.162.08.356 0 .332-.212.563-.211.23-.764.23h-.668v1.058zm.344-1.366h.674q.334 0 .474-.125.14-.124.14-.35 0-.163-.083-.278-.082-.118-.217-.155-.087-.023-.321-.023h-.667zM4.894 19.184v-1.887h.288v.286q.11-.2.203-.264.094-.064.206-.064.161 0 .328.103l-.11.296q-.117-.069-.234-.069-.105 0-.189.064-.083.062-.119.174-.053.17-.053.373v.988zM5.99 18.241q0-.524.292-.776.243-.21.593-.21.39 0 .636.256.247.254.247.703 0 .365-.11.574-.108.208-.318.324-.208.115-.455.115-.396 0-.641-.254-.243-.254-.243-.732zm.33 0q0 .362.157.544.158.18.398.18.238 0 .396-.182.159-.181.159-.553 0-.35-.16-.53-.158-.18-.395-.18-.24 0-.398.18-.158.179-.158.541zM9.357 19.184v-.238q-.18.28-.527.28-.226 0-.416-.124-.189-.124-.293-.346-.103-.224-.103-.514 0-.282.094-.511.094-.231.282-.354.189-.122.421-.122.17 0 .304.072.133.071.217.187v-.935h.318v2.605zm-1.01-.942q0 .363.152.542.153.18.36.18.21 0 .356-.17.148-.173.148-.525 0-.387-.15-.568t-.367-.182q-.214 0-.358.174-.142.174-.142.55zM11.393 19.184v-.277q-.22.32-.599.32-.167 0-.312-.064-.144-.064-.215-.16-.07-.098-.098-.238-.02-.094-.02-.299v-1.169h.32v1.047q0 .25.02.337.03.126.128.2.097.07.241.07t.27-.073q.126-.074.178-.2.053-.128.053-.37v-1.01h.32v1.886zM13.411 18.493l.314.04q-.051.326-.264.51-.212.184-.52.184-.388 0-.624-.253-.235-.254-.235-.726 0-.306.101-.535t.308-.343q.208-.115.451-.115.307 0 .503.156.195.155.25.44l-.31.049q-.045-.19-.159-.286-.112-.096-.272-.096-.241 0-.392.174-.151.172-.151.547 0 .38.145.552.146.173.38.173.189 0 .315-.116t.16-.355zM14.698 18.898l.046.282q-.135.029-.241.029-.175 0-.27-.055-.096-.055-.135-.144-.04-.09-.04-.379v-1.085h-.234v-.249h.234v-.467l.318-.192v.66h.322v.248h-.322v1.103q0 .137.016.176.018.04.056.062.039.023.11.023.053 0 .14-.012zM15.012 16.947v-.368h.32v.368zm0 2.237v-1.887h.32v1.887zM15.7 18.241q0-.524.291-.776.244-.21.594-.21.389 0 .636.256.247.254.247.703 0 .365-.11.574-.109.208-.318.324-.208.115-.455.115-.396 0-.642-.254-.243-.254-.243-.732zm.329 0q0 .362.158.544.158.18.398.18.238 0 .396-.182.158-.181.158-.553 0-.35-.16-.53-.158-.18-.394-.18-.24 0-.398.18-.158.179-.158.541zM17.842 19.184v-1.887h.288v.268q.208-.31.6-.31.17 0 .313.062.144.06.215.16.071.1.1.236.017.089.017.31v1.16h-.32v-1.147q0-.195-.037-.291-.037-.098-.133-.155-.094-.058-.222-.058-.205 0-.354.13-.147.13-.147.491v1.03zM19.949 19.184v-.364h.364v.364q0 .2-.07.323-.072.125-.226.192l-.09-.137q.102-.044.15-.131.048-.085.053-.247zM23.112 19.184v-.238q-.18.28-.528.28-.225 0-.415-.124-.189-.124-.294-.346-.103-.224-.103-.514 0-.282.095-.511.094-.231.282-.354.188-.122.421-.122.17 0 .304.072.133.071.217.187v-.935h.318v2.605zm-1.01-.942q0 .363.152.542.153.18.36.18.21 0 .356-.17.147-.173.147-.525 0-.387-.149-.568t-.368-.182q-.213 0-.357.174-.142.174-.142.55zM23.913 16.947v-.368h.32v.368zm0 2.237v-1.887h.32v1.887zM24.592 18.621l.316-.05q.027.19.148.292.122.1.34.1.221 0 .328-.088.106-.09.106-.211 0-.109-.094-.17-.066-.044-.327-.11-.352-.088-.488-.152-.135-.066-.206-.18-.07-.115-.07-.254 0-.126.057-.232.059-.109.158-.18.075-.055.203-.092.13-.04.277-.04.222 0 .39.065.168.064.248.174.08.108.11.291l-.313.043q-.021-.146-.124-.228-.101-.081-.288-.081-.22 0-.314.073-.095.072-.095.17 0 .062.04.112.039.052.122.085.048.018.283.082.339.09.472.15.135.056.212.166.076.11.076.274 0 .16-.094.302-.093.14-.268.218-.176.077-.398.077-.368 0-.562-.153-.192-.153-.245-.453zM27.237 18.898l.046.282q-.135.029-.241.029-.175 0-.27-.055-.096-.055-.136-.144-.039-.09-.039-.379v-1.085h-.234v-.249h.234v-.467l.318-.192v.66h.322v.248h-.322v1.103q0 .137.016.176.018.04.055.062.04.023.11.023.054 0 .141-.012zM27.546 19.184v-1.887h.288v.286q.11-.2.202-.264.095-.064.206-.064.162 0 .33.103l-.111.296q-.117-.069-.235-.069-.104 0-.188.064-.083.062-.119.174-.053.17-.053.373v.988zM28.763 16.947v-.368h.32v.368zm0 2.237v-1.887h.32v1.887zM29.865 19.184h-.297V16.58h.32v.929q.203-.254.517-.254.174 0 .329.07.156.07.256.198.1.126.158.305.057.18.057.384 0 .485-.24.75t-.576.265q-.334 0-.524-.28zm-.004-.958q0 .34.093.49.15.248.408.248.21 0 .363-.182.153-.183.153-.543 0-.37-.148-.546-.145-.176-.353-.176-.21 0-.363.183-.153.182-.153.526zM32.83 19.184v-.277q-.22.32-.599.32-.167 0-.312-.064-.144-.064-.215-.16-.07-.098-.098-.238-.02-.094-.02-.299v-1.169h.32v1.047q0 .25.02.337.03.126.128.2.097.07.241.07t.27-.073q.126-.074.178-.2.053-.128.053-.37v-1.01h.32v1.886zM34.315 18.898l.046.282q-.135.029-.241.029-.175 0-.27-.055-.096-.055-.135-.144-.04-.09-.04-.379v-1.085h-.234v-.249h.234v-.467l.318-.192v.66h.322v.248h-.322v1.103q0 .137.016.176.018.04.056.062.039.023.11.023.053 0 .14-.012zM34.63 16.947v-.368h.32v.368zm0 2.237v-1.887h.32v1.887zM35.317 18.241q0-.524.291-.776.244-.21.594-.21.389 0 .636.256.247.254.247.703 0 .365-.11.574-.109.208-.318.324-.208.115-.455.115-.396 0-.642-.254-.243-.254-.243-.732zm.329 0q0 .362.158.544.158.18.398.18.238 0 .396-.182.158-.181.158-.553 0-.35-.16-.53-.158-.18-.394-.18-.24 0-.398.18-.158.179-.158.541zM37.46 19.184v-1.887h.288v.268q.208-.31.6-.31.17 0 .313.062.144.06.215.16.071.1.1.236.017.089.017.31v1.16h-.32v-1.147q0-.195-.037-.291-.037-.098-.133-.155-.094-.058-.222-.058-.204 0-.354.13-.147.13-.147.491v1.03zM39.567 19.184v-.364h.364v.364q0 .2-.07.323-.072.125-.226.192l-.09-.137q.102-.044.15-.131.048-.085.053-.247zM42.737 18.951q-.178.151-.343.213-.163.062-.352.062-.31 0-.478-.15-.167-.153-.167-.39 0-.138.063-.252.064-.115.165-.185.103-.069.23-.105.095-.024.285-.048.387-.046.57-.11l.002-.083q0-.196-.09-.276-.123-.108-.365-.108-.225 0-.334.08-.106.078-.158.279l-.312-.043q.042-.2.14-.323.098-.124.282-.19.185-.068.429-.068.241 0 .392.057t.222.144q.071.085.1.217.016.082.016.295v.426q0 .446.02.565.02.117.081.226h-.334q-.05-.1-.064-.233zm-.027-.714q-.174.07-.522.12-.197.029-.279.065-.082.035-.126.104-.044.068-.044.151 0 .128.095.214.098.085.285.085.185 0 .328-.08.144-.082.212-.222.051-.109.051-.32zM43.529 19.184v-1.887h.288v.268q.208-.31.6-.31.17 0 .313.062.144.06.215.16.071.1.1.236.017.089.017.31v1.16h-.32v-1.147q0-.195-.037-.291-.037-.098-.133-.155-.094-.058-.222-.058-.204 0-.354.13-.147.13-.147.491v1.03zM46.777 19.184v-.238q-.18.28-.528.28-.225 0-.415-.124-.189-.124-.294-.346-.103-.224-.103-.514 0-.282.095-.511.094-.231.282-.354.188-.122.421-.122.17 0 .304.072.133.071.217.187v-.935h.318v2.605zm-1.01-.942q0 .363.152.542.153.18.36.18.21 0 .356-.17.147-.173.147-.525 0-.387-.149-.568-.15-.182-.368-.182-.213 0-.357.174-.142.174-.142.55zM3.702 23.863l.315.04q-.052.326-.265.51-.211.184-.52.184-.388 0-.624-.253-.235-.254-.235-.726 0-.306.102-.535.1-.23.307-.343.208-.115.451-.115.308 0 .503.156.195.155.25.44l-.31.049q-.045-.19-.159-.286-.111-.096-.271-.096-.242 0-.393.174-.151.172-.151.547 0 .38.146.552.145.173.38.173.188 0 .314-.116.126-.115.16-.355zM4.171 23.61q0-.524.292-.776.243-.21.593-.21.389 0 .636.256.247.254.247.703 0 .365-.11.574-.109.208-.318.324-.208.115-.455.115-.396 0-.641-.254-.244-.254-.244-.732zm.329 0q0 .362.158.544.158.18.398.18.238 0 .396-.182t.158-.553q0-.35-.16-.53-.158-.18-.394-.18-.24 0-.398.18t-.158.541zM6.314 24.554v-1.887h.288v.268q.207-.31.6-.31.17 0 .313.062.144.06.215.16.07.1.1.236.017.089.017.31v1.16h-.32v-1.147q0-.195-.037-.291-.037-.098-.133-.155-.094-.058-.222-.058-.205 0-.354.13-.147.13-.147.491v1.03zM8.21 23.991l.316-.05q.026.19.147.292.123.1.341.1.22 0 .327-.088.107-.09.107-.211 0-.109-.094-.17-.066-.044-.327-.11-.352-.088-.489-.152-.135-.066-.206-.18-.07-.115-.07-.254 0-.126.058-.232.058-.109.158-.18.074-.055.202-.092.13-.04.277-.04.223 0 .39.065.168.064.248.174.08.108.11.291l-.312.043q-.022-.146-.125-.228-.1-.081-.287-.081-.22 0-.315.073-.094.072-.094.17 0 .062.039.112.04.052.123.085.048.018.282.082.34.09.473.15.135.056.211.166.077.11.077.274 0 .16-.095.302-.092.14-.268.218-.176.077-.398.077-.368 0-.561-.153-.192-.153-.245-.453zM11.393 24.554v-.277q-.22.32-.599.32-.167 0-.312-.064-.144-.064-.215-.16-.07-.098-.098-.238-.02-.094-.02-.299v-1.169h.32v1.047q0 .25.02.337.03.126.128.2.097.07.241.07t.27-.073q.126-.074.178-.2.053-.128.053-.37v-1.01h.32v1.886zM12.18 24.554v-1.887h.286v.265q.089-.139.236-.222.148-.085.336-.085.21 0 .343.087.135.087.19.243.224-.33.583-.33.28 0 .432.156.15.154.15.478v1.295h-.317v-1.189q0-.191-.032-.275-.03-.085-.112-.137-.082-.051-.192-.051-.2 0-.33.133-.132.131-.132.423v1.096h-.32v-1.226q0-.213-.078-.32-.078-.106-.256-.106-.135 0-.25.07-.114.072-.166.209-.051.136-.051.394v.979zM15.211 25.277v-2.61h.291v.245q.103-.144.233-.215.13-.073.315-.073.241 0 .426.125.185.124.279.352.094.225.094.495 0 .29-.105.523-.103.23-.302.355-.197.123-.416.123-.16 0-.287-.068-.126-.067-.208-.17v.918zm.29-1.656q0 .364.147.539.148.174.357.174.213 0 .364-.18.153-.181.153-.56 0-.36-.15-.54-.147-.179-.353-.179-.204 0-.362.192-.156.19-.156.554zM17.933 24.268l.046.282q-.135.029-.241.029-.175 0-.27-.055-.096-.055-.136-.144-.039-.09-.039-.378v-1.086h-.234v-.249h.234V22.2l.318-.192v.66h.322v.248h-.322v1.103q0 .137.016.176.018.04.056.062.039.023.11.023.053 0 .14-.012zM18.247 22.317v-.368h.32v.368zm0 2.237v-1.887h.32v1.887zM18.935 23.61q0-.524.291-.776.244-.21.594-.21.389 0 .636.256.247.254.247.703 0 .365-.11.574-.109.208-.318.324-.208.115-.455.115-.396 0-.642-.254-.243-.254-.243-.732zm.329 0q0 .362.158.544.158.18.398.18.238 0 .396-.182.158-.181.158-.553 0-.35-.16-.53-.158-.18-.394-.18-.24 0-.398.18-.158.179-.158.541zM21.078 24.554v-1.887h.288v.268q.208-.31.6-.31.17 0 .313.062.144.06.215.16.071.1.1.236.017.089.017.31v1.16h-.32v-1.147q0-.195-.037-.291-.037-.098-.133-.155-.094-.058-.222-.058-.205 0-.354.13-.147.13-.147.491v1.03z"/></g></svg>