<svg width="221.182" height="30.92mm" viewBox="0 0 58.521 30.92" xml:space="preserve" xmlns="http://www.w3.org/2000/svg"><defs><filter id="a" x="-.03" y="-.06" width="1.059" height="1.119" color-interpolation-filters="sRGB"><feGaussianBlur stdDeviation="1.032"/></filter></defs><rect transform="translate(-278.37 2.438) scale(.65582)" x="427.68" y="-.49" width="83.529" height="41.442" rx="14.716" ry="4.358" fill="#6b6b6b" filter="url(#a)" style="paint-order:fill markers stroke"/><rect width="54.78" height="27.179" rx="9.651" ry="2.858" fill="#8ee8ce" style="paint-order:fill markers stroke"/><g fill-opacity=".9" stroke-width=".174" style="font-variant-ligatures:none" aria-label="HABITAT"><path d="M4.293 3.866v2.821h3.634v-2.82q0-.605.227-.908.232-.302.606-.302.38 0 .613.302.238.296.238.907v7.758q0 .611-.238.914-.238.302-.613.302-.38 0-.606-.302-.227-.31-.227-.914V8.313H4.293v3.311q0 .611-.238.914t-.613.302q-.38 0-.606-.302-.227-.31-.227-.914V3.866q0-.604.221-.907.227-.302.612-.302.38 0 .613.302.238.296.238.907zM16.8 11.557l-.397-1.236h-3.379l-.397 1.262q-.232.74-.396 1.001-.165.256-.539.256-.318 0-.561-.276-.244-.275-.244-.625 0-.201.057-.416.056-.215.187-.598l2.126-6.394.215-.659q.13-.39.272-.644.148-.256.38-.41.238-.161.584-.161.352 0 .584.16.238.155.38.404.147.248.244.537.102.282.255.76l2.171 6.354q.255.725.255 1.054 0 .343-.243.631-.239.283-.579.283-.198 0-.34-.088-.142-.08-.238-.221-.096-.148-.21-.444-.108-.302-.187-.53zm-3.334-2.734h2.484l-1.253-4.064zM23.444 12.672h-2.54q-.55 0-.787-.289-.233-.295-.233-.933V4.048q0-.652.238-.934.244-.289.783-.289h2.693q.595 0 1.031.088.437.087.783.335.295.209.521.531.227.316.346.705.12.383.12.813 0 1.478-1.248 2.163 1.638.618 1.638 2.405 0 .826-.357 1.49-.357.659-.963.975-.38.188-.874.268-.493.074-1.15.074zM23.32 8.3h-1.752v2.874h1.808q1.707 0 1.707-1.457 0-.746-.442-1.082-.443-.335-1.321-.335zm-1.752-3.977V6.87h1.542q.63 0 .97-.141.345-.141.527-.537.141-.283.141-.632 0-.745-.448-.987-.447-.249-1.366-.249zM28.377 11.624V3.866q0-.605.233-.907.232-.302.6-.302.38 0 .613.302.238.296.238.907v7.758q0 .611-.238.914-.233.302-.612.302-.363 0-.601-.302-.233-.31-.233-.914zM37.404 4.47h-1.837v7.154q0 .618-.233.92-.232.296-.6.296-.375 0-.613-.302-.232-.302-.232-.914V4.471h-1.837q-.431 0-.64-.222-.21-.228-.21-.598 0-.383.215-.604.22-.222.635-.222h5.352q.436 0 .646.228.215.229.215.598t-.215.598q-.215.222-.646.222zM43.912 11.557l-.397-1.236h-3.379l-.397 1.262q-.232.74-.396 1.001-.165.256-.539.256-.318 0-.561-.276-.244-.275-.244-.625 0-.201.057-.416.056-.215.187-.598l2.126-6.394.215-.659q.13-.39.272-.644.148-.256.38-.41.238-.161.584-.161.352 0 .584.16.238.155.38.404.147.248.244.537.102.282.255.76l2.171 6.354q.255.725.255 1.054 0 .343-.243.631-.239.283-.579.283-.198 0-.34-.088-.142-.08-.238-.221-.096-.148-.21-.444-.108-.302-.187-.53zm-3.334-2.734h2.484l-1.253-4.064zM51.385 4.47h-1.837v7.154q0 .618-.232.92-.233.296-.601.296-.374 0-.612-.302-.233-.302-.233-.914V4.471h-1.837q-.43 0-.64-.222-.21-.228-.21-.598 0-.383.215-.604.221-.222.635-.222h5.352q.437 0 .646.228.216.229.216.598t-.216.598q-.215.222-.646.222z"/></g><g fill-opacity=".9" stroke-width=".228" style="font-variant-ligatures:none" aria-label="Perspective and Perception"><path d="M2.512 19.225v-2.604h.983q.259 0 .396.024.192.032.321.123.13.089.208.25.08.162.08.356 0 .332-.211.563-.212.23-.764.23h-.668v1.058zm.345-1.366h.673q.334 0 .474-.125.14-.124.14-.35 0-.163-.083-.278-.081-.118-.216-.155-.087-.023-.322-.023h-.666zM6.19 18.618l.33.04q-.078.29-.29.45-.21.16-.54.16-.413 0-.657-.254-.242-.256-.242-.716 0-.476.246-.739.245-.263.636-.263.378 0 .618.258.24.257.24.725l-.002.085H5.122q.018.31.176.476.158.165.394.165.176 0 .3-.092t.198-.295zm-1.05-.517h1.053q-.021-.238-.12-.357-.153-.185-.397-.185-.22 0-.371.148-.15.147-.165.394zM6.918 19.225v-1.887h.288v.286q.11-.2.203-.264.094-.064.206-.064.161 0 .328.103l-.11.296q-.117-.069-.234-.069-.105 0-.189.064-.083.062-.119.174-.053.17-.053.373v.988zM8.005 18.662l.317-.05q.026.19.147.292.123.1.341.1.22 0 .327-.088.107-.09.107-.211 0-.109-.094-.17-.066-.044-.327-.11-.352-.088-.489-.152-.135-.066-.206-.18-.07-.115-.07-.254 0-.126.058-.232.058-.109.158-.18.074-.055.202-.092.13-.04.277-.04.223 0 .39.065.168.064.248.174.08.108.11.291l-.312.043q-.022-.146-.125-.228-.1-.081-.287-.081-.22 0-.315.073-.094.072-.094.17 0 .062.039.112.04.052.123.085.048.018.282.082.34.09.473.15.135.056.211.166.077.11.077.274 0 .16-.095.302-.092.14-.268.218-.176.077-.398.077-.368 0-.561-.153-.192-.153-.245-.453zM9.953 19.948v-2.61h.291v.245q.103-.144.233-.215.13-.073.314-.073.242 0 .427.125.184.124.279.352.094.225.094.495 0 .29-.105.523-.103.23-.302.355-.197.123-.416.123-.16 0-.288-.068-.126-.067-.208-.17v.918zm.29-1.656q0 .364.147.539.147.174.357.174.213 0 .364-.18.153-.181.153-.56 0-.36-.15-.54-.147-.179-.353-.179-.204 0-.362.192-.157.19-.157.554zM13.268 18.618l.33.04q-.078.29-.29.45-.21.16-.54.16-.413 0-.657-.254-.241-.256-.241-.716 0-.476.245-.739t.636-.263q.378 0 .618.258.24.257.24.725l-.002.085H12.2q.018.31.176.476.158.165.395.165.175 0 .3-.092.124-.092.197-.295zm-1.05-.517h1.054q-.022-.238-.121-.357-.153-.185-.397-.185-.22 0-.37.148-.15.147-.166.394zM15.231 18.534l.314.04q-.051.326-.264.51-.212.184-.52.184-.388 0-.624-.253-.235-.254-.235-.726 0-.306.101-.535t.308-.343q.208-.115.451-.115.307 0 .503.156.195.155.25.44l-.31.049q-.045-.19-.159-.286-.112-.096-.272-.096-.241 0-.392.174-.151.172-.151.547 0 .38.145.552.146.173.38.173.189 0 .315-.116.126-.115.16-.355zM16.517 18.939l.046.282q-.135.029-.241.029-.175 0-.27-.055-.096-.055-.136-.144-.039-.09-.039-.379v-1.085h-.234v-.249h.234v-.467l.318-.192v.66h.322v.248h-.322v1.103q0 .137.016.176.018.04.055.062.04.023.11.023.054 0 .141-.012zM16.832 16.988v-.368h.32v.368zm0 2.237v-1.887h.32v1.887zM18.162 19.225l-.718-1.887h.338l.405 1.13q.066.183.12.38.043-.149.12-.359l.419-1.15h.329l-.715 1.886zM20.749 18.618l.33.04q-.078.29-.29.45-.21.16-.54.16-.413 0-.657-.254-.241-.256-.241-.716 0-.476.245-.739t.636-.263q.378 0 .618.258.24.257.24.725l-.002.085h-1.407q.018.31.176.476.158.165.395.165.175 0 .3-.092.124-.092.197-.295zm-1.05-.517h1.053q-.02-.238-.12-.357-.153-.185-.397-.185-.22 0-.37.148-.15.147-.166.394zM23.723 18.992q-.178.151-.343.213-.163.062-.352.062-.31 0-.478-.15-.167-.153-.167-.39 0-.138.063-.252.064-.115.165-.185.103-.069.23-.105.095-.024.285-.048.387-.046.57-.11l.002-.083q0-.196-.09-.276-.123-.108-.365-.108-.225 0-.334.08-.106.078-.158.279l-.312-.043q.042-.2.14-.323.098-.124.282-.19.185-.068.429-.068.241 0 .392.057t.222.144q.071.085.1.217.016.082.016.295v.426q0 .446.02.565.02.117.081.226h-.334q-.05-.1-.064-.233zm-.027-.714q-.174.07-.522.12-.197.029-.279.065-.082.035-.126.104-.044.068-.044.151 0 .128.095.214.098.085.285.085.184 0 .328-.08.144-.082.212-.222.051-.109.051-.32zM24.516 19.225v-1.887h.288v.268q.208-.31.6-.31.17 0 .313.062.144.06.215.16.071.1.1.236.017.089.017.31v1.16h-.32v-1.147q0-.195-.037-.291-.037-.098-.133-.155-.094-.058-.222-.058-.205 0-.354.13-.147.13-.147.492v1.03zM27.763 19.225v-.238q-.18.28-.528.28-.225 0-.415-.124-.189-.124-.294-.346-.103-.224-.103-.514 0-.282.095-.511.094-.231.282-.354.188-.122.421-.122.17 0 .304.072.133.071.217.187v-.935h.318v2.605zm-1.01-.942q0 .363.152.542.153.18.36.18.21 0 .356-.17.147-.173.147-.525 0-.387-.149-.568-.15-.182-.368-.182-.213 0-.357.174-.142.174-.142.55zM29.615 19.225v-2.604h.982q.26 0 .397.024.192.032.321.123.13.089.208.25.08.162.08.356 0 .332-.211.563-.212.23-.764.23h-.668v1.058zm.345-1.366h.673q.334 0 .474-.125.14-.124.14-.35 0-.163-.083-.278-.082-.118-.217-.155-.087-.023-.321-.023h-.666zM33.292 18.618l.33.04q-.078.29-.29.45-.21.16-.54.16-.413 0-.657-.254-.241-.256-.241-.716 0-.476.245-.739t.636-.263q.378 0 .618.258.24.257.24.725l-.002.085h-1.407q.018.31.176.476.158.165.395.165.175 0 .3-.092.124-.092.197-.295zm-1.05-.517h1.054q-.022-.238-.121-.357-.153-.185-.396-.185-.22 0-.372.148-.15.147-.165.394zM34.021 19.225v-1.887h.288v.286q.11-.2.202-.264.095-.064.206-.064.162 0 .33.103l-.111.296q-.117-.069-.235-.069-.104 0-.188.064-.083.062-.119.174-.053.17-.053.373v.988zM36.467 18.534l.314.04q-.051.326-.264.51-.212.184-.52.184-.388 0-.624-.253-.235-.254-.235-.726 0-.306.101-.535.102-.23.308-.343.208-.115.451-.115.307 0 .503.156.195.155.25.44l-.31.049q-.045-.19-.159-.286-.112-.096-.272-.096-.241 0-.392.174-.151.172-.151.547 0 .38.145.552.146.173.38.173.189 0 .315-.116.126-.115.16-.355zM38.347 18.618l.33.04q-.078.29-.29.45-.21.16-.54.16-.413 0-.657-.254-.241-.256-.241-.716 0-.476.245-.739t.636-.263q.378 0 .618.258.24.257.24.725l-.002.085H37.28q.018.31.176.476.158.165.395.165.175 0 .3-.092t.197-.295zm-1.05-.517h1.054q-.022-.238-.121-.357-.153-.185-.396-.185-.22 0-.372.148-.15.147-.165.394zM39.079 19.948v-2.61h.291v.245q.103-.144.233-.215.13-.073.315-.073.241 0 .426.125.185.124.279.352.094.225.094.495 0 .29-.105.523-.103.23-.302.355-.197.123-.416.123-.16 0-.287-.068-.126-.067-.208-.17v.918zm.29-1.656q0 .364.147.539.148.174.357.174.213 0 .364-.18.153-.181.153-.56 0-.36-.15-.54-.147-.179-.353-.179-.204 0-.362.192-.156.19-.156.554zM41.801 18.939l.046.282q-.135.029-.241.029-.175 0-.27-.055-.096-.055-.135-.144-.04-.09-.04-.379v-1.085h-.234v-.249h.234v-.467l.318-.192v.66h.322v.248h-.322v1.103q0 .137.016.176.018.04.056.062.039.023.11.023.053 0 .14-.012zM42.115 16.988v-.368h.32v.368zm0 2.237v-1.887h.32v1.887zM42.803 18.282q0-.524.291-.776.244-.21.594-.21.389 0 .636.256.247.254.247.703 0 .365-.11.574-.109.208-.318.324-.208.115-.455.115-.396 0-.642-.254-.243-.254-.243-.732zm.329 0q0 .362.158.544.158.18.398.18.238 0 .396-.182.158-.181.158-.553 0-.35-.16-.53-.158-.18-.394-.18-.24 0-.398.18-.158.179-.158.541zM44.945 19.225v-1.887h.288v.268q.208-.31.6-.31.17 0 .313.062.144.06.215.16.071.1.1.236.017.089.017.31v1.16h-.32v-1.147q0-.195-.037-.291-.037-.098-.133-.155-.094-.058-.222-.058-.204 0-.354.13-.147.13-.147.492v1.03z"/></g></svg>