<svg width="221.182" height="30.92mm" viewBox="0 0 58.521 30.92" xml:space="preserve" xmlns="http://www.w3.org/2000/svg"><defs><filter id="a" x="-.03" y="-.06" width="1.059" height="1.12" color-interpolation-filters="sRGB"><feGaussianBlur stdDeviation="1.032"/></filter></defs><rect transform="translate(-278.37 2.438) scale(.65582)" x="427.68" y="-.49" width="83.529" height="41.442" rx="14.716" ry="4.358" fill="#6b6b6b" filter="url(#a)" style="paint-order:fill markers stroke"/><rect width="54.78" height="27.179" rx="9.651" ry="2.858" fill="#bed0d8" style="paint-order:fill markers stroke"/><g aria-label="HISTORY" style="font-size:14.5537px;line-height:1.25;font-family:'Arial Rounded MT Bold';-inkscape-font-specification:'Arial Rounded MT Bold, Normal';font-variant-ligatures:none;text-align:center;letter-spacing:.0262052px;word-spacing:0;text-anchor:middle;stroke-width:.201759"><path d="M164.036 170.033v2.985h4.555v-2.985q0-.64.285-.959.291-.32.76-.32.476 0 .767.32.299.313.299.96v8.207q0 .647-.299.967-.298.32-.767.32-.476 0-.76-.32-.285-.327-.285-.967v-3.503h-4.555v3.503q0 .647-.298.967-.299.32-.768.32-.476 0-.76-.32-.284-.327-.284-.967v-8.208q0-.64.277-.959.284-.32.767-.32.476 0 .768.32.298.313.298.96zM173.08 178.241v-8.208q0-.64.292-.959.291-.32.753-.32.476 0 .767.32.299.313.299.96v8.207q0 .647-.299.967-.29.32-.767.32-.455 0-.753-.32-.292-.327-.292-.967zM185.493 176.223q0 .945-.49 1.698-.484.754-1.422 1.18-.938.426-2.224.426-1.542 0-2.544-.582-.71-.42-1.158-1.116-.441-.703-.441-1.364 0-.384.263-.654.27-.277.682-.277.334 0 .562.213.234.213.397.632.2.498.427.832.234.334.654.554.419.213 1.101.213.938 0 1.52-.433.59-.44.59-1.095 0-.518-.32-.838-.312-.327-.816-.498-.498-.17-1.336-.362-1.123-.263-1.883-.611-.754-.355-1.201-.96-.441-.61-.441-1.513 0-.86.469-1.528t1.357-1.023q.889-.363 2.09-.363.959 0 1.655.242.704.234 1.166.632.462.391.675.825.213.433.213.845 0 .377-.27.683-.263.298-.66.298-.363 0-.555-.178-.185-.184-.405-.597-.285-.59-.682-.916-.398-.334-1.28-.334-.817 0-1.321.362-.498.355-.498.86 0 .313.17.54.171.228.47.391.298.163.604.256.305.092 1.009.27.881.206 1.592.455.717.248 1.215.604.504.355.782.902.284.54.284 1.329zM194.075 170.673h-2.302v7.568q0 .654-.292.974-.291.312-.753.312-.47 0-.768-.32-.29-.32-.29-.966v-7.568h-2.303q-.54 0-.803-.234-.263-.242-.263-.633 0-.405.27-.64.277-.234.796-.234h6.708q.547 0 .81.242.27.241.27.632 0 .39-.27.633-.27.234-.81.234zM200.824 168.754q1.62 0 2.778.661 1.166.654 1.763 1.87.597 1.207.597 2.842 0 1.208-.327 2.196-.327.987-.981 1.712-.654.725-1.606 1.109-.952.383-2.182.383-1.222 0-2.188-.39-.967-.398-1.613-1.116-.647-.718-.981-1.727-.327-1.009-.327-2.182 0-1.2.341-2.202.348-1.002 1.002-1.706t1.592-1.073q.938-.377 2.132-.377zm2.999 5.358q0-1.144-.37-1.982-.37-.839-1.059-1.265-.682-.434-1.57-.434-.633 0-1.173.242-.533.235-.924.69-.383.454-.61 1.165-.221.703-.221 1.584 0 .889.22 1.606.228.718.633 1.194.412.47.938.704.533.234 1.165.234.81 0 1.485-.405.683-.405 1.08-1.25.406-.846.406-2.083zM210.628 174.894h-.739v3.347q0 .661-.291.974-.292.312-.76.312-.505 0-.782-.326-.277-.327-.277-.96v-8.016q0-.682.305-.987.306-.306.988-.306h3.432q.71 0 1.215.064.505.057.91.242.49.206.867.59.377.383.569.895.199.504.199 1.073 0 1.165-.661 1.862-.654.696-1.99.987.561.299 1.073.882.512.582.91 1.243.405.654.625 1.187.227.526.227.725 0 .206-.135.412-.128.199-.355.313-.227.12-.526.12-.355 0-.597-.17-.241-.163-.42-.42-.17-.255-.468-.753l-.846-1.407q-.455-.774-.817-1.18-.355-.404-.725-.554-.37-.149-.93-.149zm1.208-4.377h-1.947v2.864h1.89q.76 0 1.28-.128.518-.135.788-.448.278-.32.278-.874 0-.434-.22-.76-.221-.335-.612-.498-.37-.156-1.457-.156zM220.056 178.241v-3.304l-2.544-3.944q-.334-.533-.476-.832-.135-.298-.135-.518 0-.363.277-.626.284-.263.696-.263.434 0 .654.249.228.242.675.974l1.947 3.162 1.969-3.162.298-.49q.121-.2.263-.37.15-.178.327-.27.178-.093.434-.093.398 0 .66.263.27.256.27.597 0 .277-.134.554-.135.278-.462.768l-2.608 4v3.305q0 .647-.299.967-.298.32-.76.32-.47 0-.76-.313-.292-.32-.292-.974z" style="text-align:start;text-anchor:start;fill-opacity:.9" transform="matrix(.7826 0 0 .94517 -124.178 -156.921)"/></g><g aria-label="Comparative progress - past, present, and future" style="font-style:italic;font-size:4.23061px;line-height:1.4;font-family:Calibri;-inkscape-font-specification:'Calibri, Italic';font-variant-ligatures:none;text-align:center;letter-spacing:0;word-spacing:0;text-anchor:middle;stroke-width:.264583"><path d="m149.544 203.884.4.1q-.126.494-.454.755-.326.258-.8.258-.49 0-.797-.198-.306-.2-.467-.579-.159-.378-.159-.812 0-.473.18-.824.182-.353.514-.535.335-.184.736-.184.454 0 .764.232.31.231.432.65l-.395.093q-.105-.33-.306-.48-.2-.152-.504-.152-.349 0-.584.168-.234.167-.329.45-.095.28-.095.58 0 .387.112.676.114.287.351.43.238.142.514.142.337 0 .57-.194.234-.194.317-.576zM150.252 203.848q0-.609.339-.902.283-.244.69-.244.452 0 .74.297.287.296.287.818 0 .424-.128.668-.126.241-.37.376-.242.134-.53.134-.46 0-.745-.296-.283-.295-.283-.85zm.382 0q0 .422.184.633.184.208.463.208.277 0 .46-.21.184-.211.184-.643 0-.407-.185-.616-.184-.21-.46-.21-.278 0-.462.208-.184.209-.184.63zM152.743 204.945v-2.193h.333v.307q.103-.16.275-.258.171-.1.39-.1.244 0 .399.102.157.101.22.283.261-.384.678-.384.327 0 .502.182.176.18.176.555v1.506h-.37v-1.382q0-.223-.037-.32-.035-.1-.13-.159-.095-.06-.223-.06-.232 0-.384.155-.153.153-.153.492v1.274h-.372v-1.425q0-.248-.091-.372-.09-.124-.297-.124-.157 0-.292.083-.132.082-.192.241-.06.16-.06.459v1.138zM156.268 205.786v-3.034h.338v.285q.12-.168.271-.25.15-.085.366-.085.28 0 .495.145.215.144.325.409.11.262.11.576 0 .337-.123.607-.12.269-.35.413-.23.143-.484.143-.186 0-.335-.079-.147-.078-.242-.198v1.068zm.336-1.925q0 .423.172.626.171.202.415.202.248 0 .423-.208.178-.211.178-.651 0-.42-.173-.628-.172-.209-.412-.209-.237 0-.42.223-.183.221-.183.645zM160.052 204.675q-.207.175-.399.248-.19.072-.409.072-.361 0-.555-.176-.195-.177-.195-.452 0-.161.073-.293.074-.135.192-.215.12-.08.268-.122.11-.029.33-.056.451-.054.664-.128l.002-.097q0-.227-.105-.32-.143-.126-.424-.126-.262 0-.388.093-.124.09-.184.324l-.364-.05q.05-.233.164-.376.113-.144.328-.22.215-.08.498-.08.28 0 .456.067.176.066.259.167.082.1.115.252.019.095.019.343v.496q0 .519.023.657.024.136.095.262h-.389q-.058-.115-.074-.27zm-.031-.83q-.202.082-.607.14-.23.033-.325.074-.095.041-.146.122-.052.079-.052.176 0 .148.112.247.113.1.33.1.215 0 .382-.093.168-.095.246-.259.06-.126.06-.371zM160.97 204.945v-2.193h.334v.332q.128-.233.235-.308.11-.074.24-.074.188 0 .382.12l-.128.345q-.136-.08-.273-.08-.122 0-.219.073t-.138.203q-.062.198-.062.434v1.148zM163.814 204.675q-.207.175-.399.248-.19.072-.409.072-.362 0-.556-.176-.194-.177-.194-.452 0-.161.072-.293.075-.135.193-.215.12-.08.268-.122.11-.029.33-.056.45-.054.664-.128l.002-.097q0-.227-.106-.32-.142-.126-.423-.126-.262 0-.388.093-.124.09-.184.324l-.364-.05q.05-.233.163-.376.114-.144.329-.22.215-.08.498-.08.28 0 .456.067.176.066.258.167.083.1.116.252.019.095.019.343v.496q0 .519.022.657.025.136.095.262h-.388q-.058-.115-.074-.27zm-.031-.83q-.203.082-.608.14-.229.033-.324.074-.095.041-.147.122-.051.079-.051.176 0 .148.111.247.114.1.33.1.216 0 .383-.093.167-.095.246-.259.06-.126.06-.371zM165.547 204.613l.054.328q-.157.033-.281.033-.203 0-.314-.064-.112-.064-.157-.167-.046-.105-.046-.44v-1.262h-.272v-.29h.272v-.543l.37-.223v.767h.374v.289h-.374v1.283q0 .159.019.204.02.046.064.072.045.027.128.027.062 0 .163-.014zM165.912 202.345v-.428h.372v.428zm0 2.6v-2.193h.372v2.193zM167.46 204.945l-.835-2.193h.393l.47 1.313q.077.213.141.442.05-.173.138-.417l.488-1.338h.382l-.83 2.193zM170.467 204.239l.385.047q-.091.337-.337.523-.246.186-.628.186-.481 0-.764-.296-.281-.297-.281-.832 0-.554.285-.86.285-.305.74-.305.44 0 .718.3.279.299.279.842l-.002.1h-1.636q.02.361.204.553.184.192.46.192.204 0 .348-.107.145-.108.23-.343zm-1.22-.601h1.225q-.025-.277-.141-.416-.178-.214-.46-.214-.257 0-.432.171-.174.172-.192.459zM172.494 205.786v-3.034h.339v.285q.12-.168.27-.25.151-.085.366-.085.28 0 .496.145.215.144.324.409.11.262.11.576 0 .337-.122.607-.12.269-.352.413-.229.143-.483.143-.186 0-.335-.079-.146-.078-.241-.198v1.068zm.337-1.925q0 .423.171.626.171.202.415.202.248 0 .424-.208.177-.211.177-.651 0-.42-.173-.628-.172-.209-.411-.209-.238 0-.422.223-.181.221-.181.645zM174.843 204.945v-2.193h.334v.332q.128-.233.236-.308.11-.074.24-.074.187 0 .382.12l-.129.345q-.136-.08-.272-.08-.122 0-.22.073-.096.073-.138.203-.062.198-.062.434v1.148zM176.117 203.848q0-.609.339-.902.283-.244.69-.244.452 0 .74.297.287.296.287.818 0 .424-.129.668-.126.241-.37.376-.241.134-.528.134-.46 0-.746-.296-.283-.295-.283-.85zm.382 0q0 .422.184.633.184.208.463.208.277 0 .46-.21.184-.211.184-.643 0-.407-.186-.616-.183-.21-.458-.21-.279 0-.463.208-.184.209-.184.63zM178.54 205.127l.362.054q.022.167.126.244.138.103.378.103.258 0 .398-.103.141-.104.19-.29.03-.113.027-.477-.243.287-.607.287-.452 0-.7-.326-.248-.326-.248-.783 0-.314.113-.578.114-.267.329-.411.217-.145.508-.145.388 0 .64.314v-.264h.343v1.896q0 .512-.105.725-.103.215-.33.339-.226.124-.556.124-.393 0-.634-.178-.242-.176-.234-.53zm.308-1.318q0 .432.171.63.172.199.43.199.256 0 .43-.197.173-.198.173-.62 0-.402-.18-.607-.177-.204-.429-.204-.248 0-.421.202-.174.2-.174.597zM180.957 204.945v-2.193h.335v.332q.128-.233.235-.308.11-.074.24-.074.188 0 .382.12l-.128.345q-.136-.08-.273-.08-.122 0-.219.073t-.138.203q-.062.198-.062.434v1.148zM183.872 204.239l.384.047q-.09.337-.337.523-.245.186-.628.186-.48 0-.764-.296-.28-.297-.28-.832 0-.554.284-.86.285-.305.74-.305.44 0 .719.3.279.299.279.842l-.002.1h-1.637q.021.361.205.553.184.192.459.192.204 0 .349-.107.144-.108.229-.343zm-1.221-.601h1.225q-.025-.277-.14-.416-.178-.214-.461-.214-.256 0-.432.171-.173.172-.192.459zM184.574 204.29l.368-.057q.03.22.171.338.143.118.397.118.256 0 .38-.103.124-.105.124-.246 0-.126-.11-.198-.076-.05-.38-.126-.409-.104-.568-.178-.157-.076-.24-.209-.08-.134-.08-.295 0-.147.066-.27.068-.127.184-.21.087-.063.236-.107.15-.045.322-.045.258 0 .452.074.197.075.29.203.092.126.128.339l-.364.05q-.025-.17-.145-.265-.117-.095-.334-.095-.256 0-.366.085-.11.084-.11.198 0 .072.046.13.045.06.143.1.055.02.328.094.395.106.55.174.156.066.245.194.09.128.09.318 0 .186-.11.351-.108.163-.312.254-.205.09-.463.09-.428 0-.653-.179-.223-.177-.285-.526zM186.69 204.29l.367-.057q.031.22.172.338.142.118.396.118.256 0 .38-.103.124-.105.124-.246 0-.126-.11-.198-.076-.05-.38-.126-.408-.104-.567-.178-.157-.076-.24-.209-.08-.134-.08-.295 0-.147.066-.27.068-.127.183-.21.087-.063.236-.107.15-.045.322-.045.258 0 .453.074.196.075.289.203.093.126.128.339l-.364.05q-.025-.17-.144-.265-.118-.095-.335-.095-.256 0-.366.085-.11.084-.11.198 0 .072.046.13.046.06.143.1.056.02.328.094.395.106.55.174.157.066.246.194.088.128.088.318 0 .186-.11.351-.106.163-.311.254-.204.09-.463.09-.427 0-.652-.179-.224-.177-.286-.526zM189.984 204.036v-.373h1.143v.373zM147.335 211.818v-3.035h.34v.285q.119-.167.27-.25.15-.084.365-.084.281 0 .496.144.215.145.324.41.11.262.11.576 0 .336-.122.607-.12.269-.351.413-.23.143-.483.143-.186 0-.335-.079-.147-.078-.242-.198v1.068zm.337-1.925q0 .423.172.626.171.202.415.202.248 0 .423-.209.178-.21.178-.65 0-.42-.174-.628-.171-.209-.41-.209-.238 0-.422.223-.182.221-.182.645zM151.12 210.707q-.207.175-.399.247-.19.073-.409.073-.361 0-.556-.176-.194-.178-.194-.452 0-.161.073-.294.074-.134.192-.214.12-.081.268-.122.11-.03.33-.056.451-.054.664-.128l.002-.097q0-.228-.106-.32-.142-.127-.423-.127-.262 0-.388.093-.124.091-.184.325l-.364-.05q.05-.233.163-.376.114-.144.329-.22.215-.08.498-.08.28 0 .456.067.176.066.258.167.083.1.116.252.019.095.019.343v.496q0 .518.022.657.025.136.095.262h-.388q-.058-.116-.074-.27zm-.031-.83q-.203.082-.608.14-.229.033-.324.074-.095.041-.147.122-.051.078-.051.175 0 .15.111.248.114.1.33.1.216 0 .383-.093.167-.095.246-.259.06-.126.06-.372zM151.892 210.322l.368-.058q.031.222.172.34.142.117.396.117.256 0 .38-.103.124-.106.124-.246 0-.126-.11-.198-.076-.05-.38-.126-.408-.104-.567-.178-.157-.076-.24-.209-.08-.134-.08-.295 0-.147.065-.27.069-.127.184-.21.087-.063.236-.107.15-.045.322-.045.258 0 .452.074.197.075.29.203.093.126.128.338l-.364.05q-.025-.17-.144-.264-.118-.095-.335-.095-.256 0-.366.084-.11.085-.11.199 0 .072.046.13.046.06.143.099.055.02.328.095.395.105.55.174.157.066.245.194.09.128.09.318 0 .186-.11.351-.108.163-.312.254-.205.089-.463.089-.427 0-.653-.178-.223-.177-.285-.527zM154.968 210.645l.054.328q-.157.033-.281.033-.202 0-.314-.064-.112-.064-.157-.167-.045-.106-.045-.44v-1.262h-.273v-.29h.273v-.543l.37-.223v.766h.373v.29h-.374v1.282q0 .16.019.205.02.045.064.072.045.027.128.027.062 0 .163-.014zM155.429 210.977v-.423h.423v.423q0 .234-.082.376-.083.145-.263.223l-.103-.159q.118-.051.174-.153.055-.099.062-.287zM157.683 211.818v-3.035h.338v.285q.12-.167.271-.25.15-.084.366-.084.28 0 .495.144.215.145.325.41.11.262.11.576 0 .336-.123.607-.12.269-.35.413-.23.143-.484.143-.186 0-.335-.079-.147-.078-.242-.198v1.068zm.336-1.925q0 .423.172.626.171.202.415.202.248 0 .423-.209.178-.21.178-.65 0-.42-.173-.628-.172-.209-.411-.209-.238 0-.422.223-.182.221-.182.645zM160.031 210.977v-2.194h.335v.333q.128-.234.235-.308.11-.074.24-.074.188 0 .382.12l-.128.344q-.136-.08-.272-.08-.122 0-.22.074-.097.073-.138.203-.062.198-.062.434v1.148zM162.946 210.27l.384.048q-.09.337-.336.523-.246.186-.628.186-.482 0-.765-.296-.28-.297-.28-.832 0-.554.284-.86.285-.305.74-.305.44 0 .719.3.279.299.279.842l-.002.1h-1.636q.02.36.204.553.184.192.459.192.204 0 .349-.107.144-.108.23-.343zm-1.22-.6h1.224q-.025-.277-.14-.416-.178-.215-.46-.215-.257 0-.433.172-.173.171-.192.459zM163.648 210.322l.368-.058q.031.222.172.34.142.117.396.117.256 0 .38-.103.124-.106.124-.246 0-.126-.11-.198-.076-.05-.38-.126-.408-.104-.567-.178-.157-.076-.24-.209-.08-.134-.08-.295 0-.147.065-.27.069-.127.184-.21.087-.063.236-.107.15-.045.322-.045.258 0 .452.074.197.075.29.203.093.126.128.338l-.364.05q-.025-.17-.144-.264-.118-.095-.335-.095-.256 0-.366.084-.11.085-.11.199 0 .072.046.13.046.06.143.099.056.02.328.095.395.105.55.174.157.066.246.194.088.128.088.318 0 .186-.11.351-.107.163-.311.254-.205.089-.463.089-.427 0-.653-.178-.223-.177-.285-.527zM167.414 210.27l.384.048q-.09.337-.336.523-.246.186-.628.186-.482 0-.765-.296-.28-.297-.28-.832 0-.554.285-.86.285-.305.74-.305.44 0 .718.3.279.299.279.842l-.002.1h-1.636q.02.36.204.553.184.192.459.192.204 0 .349-.107.145-.108.23-.343zm-1.22-.6h1.224q-.024-.277-.14-.416-.178-.215-.46-.215-.257 0-.432.172-.174.171-.193.459zM168.265 210.977v-2.194h.335v.312q.242-.361.698-.361.199 0 .364.072.167.07.25.186.082.116.115.275.021.103.021.361v1.35h-.372v-1.335q0-.228-.043-.34-.044-.113-.155-.179-.11-.068-.258-.068-.238 0-.411.15-.172.152-.172.573v1.198zM171.43 210.645l.054.328q-.157.033-.281.033-.203 0-.314-.064-.112-.064-.157-.167-.046-.106-.046-.44v-1.262h-.272v-.29h.272v-.543l.37-.223v.766h.374v.29h-.374v1.282q0 .16.019.205.02.045.064.072.045.027.128.027.062 0 .163-.014zM171.89 210.977v-.423h.424v.423q0 .234-.082.376-.083.145-.263.223l-.103-.159q.118-.051.173-.153.056-.099.062-.287zM175.576 210.707q-.207.175-.399.247-.19.073-.409.073-.361 0-.555-.176-.195-.178-.195-.452 0-.161.073-.294.074-.134.192-.214.12-.081.268-.122.11-.03.33-.056.451-.054.664-.128l.002-.097q0-.228-.105-.32-.143-.127-.424-.127-.262 0-.388.093-.124.091-.184.325l-.364-.05q.05-.233.164-.376.113-.144.328-.22.215-.08.498-.08.28 0 .456.067.176.066.259.167.082.1.115.252.019.095.019.343v.496q0 .518.023.657.024.136.095.262h-.389q-.058-.116-.074-.27zm-.031-.83q-.202.082-.607.14-.23.033-.325.074-.095.041-.146.122-.052.078-.052.175 0 .15.112.248.113.1.33.1.215 0 .382-.093.168-.095.246-.259.06-.126.06-.372zM176.497 210.977v-2.194h.335v.312q.242-.361.698-.361.198 0 .364.072.167.07.25.186.082.116.115.275.02.103.02.361v1.35h-.37v-1.335q0-.228-.044-.34-.044-.113-.155-.179-.11-.068-.258-.068-.238 0-.412.15-.171.152-.171.573v1.198zM180.273 210.977v-.277q-.208.327-.613.327-.262 0-.483-.145-.22-.144-.341-.403-.12-.26-.12-.597 0-.328.11-.595.109-.268.328-.41.219-.143.49-.143.198 0 .353.084.155.083.252.217v-1.086h.37v3.028zm-1.175-1.095q0 .422.178.63.177.209.419.209.244 0 .413-.198.172-.2.172-.61 0-.45-.174-.66-.173-.211-.428-.211-.247 0-.415.202-.165.202-.165.638zM182.467 210.977v-1.904h-.328v-.29h.328v-.233q0-.221.04-.329.053-.144.187-.233.137-.09.38-.09.158 0 .348.036l-.056.325q-.116-.021-.22-.021-.169 0-.239.072-.07.073-.07.27v.203h.428v.29h-.428v1.904zM184.992 210.977v-.322q-.257.372-.697.372-.194 0-.363-.075-.168-.074-.25-.186-.08-.113-.114-.276-.022-.11-.022-.347v-1.36h.371V210q0 .291.023.392.035.147.149.232.113.082.28.082.168 0 .315-.084.146-.087.206-.234.062-.148.062-.43v-1.175h.372v2.194zM186.718 210.645l.054.328q-.157.033-.28.033-.203 0-.315-.064-.111-.064-.157-.167-.045-.106-.045-.44v-1.262h-.273v-.29h.273v-.543l.37-.223v.766h.374v.29h-.374v1.282q0 .16.018.205.02.045.064.072.046.027.128.027.062 0 .163-.014zM188.52 210.977v-.322q-.256.372-.696.372-.195 0-.364-.075-.167-.074-.25-.186-.08-.113-.113-.276-.023-.11-.023-.347v-1.36h.372V210q0 .291.022.392.035.147.15.232.113.082.28.082.167 0 .314-.084.147-.087.207-.234.062-.148.062-.43v-1.175h.371v2.194zM189.43 210.977v-2.194h.335v.333q.128-.234.236-.308.11-.074.24-.074.188 0 .382.12l-.128.344q-.137-.08-.273-.08-.122 0-.219.074-.097.073-.138.203-.062.198-.062.434v1.148zM192.346 210.27l.384.048q-.091.337-.337.523-.246.186-.628.186-.481 0-.764-.296-.281-.297-.281-.832 0-.554.285-.86.285-.305.74-.305.44 0 .718.3.28.299.28.842l-.003.1h-1.636q.02.36.205.553.183.192.458.192.205 0 .35-.107.144-.108.229-.343zm-1.221-.6h1.225q-.025-.277-.14-.416-.178-.215-.461-.215-.257 0-.432.172-.174.171-.192.459z" style="font-style:normal;font-family:Arial;-inkscape-font-specification:Arial;text-align:start;text-anchor:start;fill-opacity:.9" transform="matrix(.86005 0 0 .86005 -124.178 -156.921)"/></g></svg>