<svg width="221.182" height="30.92mm" viewBox="0 0 58.521 30.92" xml:space="preserve" xmlns="http://www.w3.org/2000/svg"><defs><filter id="a" x="-.03" y="-.06" width="1.059" height="1.119" color-interpolation-filters="sRGB"><feGaussianBlur stdDeviation="1.032"/></filter></defs><rect transform="translate(-278.37 2.438) scale(.65582)" x="427.68" y="-.49" width="83.529" height="41.442" rx="14.716" ry="4.358" fill="#6b6b6b" filter="url(#a)" style="paint-order:fill markers stroke"/><rect width="54.78" height="27.179" rx="9.651" ry="2.858" fill="#bed0d8" style="paint-order:fill markers stroke"/><g fill-opacity=".9" stroke-width=".174" style="font-variant-ligatures:none" aria-label="HISTORY"><path d="M4.198 3.789v2.82h3.565V3.79q0-.605.223-.907.228-.302.595-.302.372 0 .6.302.234.296.234.907v7.758q0 .611-.234.913-.233.303-.6.303-.373 0-.595-.303-.223-.309-.223-.913V8.235H4.198v3.312q0 .611-.233.913-.234.303-.601.303-.373 0-.595-.303-.223-.309-.223-.913V3.789q0-.605.217-.907.223-.302.601-.302.373 0 .6.302.234.296.234.907zM11.276 11.547V3.79q0-.604.228-.907.228-.302.59-.302.372 0 .6.302.234.296.234.907v7.758q0 .611-.234.914-.228.302-.6.302-.356 0-.59-.302-.228-.31-.228-.914zM20.99 9.64q0 .893-.383 1.605-.378.712-1.112 1.115-.734.403-1.741.403-1.207 0-1.991-.551-.556-.396-.907-1.055-.344-.665-.344-1.29 0-.362.205-.617.212-.262.534-.262.262 0 .44.201.183.202.311.598.156.47.334.786.183.316.511.524.329.201.862.201.735 0 1.19-.41.462-.416.462-1.034 0-.49-.25-.792-.245-.31-.64-.47-.389-.162-1.045-.343-.879-.249-1.474-.578-.59-.336-.94-.907-.345-.577-.345-1.43 0-.813.367-1.444.367-.632 1.063-.968.695-.342 1.635-.342.75 0 1.296.228.55.222.912.598.361.37.528.78.167.409.167.798 0 .356-.211.645-.206.282-.518.282-.283 0-.433-.168-.145-.174-.317-.564-.223-.557-.534-.866-.312-.316-1.001-.316-.64 0-1.035.343-.39.335-.39.812 0 .296.134.51.134.216.367.37.234.155.473.242.24.087.79.255.69.195 1.246.43.561.235.95.571.395.336.612.853.223.51.223 1.256zM27.707 4.393h-1.802v7.154q0 .618-.228.92-.228.296-.59.296-.366 0-.6-.303-.228-.302-.228-.913V4.393h-1.802q-.423 0-.628-.221-.206-.229-.206-.598 0-.383.211-.605.217-.221.623-.221h5.25q.428 0 .634.228.212.228.212.598t-.212.598q-.211.221-.634.221zM32.988 2.58q1.268 0 2.175.624.912.618 1.38 1.767.466 1.142.466 2.687 0 1.142-.256 2.075-.255.934-.767 1.619-.512.685-1.257 1.048-.745.363-1.707.363-.957 0-1.713-.37-.757-.376-1.263-1.054-.506-.679-.767-1.633-.256-.953-.256-2.062 0-1.135.267-2.082.273-.947.784-1.612.512-.665 1.246-1.014.734-.356 1.668-.356zm2.347 5.064q0-1.081-.289-1.874-.289-.792-.828-1.195-.534-.41-1.23-.41-.495 0-.917.228-.417.222-.723.652-.3.43-.478 1.101-.173.665-.173 1.498 0 .84.173 1.518.178.679.495 1.129.322.443.734.665.417.221.912.221.634 0 1.162-.382.534-.383.845-1.183.317-.799.317-1.968zM40.661 8.383h-.578v3.164q0 .625-.228.92-.228.296-.595.296-.395 0-.612-.31-.217-.308-.217-.906V3.97q0-.645.24-.933t.772-.29h2.686q.556 0 .951.061.395.054.712.229.384.194.679.557t.445.846q.155.477.155 1.015 0 1.101-.517 1.76-.512.658-1.557.933.44.282.84.833.4.55.712 1.176.317.617.489 1.121.178.497.178.685 0 .195-.106.39-.1.188-.278.296-.178.114-.411.114-.278 0-.468-.161-.189-.155-.328-.397-.133-.242-.367-.712l-.662-1.33q-.355-.732-.64-1.115-.277-.383-.566-.524-.29-.14-.729-.14zm.946-4.137h-1.524v2.706h1.48q.594 0 1-.12.406-.128.617-.424.217-.302.217-.826 0-.41-.172-.718-.173-.316-.478-.47-.29-.148-1.14-.148zM48.04 11.547V8.424l-1.991-3.728q-.261-.504-.373-.786-.105-.282-.105-.49 0-.343.217-.591.222-.249.545-.249.339 0 .511.235.178.229.529.92l1.523 2.99 1.54-2.99.234-.463q.095-.188.206-.35.117-.167.256-.255.14-.087.34-.087.31 0 .517.249.21.241.21.564 0 .262-.105.524t-.361.725l-2.041 3.782v3.123q0 .611-.234.914-.233.302-.595.302-.367 0-.595-.296-.228-.302-.228-.92z"/></g><g fill-opacity=".9" stroke-width=".228" style="font-variant-ligatures:none" aria-label="Past and future progress"><path d="M2.58 19.342v-2.604h.983q.259 0 .396.024.192.032.321.123.13.089.208.25.08.162.08.356 0 .332-.211.563-.212.23-.764.23h-.668v1.058zm.345-1.366h.673q.334 0 .474-.125.14-.124.14-.35 0-.163-.083-.278-.081-.118-.216-.155-.087-.023-.322-.023h-.666zM6.197 19.11q-.177.151-.343.213-.163.062-.351.062-.311 0-.478-.15-.167-.153-.167-.39 0-.138.062-.252.064-.115.165-.185.103-.069.231-.105.094-.024.284-.048.388-.046.57-.11l.002-.083q0-.196-.09-.276-.123-.108-.364-.108-.226 0-.334.08-.107.078-.159.279l-.312-.043q.042-.2.14-.323.098-.124.283-.19.184-.068.428-.068.241 0 .392.057.151.057.223.144.07.085.099.217.016.082.016.295v.426q0 .446.02.565.02.117.081.226h-.334q-.05-.1-.064-.233zm-.026-.714q-.174.07-.523.12-.197.029-.279.065-.081.035-.126.104-.044.068-.044.151 0 .128.096.214.097.085.284.085.185 0 .329-.08.144-.082.211-.222.052-.109.052-.32zM6.862 18.779l.316-.05q.027.19.147.292.123.1.342.1.22 0 .327-.088.106-.09.106-.211 0-.109-.094-.17-.066-.044-.327-.11-.352-.088-.489-.152-.135-.066-.206-.18-.069-.115-.069-.254 0-.126.057-.232.059-.109.158-.18.075-.055.203-.092.13-.04.277-.04.222 0 .389.065.169.064.249.174.08.108.11.291l-.313.043q-.021-.146-.124-.228-.102-.081-.288-.081-.22 0-.315.073-.094.072-.094.17 0 .062.04.112.038.052.122.085.048.018.282.082.34.09.473.15.135.056.211.166.077.11.077.274 0 .16-.094.302-.093.14-.269.218-.176.077-.398.077-.367 0-.561-.153-.192-.153-.245-.453zM9.507 19.056l.046.282q-.135.029-.241.029-.174 0-.27-.055-.096-.055-.135-.144-.04-.09-.04-.379v-1.085h-.234v-.249h.235v-.467l.318-.192v.66h.321v.248h-.321v1.103q0 .137.016.176.017.04.055.062.039.023.11.023.053 0 .14-.012zM12.062 19.11q-.178.151-.343.213-.163.062-.352.062-.31 0-.478-.15-.167-.153-.167-.39 0-.138.063-.252.064-.115.165-.185.103-.069.23-.105.095-.024.285-.048.387-.046.57-.11l.002-.083q0-.196-.09-.276-.123-.108-.365-.108-.225 0-.334.08-.106.078-.158.279l-.312-.043q.042-.2.14-.323.098-.124.282-.19.185-.068.429-.068.241 0 .392.057t.222.144q.071.085.1.217.016.082.016.295v.426q0 .446.02.565.02.117.081.226h-.334q-.05-.1-.064-.233zm-.027-.714q-.174.07-.522.12-.197.029-.279.065-.082.035-.126.104-.044.068-.044.151 0 .128.095.214.098.085.285.085.184 0 .328-.08.144-.082.212-.222.051-.109.051-.32zM12.854 19.342v-1.887h.288v.268q.208-.31.6-.31.17 0 .313.062.144.06.215.16.071.1.1.236.017.089.017.31v1.16h-.32v-1.147q0-.195-.037-.291-.037-.098-.133-.155-.094-.058-.222-.058-.205 0-.354.13-.147.13-.147.491v1.03zM16.102 19.342v-.238q-.18.28-.528.28-.225 0-.415-.124-.189-.124-.294-.346-.103-.224-.103-.514 0-.282.095-.511.094-.231.282-.354.188-.122.421-.122.17 0 .304.072.133.071.217.187v-.935h.318v2.605zm-1.01-.942q0 .363.152.542.153.18.36.18.21 0 .356-.17.147-.173.147-.525 0-.387-.149-.569t-.368-.18q-.213 0-.357.173-.142.174-.142.55zM17.989 19.342v-1.638h-.282v-.249h.282v-.2q0-.19.034-.283.046-.124.161-.2.118-.079.327-.079.135 0 .299.032l-.048.279q-.1-.018-.188-.018-.146 0-.207.062-.06.063-.06.233v.174h.368v.249h-.368v1.638zM20.16 19.342v-.277q-.22.32-.599.32-.167 0-.312-.064-.144-.064-.215-.16-.07-.098-.098-.238-.02-.094-.02-.299v-1.169h.32v1.047q0 .25.02.337.03.126.128.2.097.07.241.07t.27-.073q.126-.074.178-.2.053-.128.053-.37v-1.01h.32v1.886zM21.645 19.056l.046.282q-.135.029-.241.029-.175 0-.27-.055-.096-.055-.136-.144-.039-.09-.039-.379v-1.085h-.234v-.249h.234v-.467l.318-.192v.66h.322v.248h-.322v1.103q0 .137.016.176.018.04.055.062.04.023.11.023.054 0 .141-.012zM23.194 19.342v-.277q-.22.32-.599.32-.167 0-.312-.064-.144-.064-.215-.16-.07-.098-.098-.238-.02-.094-.02-.299v-1.169h.32v1.047q0 .25.02.337.03.126.128.2.097.07.241.07t.27-.073q.126-.074.178-.2.053-.128.053-.37v-1.01h.32v1.886zM23.978 19.342v-1.887h.288v.286q.11-.2.202-.264.095-.064.206-.064.162 0 .33.103l-.111.296q-.117-.069-.235-.069-.104 0-.188.064-.083.062-.119.174-.053.17-.053.373v.988zM26.485 18.735l.33.04q-.078.29-.29.45-.21.16-.54.16-.413 0-.657-.254-.241-.256-.241-.716 0-.476.245-.739t.636-.263q.378 0 .618.258t.24.725l-.002.085h-1.407q.018.31.176.476.158.165.395.165.175 0 .3-.092.124-.092.197-.295zm-1.05-.517h1.054q-.022-.238-.121-.357-.153-.185-.396-.185-.22 0-.372.148-.15.147-.165.394zM28.228 20.066v-2.61h.291v.245q.103-.144.233-.215.13-.073.315-.073.241 0 .426.125.185.124.279.352.094.225.094.495 0 .29-.105.523-.103.23-.302.355-.197.123-.416.123-.16 0-.287-.068-.126-.067-.208-.17v.918zm.29-1.656q0 .364.147.539.148.174.357.174.213 0 .364-.18.153-.181.153-.56 0-.36-.15-.54-.147-.179-.353-.179-.204 0-.362.192-.156.19-.156.554zM30.248 19.342v-1.887h.288v.286q.11-.2.202-.264.095-.064.206-.064.162 0 .33.103l-.111.296q-.117-.069-.235-.069-.104 0-.188.064-.083.062-.119.174-.053.17-.053.373v.988zM31.344 18.399q0-.524.291-.776.244-.21.594-.21.389 0 .636.256.247.254.247.703 0 .365-.11.574-.109.208-.318.324-.208.115-.455.115-.396 0-.642-.254-.243-.254-.243-.732zm.329 0q0 .362.158.544.158.18.398.18.238 0 .396-.182.158-.181.158-.553 0-.35-.16-.53-.158-.18-.394-.18-.24 0-.398.18-.158.179-.158.541zM33.428 19.499l.31.046q.02.144.11.21.118.089.324.089.222 0 .343-.09t.164-.248q.025-.098.023-.41-.21.247-.522.247-.39 0-.603-.281-.213-.28-.213-.673 0-.27.098-.498.097-.229.282-.353.187-.125.437-.125.334 0 .551.27v-.227h.295v1.63q0 .441-.09.624-.09.185-.285.292-.194.106-.478.106-.337 0-.545-.152-.208-.151-.201-.457zm.265-1.133q0 .37.147.541.148.17.37.17.22 0 .37-.168.148-.17.148-.533 0-.346-.154-.522-.153-.176-.37-.176-.213 0-.362.174-.15.172-.15.513zM35.506 19.342v-1.887h.288v.286q.11-.2.202-.264.095-.064.206-.064.162 0 .33.103l-.111.296q-.117-.069-.235-.069-.104 0-.188.064-.083.062-.119.174-.053.17-.053.373v.988zM38.013 18.735l.33.04q-.078.29-.29.45-.21.16-.54.16-.413 0-.657-.254-.241-.256-.241-.716 0-.476.245-.739t.636-.263q.378 0 .618.258.24.257.24.725l-.002.085h-1.407q.018.31.176.476.158.165.395.165.175 0 .3-.092.124-.092.197-.295zm-1.05-.517h1.054q-.022-.238-.121-.357-.153-.185-.396-.185-.22 0-.372.148-.15.147-.165.394zM38.617 18.779l.316-.05q.027.19.148.292.122.1.34.1.221 0 .328-.088.106-.09.106-.211 0-.109-.094-.17-.066-.044-.327-.11-.352-.088-.488-.152-.135-.066-.206-.18-.07-.115-.07-.254 0-.126.057-.232.059-.109.158-.18.075-.055.203-.092.13-.04.277-.04.222 0 .389.065.169.064.249.174.08.108.11.291l-.313.043q-.021-.146-.124-.228-.101-.081-.288-.081-.22 0-.314.073-.095.072-.095.17 0 .062.04.112.039.052.122.085.048.018.283.082.339.09.472.15.135.056.212.166.076.11.076.274 0 .16-.094.302-.093.14-.268.218-.176.077-.398.077-.368 0-.562-.153-.192-.153-.245-.453zM40.437 18.779l.316-.05q.027.19.148.292.122.1.34.1.221 0 .328-.088.106-.09.106-.211 0-.109-.094-.17-.066-.044-.327-.11-.352-.088-.488-.152-.135-.066-.206-.18-.07-.115-.07-.254 0-.126.057-.232.059-.109.158-.18.075-.055.203-.092.13-.04.277-.04.222 0 .389.065.169.064.249.174.08.108.11.291l-.313.043q-.021-.146-.124-.228-.101-.081-.288-.081-.22 0-.314.073-.095.072-.095.17 0 .062.04.112.039.052.122.085.048.018.283.082.339.09.472.15.135.056.212.166.076.11.076.274 0 .16-.094.302-.093.14-.268.218-.176.077-.398.077-.368 0-.562-.153-.192-.153-.245-.453z"/></g></svg>