<svg width="221.182" height="30.92mm" viewBox="0 0 58.521 30.92" xml:space="preserve" xmlns="http://www.w3.org/2000/svg"><defs><filter id="a" x="-.03" y="-.06" width="1.059" height="1.119" color-interpolation-filters="sRGB"><feGaussianBlur stdDeviation="1.032"/></filter></defs><rect transform="translate(-278.37 2.438) scale(.65582)" x="427.68" y="-.49" width="83.529" height="41.442" rx="14.716" ry="4.358" fill="#6b6b6b" filter="url(#a)" style="paint-order:fill markers stroke"/><rect width="54.78" height="27.179" rx="9.651" ry="2.858" fill="#adeb48" style="paint-order:fill markers stroke"/><g fill-opacity=".9" stroke-width=".174" style="font-variant-ligatures:none" aria-label="MATTER"><path d="M5.538 11.11 4.209 4.837v6.797q0 .565-.215.847-.209.282-.56.282-.339 0-.554-.276-.214-.282-.214-.853V3.843q0-.645.282-.867.283-.228.764-.228h.52q.47 0 .678.1.215.102.317.364.102.261.232.853l1.204 5.393 1.205-5.393q.13-.592.232-.853.101-.262.31-.363.215-.1.685-.1h.52q.48 0 .763.227.283.222.283.867v7.791q0 .565-.215.847-.209.282-.565.282-.334 0-.549-.282-.215-.282-.215-.847V4.837L7.79 11.11q-.13.612-.215.9-.08.283-.3.518-.22.235-.61.235-.295 0-.498-.155-.204-.147-.317-.383t-.18-.517l-.13-.598zM18.376 11.48l-.396-1.236h-3.37l-.396 1.263q-.232.739-.396 1-.164.256-.537.256-.317 0-.56-.276-.243-.275-.243-.624 0-.202.056-.417.057-.215.187-.597l2.12-6.395.215-.658q.13-.39.272-.645.147-.255.379-.41.237-.16.582-.16.35 0 .582.16.238.155.38.403.146.249.242.538.102.282.255.759l2.166 6.354q.254.725.254 1.054 0 .343-.243.632-.238.282-.577.282-.198 0-.34-.087-.14-.081-.237-.222-.096-.148-.209-.443l-.186-.53zM15.05 8.746h2.476l-1.25-4.063zM26.453 4.394H24.62v7.153q0 .618-.232.92-.232.296-.6.296-.373 0-.61-.302-.232-.303-.232-.914V4.394h-1.832q-.43 0-.64-.222-.208-.228-.208-.598 0-.382.215-.604.22-.222.633-.222h5.338q.435 0 .644.229.215.228.215.597 0 .37-.215.598-.215.222-.644.222zM34.377 4.394h-1.832v7.153q0 .618-.232.92-.232.296-.6.296-.373 0-.61-.302-.232-.303-.232-.914V4.394h-1.832q-.43 0-.64-.222-.208-.228-.208-.598 0-.382.214-.604.22-.222.634-.222h5.338q.435 0 .644.229.215.228.215.597 0 .37-.215.598-.215.222-.644.222zM42.38 4.286h-3.784v2.418h3.484q.384 0 .57.209.193.201.193.537t-.187.55q-.186.209-.576.209h-3.484v2.8h3.913q.396 0 .594.222.204.215.204.578 0 .35-.204.571-.198.215-.594.215h-4.563q-.548 0-.791-.289-.238-.289-.238-.934V3.971q0-.43.107-.699.108-.275.334-.396.232-.128.588-.128h4.433q.402 0 .594.215.198.208.198.55 0 .35-.198.565-.192.208-.594.208zM47.584 8.384h-.588v3.163q0 .625-.232.92-.232.296-.605.296-.402 0-.622-.31t-.22-.906V3.971q0-.645.242-.934t.786-.289h2.731q.566 0 .967.06.402.054.724.229.39.195.69.557.3.363.452.847.159.477.159 1.014 0 1.102-.526 1.76-.52.658-1.584.933.447.283.854.833.407.551.724 1.176.322.618.498 1.121.18.498.18.686 0 .194-.107.39-.102.187-.283.295-.18.114-.418.114-.283 0-.475-.161-.192-.155-.334-.397-.135-.241-.373-.712l-.673-1.33q-.362-.732-.65-1.114-.283-.383-.577-.524-.294-.141-.74-.141zm.96-4.138h-1.548v2.707H48.5q.605 0 1.018-.121.412-.128.627-.423.22-.303.22-.826 0-.41-.175-.72-.175-.315-.486-.47-.294-.147-1.16-.147z"/></g><g fill-opacity=".9" stroke-width=".228" style="font-variant-ligatures:none" aria-label="Food, water, and other consumables"><path d="M2.432 19.249v-2.604h1.757v.307H2.777v.806h1.222v.308H2.777v1.183zM4.477 18.305q0-.524.291-.776.244-.21.594-.21.389 0 .636.256.247.254.247.703 0 .365-.11.574-.109.208-.319.324-.207.115-.454.115-.397 0-.642-.254-.243-.254-.243-.732zm.329 0q0 .362.158.544.158.18.398.18.238 0 .396-.182t.158-.553q0-.35-.16-.53-.158-.18-.394-.18-.24 0-.398.18t-.158.541zM6.5 18.305q0-.524.292-.776.243-.21.593-.21.39 0 .636.256.247.254.247.703 0 .365-.11.574-.108.208-.318.324-.208.115-.455.115-.396 0-.641-.254-.244-.254-.244-.732zm.33 0q0 .362.157.544.158.18.398.18.238 0 .396-.182.159-.181.159-.553 0-.35-.16-.53-.158-.18-.395-.18-.24 0-.398.18t-.158.541zM9.867 19.249v-.238q-.18.28-.527.28-.226 0-.416-.124-.188-.124-.293-.346-.103-.224-.103-.514 0-.282.094-.511.094-.231.282-.354.189-.122.421-.122.171 0 .304.072.133.071.217.187v-.935h.318v2.605zm-1.01-.942q0 .363.152.542.153.18.36.18.21 0 .356-.17.148-.173.148-.525 0-.387-.15-.569-.149-.18-.367-.18-.214 0-.357.173-.143.174-.143.55zM10.75 19.249v-.364h.364v.364q0 .2-.07.323-.072.125-.226.192l-.09-.137q.102-.044.15-.131.048-.085.053-.247zM13.037 19.249l-.577-1.887h.33l.3 1.09.112.404.098-.389.3-1.105h.329l.282 1.095.095.36.108-.364.323-1.09h.311l-.59 1.886h-.332l-.3-1.13-.073-.322-.382 1.452zM16.547 19.016q-.178.151-.343.213-.163.062-.352.062-.31 0-.478-.15-.167-.153-.167-.39 0-.138.063-.252.064-.115.165-.185.103-.069.23-.105.095-.024.285-.048.387-.046.57-.11l.002-.083q0-.196-.09-.276-.123-.108-.365-.108-.225 0-.334.08-.106.078-.158.279l-.312-.043q.042-.2.14-.323.098-.124.282-.19.185-.068.429-.068.241 0 .392.057t.222.144q.071.085.1.217.016.082.016.295v.426q0 .446.02.565.02.117.081.226h-.334q-.05-.1-.064-.233zm-.027-.714q-.174.07-.522.12-.197.029-.279.065-.082.035-.126.104-.044.068-.044.151 0 .128.095.214.098.085.285.085.184 0 .328-.08.144-.082.212-.222.051-.109.051-.32zM18.038 18.963l.046.282q-.135.029-.241.029-.175 0-.27-.055-.096-.055-.136-.144-.039-.09-.039-.379v-1.085h-.234v-.249h.234v-.467l.318-.192v.66h.322v.248h-.322v1.103q0 .137.016.176.018.04.055.062.04.023.11.023.054 0 .141-.012zM19.642 18.641l.33.04q-.078.29-.29.45-.21.16-.54.16-.413 0-.657-.254-.241-.256-.241-.716 0-.476.245-.739t.636-.263q.378 0 .618.258.24.257.24.725l-.002.085h-1.407q.018.31.176.476.158.165.395.165.175 0 .3-.092.124-.092.197-.295zm-1.05-.517h1.054q-.022-.238-.121-.357-.153-.185-.396-.185-.22 0-.372.148-.15.147-.165.394zM20.371 19.249v-1.887h.288v.286q.11-.2.202-.264.095-.064.206-.064.162 0 .33.103l-.111.296q-.117-.069-.235-.069-.104 0-.188.064-.083.062-.119.174-.053.17-.053.373v.988zM21.469 19.249v-.364h.364v.364q0 .2-.07.323-.072.125-.226.192l-.09-.137q.102-.044.15-.131.048-.085.053-.247zM24.638 19.016q-.178.151-.343.213-.163.062-.352.062-.31 0-.478-.15-.167-.153-.167-.39 0-.138.063-.252.064-.115.165-.185.103-.069.23-.105.095-.024.285-.048.387-.046.57-.11l.002-.083q0-.196-.09-.276-.123-.108-.365-.108-.225 0-.334.08-.106.078-.158.279l-.312-.043q.042-.2.14-.323.098-.124.282-.19.185-.068.429-.068.241 0 .392.057t.222.144q.071.085.1.217.016.082.016.295v.426q0 .446.02.565.02.117.081.226h-.334q-.05-.1-.064-.233zm-.027-.714q-.174.07-.522.12-.197.029-.279.065-.082.035-.126.104-.044.068-.044.151 0 .128.095.214.098.085.285.085.185 0 .328-.08.144-.082.212-.222.051-.109.051-.32zM25.431 19.249v-1.887h.288v.268q.208-.31.6-.31.17 0 .313.062.144.06.215.16.071.1.1.236.017.089.017.31v1.16h-.32v-1.147q0-.195-.037-.291-.037-.098-.133-.155-.094-.058-.222-.058-.204 0-.354.13-.147.13-.147.491v1.03zM28.678 19.249v-.238q-.18.28-.528.28-.225 0-.415-.124-.189-.124-.294-.346-.103-.224-.103-.514 0-.282.095-.511.094-.231.282-.354.188-.122.421-.122.17 0 .304.072.133.071.217.187v-.935h.318v2.605zm-1.01-.942q0 .363.152.542.153.18.36.18.21 0 .356-.17.147-.173.147-.525 0-.387-.149-.569-.15-.18-.368-.18-.213 0-.357.173-.142.174-.142.55zM30.37 18.305q0-.524.291-.776.244-.21.594-.21.389 0 .636.256.247.254.247.703 0 .365-.11.574-.109.208-.318.324-.208.115-.455.115-.396 0-.642-.254-.243-.254-.243-.732zm.329 0q0 .362.158.544.158.18.398.18.238 0 .396-.182.158-.181.158-.553 0-.35-.16-.53-.158-.18-.394-.18-.24 0-.398.18-.158.179-.158.541zM33.21 18.963l.046.282q-.135.029-.241.029-.175 0-.27-.055-.096-.055-.135-.144-.04-.09-.04-.379v-1.085h-.234v-.249h.234v-.467l.318-.192v.66h.322v.248h-.322v1.103q0 .137.016.176.018.04.056.062.039.023.11.023.053 0 .14-.012zM33.523 19.249v-2.604h.32v.934q.224-.26.565-.26.21 0 .364.084.155.082.22.228.068.145.068.422v1.196h-.32v-1.196q0-.24-.105-.348-.103-.11-.293-.11-.142 0-.268.075-.125.072-.178.199-.053.126-.053.348v1.032zM36.838 18.641l.33.04q-.078.29-.29.45-.21.16-.54.16-.413 0-.657-.254-.241-.256-.241-.716 0-.476.245-.739t.636-.263q.378 0 .618.258t.24.725l-.002.085H35.77q.018.31.176.476.158.165.395.165.175 0 .3-.092.124-.092.197-.295zm-1.05-.517h1.054q-.022-.238-.121-.357-.153-.185-.396-.185-.22 0-.372.148-.15.147-.165.394zM37.567 19.249v-1.887h.288v.286q.11-.2.202-.264.095-.064.206-.064.162 0 .33.103l-.111.296q-.117-.069-.235-.069-.104 0-.188.064-.083.062-.119.174-.053.17-.053.373v.988zM3.605 23.927l.314.04q-.051.326-.265.51-.211.184-.52.184-.388 0-.624-.253-.234-.254-.234-.726 0-.306.1-.535.102-.23.308-.343.208-.115.452-.115.307 0 .502.156.196.155.25.44l-.31.049q-.044-.19-.158-.286-.112-.096-.272-.096-.242 0-.393.174-.15.172-.15.547 0 .38.145.552.146.173.38.173.189 0 .315-.116.126-.115.16-.355zM4.074 23.675q0-.524.291-.776.243-.21.593-.21.39 0 .637.256.246.254.246.703 0 .365-.11.574-.108.208-.318.324-.208.115-.455.115-.396 0-.64-.254t-.244-.732zm.328 0q0 .362.158.544.159.18.398.18.239 0 .397-.182.158-.181.158-.553 0-.35-.16-.53-.158-.18-.395-.18-.24 0-.398.18-.158.179-.158.541zM6.216 24.618v-1.887h.288V23q.208-.31.6-.31.171 0 .313.062.144.06.215.16.071.1.1.236.018.089.018.31v1.16h-.32V23.47q0-.195-.038-.291-.037-.098-.133-.155-.094-.058-.222-.058-.204 0-.353.13-.148.129-.148.491v1.03zM8.112 24.055l.316-.05q.027.19.148.292.122.1.34.1.221 0 .328-.088.106-.09.106-.211 0-.109-.094-.17-.066-.044-.327-.11-.352-.088-.488-.152-.135-.066-.207-.18-.069-.115-.069-.254 0-.126.057-.232.059-.109.158-.18.075-.055.203-.092.13-.04.277-.04.222 0 .389.065.169.064.249.174.08.108.11.291l-.313.043q-.021-.146-.124-.228-.101-.081-.288-.081-.22 0-.314.073-.095.072-.095.17 0 .062.04.112.039.052.122.085.048.018.282.082.34.09.473.15.135.056.212.166.076.11.076.274 0 .16-.094.302-.093.14-.269.218-.175.077-.398.077-.367 0-.56-.153-.193-.153-.246-.453zM11.296 24.618v-.277q-.22.32-.599.32-.167 0-.312-.064-.144-.064-.215-.16-.07-.098-.098-.238-.02-.094-.02-.299v-1.169h.32v1.047q0 .25.02.337.03.126.128.2.097.07.241.07t.27-.073q.126-.074.178-.2.053-.128.053-.37v-1.01h.32v1.886zM12.083 24.618v-1.887h.286v.265q.089-.139.236-.222.148-.085.336-.085.21 0 .343.087.135.087.19.243.224-.33.583-.33.28 0 .432.156.15.154.15.478v1.295h-.317v-1.189q0-.191-.032-.275-.03-.085-.112-.137-.082-.051-.192-.051-.2 0-.33.133-.132.131-.132.423v1.096h-.32v-1.226q0-.213-.078-.32t-.256-.106q-.135 0-.25.07-.114.072-.166.209-.051.136-.051.394v.979zM16.345 24.385q-.178.151-.343.213-.163.062-.352.062-.31 0-.478-.15-.167-.153-.167-.39 0-.138.063-.252.064-.115.165-.185.103-.069.23-.105.095-.024.285-.048.387-.046.57-.11l.002-.083q0-.196-.09-.276-.123-.108-.365-.108-.225 0-.334.08-.106.078-.158.279l-.312-.043q.042-.2.14-.323.098-.124.282-.19.185-.068.429-.068.241 0 .392.057t.222.144q.071.085.1.217.016.082.016.295v.426q0 .446.02.565.02.117.081.226h-.334q-.05-.1-.064-.233zm-.027-.714q-.174.07-.522.12-.197.029-.279.065-.082.035-.126.104-.044.068-.044.151 0 .128.095.214.098.085.285.085.184 0 .328-.08.144-.082.212-.222.051-.109.051-.32zM17.432 24.618h-.297v-2.604h.32v.929q.203-.254.517-.254.174 0 .329.07.156.07.256.198.1.126.158.305.057.18.057.384 0 .485-.24.75t-.576.265q-.334 0-.524-.28zm-.004-.958q0 .34.093.49.15.248.408.248.21 0 .363-.182.153-.183.153-.543 0-.37-.148-.546-.145-.176-.353-.176-.21 0-.363.183-.153.182-.153.526zM19.154 24.618v-2.604h.32v2.604zM21.261 24.011l.33.04q-.078.29-.29.45-.21.16-.54.16-.413 0-.657-.254-.241-.256-.241-.716 0-.476.245-.739t.636-.263q.378 0 .618.258.24.257.24.725l-.002.085h-1.407q.018.31.176.476.158.165.395.165.175 0 .3-.092.124-.092.197-.295zm-1.05-.517h1.054q-.022-.238-.121-.357-.153-.185-.396-.185-.22 0-.372.148-.15.147-.165.394zM21.865 24.055l.316-.05q.027.19.148.292.122.1.34.1.221 0 .328-.088.106-.09.106-.211 0-.109-.094-.17-.066-.044-.327-.11-.352-.088-.488-.152-.135-.066-.206-.18-.07-.115-.07-.254 0-.126.057-.232.059-.109.158-.18.075-.055.203-.092.13-.04.277-.04.222 0 .389.065.169.064.249.174.08.108.11.291l-.313.043q-.021-.146-.124-.228-.101-.081-.288-.081-.22 0-.314.073-.095.072-.095.17 0 .062.04.112.039.052.122.085.048.018.283.082.339.09.472.15.135.056.212.166.076.11.076.274 0 .16-.094.302-.093.14-.268.218-.176.077-.398.077-.368 0-.562-.153-.192-.153-.245-.453z"/></g></svg>