<svg width="221.182" height="30.92mm" viewBox="0 0 58.521 30.92" xml:space="preserve" xmlns="http://www.w3.org/2000/svg"><defs><filter id="a" x="-.03" y="-.06" width="1.059" height="1.119" color-interpolation-filters="sRGB"><feGaussianBlur stdDeviation="1.032"/></filter></defs><rect transform="translate(-278.37 2.438) scale(.65582)" x="427.68" y="-.49" width="83.529" height="41.442" rx="14.716" ry="4.358" fill="#6b6b6b" filter="url(#a)" style="paint-order:fill markers stroke"/><rect width="54.78" height="27.179" rx="9.651" ry="2.858" fill="#647fec" style="paint-order:fill markers stroke"/><g fill="#fff" fill-opacity=".9" stroke-width=".174" style="font-variant-ligatures:none" aria-label="OCEANS"><path d="M6.601 2.796q1.286 0 2.206.624.925.618 1.398 1.767.474 1.142.474 2.687 0 1.141-.26 2.075t-.778 1.619q-.519.685-1.274 1.048t-1.732.362q-.97 0-1.737-.37-.767-.375-1.28-1.054-.513-.678-.778-1.632-.26-.954-.26-2.062 0-1.135.27-2.082.277-.947.796-1.612T4.91 3.152q.745-.356 1.692-.356zm2.38 5.064q0-1.081-.293-1.874t-.84-1.195q-.542-.41-1.247-.41-.502 0-.93.228-.423.222-.733.652-.305.43-.485 1.101-.175.665-.175 1.498 0 .84.175 1.518.18.679.502 1.129.327.443.744.664.423.222.925.222.643 0 1.179-.383.541-.383.857-1.182.322-.8.322-1.968zM19.28 9.7q0 .47-.196 1.022-.192.544-.61 1.074-.417.524-1.066.853-.648.33-1.511.33-.654 0-1.19-.148-.536-.148-.976-.457-.434-.316-.8-.826-.328-.464-.56-1.035-.23-.577-.349-1.229-.113-.651-.113-1.383 0-1.19.288-2.13.293-.94.835-1.605.541-.672 1.269-1.021.727-.35 1.55-.35 1.005 0 1.789.478.784.477 1.2 1.182.418.698.418 1.323 0 .342-.203.604-.203.262-.49.262-.322 0-.485-.181-.158-.181-.356-.625-.327-.732-.772-1.094-.44-.363-1.089-.363-1.032 0-1.647.934-.609.933-.609 2.653 0 1.148.27 1.914.271.759.768 1.135.496.376 1.162.376.722 0 1.218-.423.502-.43.756-1.256.107-.39.265-.631.158-.249.507-.249.3 0 .513.249.215.248.215.618zM26.36 4.502h-3.773V6.92h3.474q.383 0 .57.208.191.202.191.537 0 .336-.186.551-.186.208-.575.208h-3.474v2.801h3.902q.395 0 .593.222.203.215.203.577 0 .35-.203.571-.198.215-.593.215h-4.551q-.547 0-.79-.288-.237-.29-.237-.934V4.186q0-.43.108-.699.107-.275.332-.396.232-.127.587-.127h4.422q.4 0 .592.215.197.208.197.55 0 .35-.197.564-.192.209-.592.209zM34.031 11.695l-.394-1.235h-3.362l-.395 1.262q-.23.74-.394 1.001-.164.255-.536.255-.316 0-.559-.275t-.242-.625q0-.201.056-.416.057-.215.186-.598l2.115-6.394.215-.659q.13-.39.27-.644.147-.256.378-.41.237-.161.581-.161.35 0 .581.16.237.155.378.404.147.248.242.537.102.282.254.76l2.16 6.353q.254.726.254 1.055 0 .342-.242.631-.237.282-.576.282-.197 0-.338-.087-.141-.08-.237-.222-.096-.148-.209-.443l-.186-.53zm-3.316-2.733h2.47L31.94 4.898zM39.356 3.991l3.22 5.804V3.938q0-.571.204-.854.208-.288.558-.288.361 0 .57.288.208.283.208.854v7.744q0 1.296-.902 1.296-.226 0-.406-.08-.18-.074-.338-.242-.158-.168-.294-.39-.135-.228-.27-.463l-3.142-5.736v5.77q0 .564-.22.852-.22.29-.564.29-.355 0-.57-.29-.214-.295-.214-.853V4.24q0-.484.09-.76.108-.301.356-.49.248-.194.536-.194.225 0 .383.087.164.087.282.235.124.148.248.383.13.235.265.49zM52.357 9.855q0 .893-.389 1.605-.383.712-1.128 1.115-.744.403-1.765.403-1.224 0-2.019-.55-.564-.397-.92-1.055-.349-.665-.349-1.29 0-.362.209-.617.214-.262.541-.262.265 0 .446.201.186.202.316.598.157.47.338.786.186.315.519.524.333.201.874.201.744 0 1.207-.41.468-.416.468-1.034 0-.49-.254-.793-.248-.308-.648-.47-.395-.16-1.06-.342-.892-.249-1.495-.578-.598-.336-.953-.907-.35-.577-.35-1.43 0-.813.372-1.444t1.077-.968q.705-.342 1.659-.342.76 0 1.314.228.558.222.925.598.366.37.535.78.17.409.17.798 0 .356-.215.645-.208.282-.524.282-.288 0-.44-.168-.147-.174-.322-.564-.225-.557-.541-.866-.316-.316-1.015-.316-.649 0-1.05.343-.394.335-.394.812 0 .296.135.51t.372.37q.237.155.48.242.242.087.8.255.7.195 1.264.43.57.235.965.571.4.336.62.853.226.51.226 1.256z"/></g><g fill="#fff" fill-opacity=".9" stroke-width=".228" style="font-variant-ligatures:none" aria-label="Health, resources, and energy"><path d="M2.58 19.593v-2.604h.345v1.069h1.354v-1.07h.344v2.605H4.28v-1.228H2.925v1.228zM6.448 18.986l.33.04q-.078.29-.29.45-.21.16-.54.16-.413 0-.657-.254-.241-.256-.241-.716 0-.476.245-.739t.636-.263q.378 0 .618.258.24.257.24.725l-.002.085H5.38q.018.31.176.476.158.165.394.165.176 0 .3-.092t.198-.295zm-1.05-.517H6.45q-.021-.238-.12-.357-.153-.185-.397-.185-.22 0-.371.148-.15.147-.165.394zM8.411 19.361q-.178.151-.343.213-.163.062-.352.062-.31 0-.478-.15-.167-.153-.167-.39 0-.138.063-.252.064-.115.165-.185.103-.069.23-.105.095-.024.285-.048.387-.046.57-.11l.002-.083q0-.196-.09-.276-.123-.108-.365-.108-.225 0-.334.08-.106.078-.158.279l-.313-.043q.043-.2.14-.323.099-.124.283-.19.185-.068.429-.068.241 0 .392.057t.222.144q.071.085.1.217.016.082.016.295v.426q0 .446.02.565.02.117.081.226h-.334q-.05-.1-.064-.233zm-.027-.714q-.174.07-.522.12-.197.029-.279.065-.082.035-.126.104-.044.068-.044.151 0 .128.095.214.098.085.285.085.185 0 .328-.08.144-.082.212-.222.051-.109.051-.32zM9.196 19.593v-2.604h.32v2.604zM10.71 19.307l.046.282q-.135.029-.241.029-.175 0-.27-.055-.096-.055-.135-.144-.04-.09-.04-.378v-1.086h-.234v-.249h.234v-.467l.318-.192v.66h.322v.248h-.322v1.103q0 .137.016.176.018.04.056.062.039.023.11.023.053 0 .14-.012zM11.023 19.593v-2.604h.32v.934q.224-.26.565-.26.21 0 .364.084.155.082.22.228.068.145.068.422v1.196h-.32v-1.196q0-.24-.105-.348-.103-.11-.293-.11-.142 0-.268.075-.125.072-.178.199-.053.126-.053.348v1.032zM13.13 19.593v-.364h.364v.364q0 .2-.07.323-.072.125-.226.192l-.09-.137q.102-.044.15-.131.048-.085.053-.247zM15.064 19.593v-1.887h.288v.286q.11-.2.202-.264.095-.064.206-.064.162 0 .33.103l-.111.296q-.117-.069-.235-.069-.104 0-.188.064-.083.062-.119.174-.053.17-.053.373v.988zM17.571 18.986l.33.04q-.078.29-.29.45-.21.16-.54.16-.413 0-.657-.254-.241-.256-.241-.716 0-.476.245-.739t.636-.263q.378 0 .618.258t.24.725l-.002.085h-1.407q.018.31.176.476.158.165.395.165.175 0 .3-.092.124-.092.197-.295zm-1.05-.517h1.054q-.022-.238-.121-.357-.153-.185-.396-.185-.22 0-.372.148-.15.147-.165.394zM18.175 19.03l.316-.05q.027.19.148.292.122.1.34.1.221 0 .328-.088.106-.09.106-.211 0-.109-.094-.17-.066-.044-.327-.11-.352-.088-.488-.152-.135-.066-.206-.18-.07-.115-.07-.254 0-.126.057-.232.059-.109.158-.18.075-.055.203-.092.13-.04.277-.04.222 0 .389.065.169.064.249.174.08.108.11.291l-.313.043q-.021-.146-.124-.228-.101-.081-.288-.081-.22 0-.314.073-.095.072-.095.17 0 .062.04.112.039.052.122.085.048.018.283.082.339.09.472.15.135.056.212.166.076.11.076.274 0 .16-.094.302-.093.14-.268.218-.176.077-.398.077-.368 0-.562-.153-.192-.153-.245-.453zM20.004 18.65q0-.524.291-.776.244-.21.594-.21.389 0 .636.256.247.254.247.703 0 .365-.11.574-.109.208-.318.324-.208.115-.455.115-.396 0-.642-.254-.243-.254-.243-.732zm.329 0q0 .362.158.544.158.18.398.18.238 0 .396-.182.158-.181.158-.553 0-.35-.16-.53-.158-.18-.394-.18-.24 0-.398.18-.158.179-.158.541zM23.383 19.593v-.277q-.22.32-.599.32-.167 0-.312-.064-.144-.064-.215-.16-.07-.098-.098-.238-.02-.094-.02-.299v-1.169h.32v1.047q0 .25.02.337.03.126.128.2.097.07.241.07t.27-.073q.126-.074.178-.2.053-.128.053-.37v-1.01h.32v1.886zM24.166 19.593v-1.887h.288v.286q.11-.2.202-.264.095-.064.206-.064.162 0 .33.103l-.111.296q-.117-.069-.235-.069-.104 0-.188.064-.083.062-.119.174-.053.17-.053.373v.988zM26.613 18.902l.314.04q-.051.326-.264.51-.212.184-.52.184-.388 0-.624-.253-.235-.254-.235-.726 0-.306.101-.535.102-.23.308-.343.208-.115.45-.115.308 0 .504.156.195.155.25.44l-.31.049q-.045-.19-.159-.286-.112-.096-.272-.096-.241 0-.392.174-.151.172-.151.547 0 .38.145.552t.38.173q.189 0 .315-.116.126-.115.16-.355zM28.492 18.986l.33.04q-.078.29-.29.45-.21.16-.54.16-.413 0-.657-.254-.241-.256-.241-.716 0-.476.245-.739t.636-.263q.378 0 .618.258t.24.725l-.002.085h-1.407q.018.31.176.476.158.165.395.165.175 0 .3-.092.124-.092.197-.295zm-1.05-.517h1.054q-.022-.238-.121-.357-.153-.185-.396-.185-.22 0-.372.148-.15.147-.165.394zM29.096 19.03l.316-.05q.027.19.148.292.122.1.34.1.221 0 .328-.088.106-.09.106-.211 0-.109-.094-.17-.066-.044-.327-.11-.352-.088-.488-.152-.135-.066-.206-.18-.07-.115-.07-.254 0-.126.057-.232.059-.109.158-.18.075-.055.203-.092.13-.04.277-.04.222 0 .389.065.169.064.249.174.08.108.11.291l-.313.043q-.021-.146-.124-.228-.101-.081-.288-.081-.22 0-.314.073-.095.072-.095.17 0 .062.04.112.039.052.122.085.048.018.283.082.339.09.472.15.135.056.212.166.076.11.076.274 0 .16-.094.302-.093.14-.268.218-.176.077-.398.077-.368 0-.562-.153-.192-.153-.245-.453zM31.127 19.593v-.364h.364v.364q0 .2-.07.323-.072.125-.226.192l-.09-.137q.102-.044.15-.131.048-.085.053-.247zM34.297 19.361q-.178.151-.343.213-.163.062-.352.062-.31 0-.478-.15-.167-.153-.167-.39 0-.138.063-.252.064-.115.165-.185.103-.069.23-.105.095-.024.285-.048.387-.046.57-.11l.002-.083q0-.196-.09-.276-.123-.108-.365-.108-.225 0-.334.08-.106.078-.158.279l-.312-.043q.042-.2.14-.323.098-.124.282-.19.185-.068.429-.068.241 0 .392.057t.222.144q.071.085.1.217.016.082.016.295v.426q0 .446.02.565.02.117.081.226h-.334q-.05-.1-.064-.233zm-.027-.714q-.174.07-.522.12-.197.029-.279.065-.082.035-.126.104-.044.068-.044.151 0 .128.095.214.098.085.285.085.184 0 .328-.08.144-.082.212-.222.051-.109.051-.32zM35.089 19.593v-1.887h.288v.268q.208-.31.6-.31.17 0 .313.062.144.06.215.16.071.1.1.236.017.089.017.31v1.16h-.32v-1.147q0-.195-.037-.291-.037-.098-.133-.155-.094-.058-.222-.058-.205 0-.354.13-.147.13-.147.491v1.03zM38.337 19.593v-.238q-.18.28-.528.28-.225 0-.415-.124-.189-.124-.294-.346-.103-.224-.103-.514 0-.282.095-.511.094-.231.282-.354.188-.122.421-.122.17 0 .304.072.133.071.217.187v-.935h.318v2.605zm-1.01-.942q0 .363.152.542.153.18.36.18.21 0 .356-.17.147-.173.147-.525 0-.387-.149-.569-.15-.18-.368-.18-.213 0-.357.173-.142.174-.142.55zM41.439 18.986l.33.04q-.078.29-.29.45-.21.16-.54.16-.413 0-.657-.254-.241-.256-.241-.716 0-.476.245-.739t.636-.263q.378 0 .618.258t.24.725l-.002.085h-1.407q.018.31.176.476.158.165.395.165.175 0 .3-.092.124-.092.197-.295zm-1.05-.517h1.054q-.022-.238-.121-.357-.153-.185-.396-.185-.22 0-.372.148-.15.147-.165.394zM42.171 19.593v-1.887h.288v.268q.208-.31.6-.31.17 0 .313.062.144.06.215.16.071.1.1.236.017.089.017.31v1.16h-.32v-1.147q0-.195-.037-.291-.037-.098-.133-.155-.094-.058-.222-.058-.204 0-.354.13-.147.13-.147.491v1.03zM45.486 18.986l.33.04q-.078.29-.29.45-.21.16-.54.16-.413 0-.657-.254-.241-.256-.241-.716 0-.476.245-.739t.636-.263q.378 0 .618.258.24.257.24.725l-.002.085h-1.407q.018.31.176.476.158.165.395.165.175 0 .3-.092.124-.092.197-.295zm-1.05-.517h1.054q-.022-.238-.121-.357-.153-.185-.396-.185-.22 0-.372.148-.15.147-.165.394zM46.214 19.593v-1.887h.288v.286q.11-.2.202-.264.095-.064.206-.064.162 0 .33.103l-.111.296q-.117-.069-.235-.069-.104 0-.188.064-.083.062-.119.174-.053.17-.053.373v.988zM47.371 19.75l.31.046q.02.144.11.21.118.089.324.089.222 0 .343-.09.121-.088.164-.248.025-.098.023-.41-.21.247-.522.247-.39 0-.603-.281-.213-.28-.213-.673 0-.27.098-.498.097-.229.282-.353.187-.125.437-.125.334 0 .551.27v-.227h.295v1.63q0 .441-.09.624-.09.185-.285.292-.194.106-.478.106-.337 0-.545-.152-.208-.151-.201-.457zm.265-1.133q0 .37.147.541t.37.17q.22 0 .37-.168.148-.17.148-.533 0-.346-.154-.522-.153-.176-.37-.176-.213 0-.362.174-.15.172-.15.513zM49.439 20.32l-.036-.3q.105.028.183.028.107 0 .171-.035.064-.036.105-.1.03-.048.098-.238.008-.027.028-.078l-.716-1.89h.345l.392 1.092q.077.208.137.437.055-.22.132-.43l.403-1.1H51l-.718 1.92q-.116.31-.18.428-.085.158-.195.23-.11.075-.263.075-.092 0-.206-.039z"/></g></svg>