<svg width="221.182" height="30.92mm" viewBox="0 0 58.521 30.92" xml:space="preserve" xmlns="http://www.w3.org/2000/svg"><defs><filter id="a" x="-.03" y="-.06" width="1.059" height="1.119" color-interpolation-filters="sRGB"><feGaussianBlur stdDeviation="1.032"/></filter></defs><rect transform="translate(-278.37 2.438) scale(.65582)" x="427.68" y="-.49" width="83.529" height="41.442" rx="14.716" ry="4.358" fill="#6b6b6b" filter="url(#a)" style="paint-order:fill markers stroke"/><rect width="54.78" height="27.179" rx="9.651" ry="2.858" fill="#333" style="paint-order:fill markers stroke"/><g fill="#fff" fill-opacity=".9" stroke-width=".174" style="font-variant-ligatures:none" aria-label="SPACE"><path d="M9.15 9.639q0 .893-.389 1.605-.383.712-1.128 1.115-.744.403-1.765.403-1.224 0-2.02-.55-.563-.397-.919-1.055-.35-.665-.35-1.29 0-.362.21-.618.214-.261.54-.261.266 0 .446.201.187.202.316.598.158.47.339.786.186.315.519.524.332.201.874.201.744 0 1.207-.41.468-.416.468-1.034 0-.49-.254-.793-.248-.309-.649-.47-.394-.161-1.06-.342Q4.644 8 4.041 7.67q-.598-.336-.954-.907-.35-.577-.35-1.43 0-.813.373-1.445t1.077-.967q.705-.342 1.658-.342.762 0 1.314.228.559.222.925.598.367.37.536.779.17.41.17.8 0 .355-.215.644-.209.282-.524.282-.288 0-.44-.168-.147-.174-.322-.564-.225-.557-.541-.866-.316-.316-1.015-.316-.65 0-1.05.343-.394.335-.394.812 0 .296.135.51.135.216.372.37.237.155.48.242.242.087.8.255.7.195 1.264.43.57.235.964.57.4.337.62.854.226.51.226 1.256zM16.763 8.76h-1.534v2.786q0 .598-.237.907-.237.31-.598.31-.378 0-.61-.303-.23-.309-.23-.9V3.97q0-.658.253-.94.254-.282.807-.282h2.149q.953 0 1.466.174.508.168.874.558.373.39.564.954.192.564.192 1.269 0 1.505-.778 2.284-.779.772-2.318.772zm-.406-4.515h-1.128v3.01h1.128q.592 0 .987-.148.4-.148.609-.484.209-.336.209-.88 0-.651-.322-1.061-.36-.437-1.483-.437zM28.514 11.48l-.395-1.237h-3.361l-.395 1.263q-.231.74-.395 1.001-.163.255-.536.255-.315 0-.558-.275-.242-.276-.242-.625 0-.201.056-.416t.186-.598l2.115-6.394.214-.659q.13-.39.271-.644.147-.256.378-.41.237-.161.58-.161.35 0 .582.16.237.155.378.404.146.248.242.537.102.282.254.76l2.16 6.353q.254.726.254 1.055 0 .342-.243.631-.237.282-.575.282-.197 0-.338-.087-.141-.08-.237-.222-.096-.148-.209-.443l-.186-.53zm-3.316-2.734h2.47l-1.246-4.064zM41.27 9.485q0 .47-.197 1.02-.192.545-.609 1.075-.417.524-1.066.853-.649.33-1.511.33-.655 0-1.19-.148-.536-.148-.976-.457-.435-.316-.801-.826-.327-.464-.558-1.035-.232-.577-.35-1.229-.113-.651-.113-1.383 0-1.19.288-2.13.293-.94.834-1.605.542-.672 1.27-1.021.727-.35 1.55-.35 1.004 0 1.788.478.784.477 1.202 1.182.417.698.417 1.323 0 .343-.203.604-.203.262-.49.262-.322 0-.486-.18-.158-.182-.355-.626-.327-.732-.773-1.094-.44-.363-1.088-.363-1.032 0-1.647.934-.61.933-.61 2.653 0 1.148.271 1.914.271.759.767 1.135.497.376 1.162.376.722 0 1.218-.423.502-.43.756-1.256.107-.39.265-.631.158-.249.508-.249.299 0 .513.249t.214.618zM51.207 4.286h-3.774v2.418h3.475q.383 0 .57.208.19.202.19.537 0 .336-.185.551-.186.208-.575.208h-3.475v2.801h3.903q.395 0 .592.222.203.215.203.578 0 .349-.203.57-.197.215-.592.215h-4.551q-.547 0-.79-.288-.237-.29-.237-.934V3.97q0-.43.107-.698.108-.276.333-.397.231-.127.587-.127h4.422q.4 0 .592.215.197.208.197.55 0 .35-.197.565-.192.208-.592.208z"/></g><g fill="#fff" fill-opacity=".9" stroke-width=".228" style="font-variant-ligatures:none" aria-label="Human vs. robotic ventures"><path d="M2.58 19.31v-2.604h.344v1.069h1.354v-1.07h.345v2.605h-.345v-1.228H2.924v1.228zM6.392 19.31v-.277q-.22.32-.598.32-.167 0-.313-.064-.144-.064-.215-.16-.07-.098-.098-.238-.02-.094-.02-.299v-1.169h.32v1.047q0 .25.02.337.03.126.128.2.098.07.242.07t.27-.073q.126-.074.177-.2.054-.128.054-.37v-1.01h.32v1.886zM7.18 19.31v-1.887h.286v.265q.088-.139.236-.222.147-.085.336-.085.21 0 .343.087.135.087.19.243.223-.33.582-.33.281 0 .432.156.151.154.151.478v1.295h-.318v-1.189q0-.191-.032-.275-.03-.085-.112-.137-.082-.051-.192-.051-.199 0-.33.133-.132.131-.132.423v1.096H8.3v-1.226q0-.213-.078-.32t-.255-.106q-.135 0-.251.07-.114.072-.165.209-.052.136-.052.394v.979zM11.442 19.077q-.178.151-.343.213-.163.062-.352.062-.31 0-.478-.15-.167-.153-.167-.39 0-.138.063-.252.064-.115.165-.185.103-.069.23-.105.095-.024.285-.048.387-.046.57-.11l.002-.083q0-.196-.09-.276-.123-.108-.365-.108-.225 0-.334.08-.106.078-.158.279l-.312-.043q.042-.2.14-.323.098-.124.282-.19.185-.068.429-.068.241 0 .392.057t.222.144q.071.085.1.217.016.082.016.295v.426q0 .446.02.565.02.117.081.226h-.334q-.05-.1-.064-.233zm-.027-.714q-.174.07-.522.12-.197.029-.279.065-.082.035-.126.104-.044.068-.044.151 0 .128.095.214.098.085.285.085.184 0 .328-.08.144-.082.212-.222.051-.109.051-.32zM12.234 19.31v-1.887h.288v.268q.208-.31.6-.31.17 0 .313.062.144.06.215.16.071.1.1.236.017.089.017.31v1.16h-.32v-1.147q0-.195-.037-.291-.037-.098-.133-.155-.094-.058-.222-.058-.204 0-.354.13-.147.13-.147.491v1.03zM15.793 19.31l-.718-1.887h.338l.405 1.13q.066.183.12.38.043-.149.12-.359l.419-1.15h.329l-.715 1.886zM16.96 18.747l.316-.05q.027.19.148.292.122.1.34.1.221 0 .328-.088.106-.09.106-.211 0-.109-.094-.17-.066-.044-.327-.11-.352-.088-.488-.152-.135-.066-.206-.18-.07-.115-.07-.254 0-.126.057-.232.059-.109.158-.18.075-.055.203-.092.13-.04.277-.04.222 0 .389.065.169.064.249.174.08.108.11.291l-.313.043q-.021-.146-.124-.228-.101-.081-.288-.081-.22 0-.314.073-.095.072-.095.17 0 .062.04.112.039.052.122.085.048.018.283.082.339.09.472.15.135.056.212.166.076.11.076.274 0 .16-.094.302-.093.14-.268.218-.176.077-.398.077-.368 0-.562-.153-.192-.153-.245-.453zM18.998 19.31v-.364h.364v.364zM20.925 19.31v-1.887h.288v.286q.11-.2.202-.264.095-.064.206-.064.162 0 .33.103l-.111.296q-.117-.069-.235-.069-.104 0-.188.064-.083.062-.119.174-.053.17-.053.373v.988zM22.021 18.366q0-.524.291-.776.244-.21.594-.21.389 0 .636.256.247.254.247.703 0 .365-.11.574-.109.208-.318.324-.208.115-.455.115-.396 0-.642-.254-.243-.254-.243-.732zm.329 0q0 .362.158.544.158.18.398.18.238 0 .396-.182.158-.181.158-.553 0-.35-.16-.53-.158-.18-.394-.18-.24 0-.398.18-.158.179-.158.541zM24.459 19.31h-.297v-2.604h.32v.929q.203-.254.517-.254.174 0 .329.07.156.07.256.198.1.126.158.305.057.18.057.384 0 .485-.24.75t-.576.265q-.334 0-.524-.28zm-.004-.958q0 .34.093.49.15.248.408.248.21 0 .363-.182.153-.183.153-.543 0-.37-.148-.546-.145-.176-.353-.176-.21 0-.363.183-.153.182-.153.526zM26.069 18.366q0-.524.291-.776.244-.21.594-.21.389 0 .636.256.247.254.247.703 0 .365-.11.574-.109.208-.318.324-.208.115-.455.115-.396 0-.642-.254-.243-.254-.243-.732zm.329 0q0 .362.158.544.158.18.398.18.238 0 .396-.182.158-.181.158-.553 0-.35-.16-.53-.158-.18-.394-.18-.24 0-.398.18-.158.179-.158.541zM28.91 19.024l.046.282q-.135.029-.241.029-.175 0-.27-.055-.096-.055-.136-.144-.039-.09-.039-.379v-1.085h-.234v-.249h.234v-.467l.318-.192v.66h.322v.248h-.322v1.103q0 .137.016.176.018.04.055.062.04.023.11.023.054 0 .141-.012zM29.224 17.073v-.368h.32v.368zm0 2.237v-1.887h.32v1.887zM31.262 18.619l.314.04q-.051.326-.264.51-.212.184-.52.184-.388 0-.624-.253-.235-.254-.235-.726 0-.306.101-.535t.308-.343q.208-.115.451-.115.307 0 .503.156.195.155.25.44l-.31.049q-.045-.19-.159-.286-.112-.096-.272-.096-.241 0-.392.174-.151.172-.151.547 0 .38.145.552.146.173.38.173.189 0 .315-.116t.16-.355zM33.385 19.31l-.718-1.887h.338l.405 1.13q.066.183.12.38.043-.149.12-.359l.419-1.15h.329l-.715 1.886zM35.972 18.702l.33.04q-.078.29-.29.45-.21.16-.54.16-.413 0-.657-.254-.241-.256-.241-.716 0-.476.245-.739t.636-.263q.378 0 .618.258t.24.725l-.002.085h-1.407q.018.31.176.476.158.165.395.165.175 0 .3-.092.124-.092.197-.295zm-1.05-.517h1.054q-.022-.238-.121-.357-.153-.185-.396-.185-.22 0-.372.148-.15.147-.165.394zM36.704 19.31v-1.887h.288v.268q.208-.31.6-.31.17 0 .313.062.144.06.215.16.071.1.1.236.017.089.017.31v1.16h-.32v-1.147q0-.195-.037-.291-.037-.098-.133-.155-.094-.058-.222-.058-.204 0-.354.13-.147.13-.147.491v1.03zM39.425 19.024l.046.282q-.135.029-.241.029-.175 0-.27-.055-.096-.055-.135-.144-.04-.09-.04-.379v-1.085h-.234v-.249h.234v-.467l.318-.192v.66h.322v.248h-.322v1.103q0 .137.016.176.018.04.056.062.039.023.11.023.053 0 .14-.012zM40.975 19.31v-.277q-.22.32-.599.32-.167 0-.312-.064-.144-.064-.215-.16-.07-.098-.098-.238-.02-.094-.02-.299v-1.169h.32v1.047q0 .25.02.337.03.126.128.2.097.07.241.07t.27-.073q.126-.074.178-.2.053-.128.053-.37v-1.01h.32v1.886zM41.758 19.31v-1.887h.288v.286q.11-.2.202-.264.095-.064.206-.064.162 0 .33.103l-.111.296q-.117-.069-.235-.069-.104 0-.188.064-.083.062-.119.174-.053.17-.053.373v.988zM44.265 18.702l.33.04q-.078.29-.29.45-.21.16-.54.16-.413 0-.657-.254-.241-.256-.241-.716 0-.476.245-.739t.636-.263q.378 0 .618.258t.24.725l-.002.085h-1.407q.018.31.176.476.158.165.395.165.175 0 .3-.092.124-.092.197-.295zm-1.05-.517h1.054q-.022-.238-.121-.357-.153-.185-.396-.185-.22 0-.372.148-.15.147-.165.394zM44.869 18.747l.316-.05q.027.19.148.292.122.1.34.1.221 0 .328-.088.106-.09.106-.211 0-.109-.094-.17-.066-.044-.327-.11-.352-.088-.488-.152-.135-.066-.206-.18-.07-.115-.07-.254 0-.126.057-.232.059-.109.158-.18.075-.055.203-.092.13-.04.277-.04.222 0 .389.065.169.064.249.174.08.108.11.291l-.313.043q-.021-.146-.124-.228-.101-.081-.288-.081-.22 0-.314.073-.095.072-.095.17 0 .062.04.112.039.052.122.085.048.018.283.082.339.09.472.15.135.056.212.166.076.11.076.274 0 .16-.094.302-.093.14-.268.218-.176.077-.398.077-.368 0-.562-.153-.192-.153-.245-.453z"/></g></svg>