<svg width="221.182" height="30.92mm" viewBox="0 0 58.521 30.92" xml:space="preserve" xmlns="http://www.w3.org/2000/svg"><defs><filter id="a" x="-.03" y="-.06" width="1.059" height="1.119" color-interpolation-filters="sRGB"><feGaussianBlur stdDeviation="1.032"/></filter></defs><rect transform="translate(-278.37 2.438) scale(.65582)" x="427.68" y="-.49" width="83.529" height="41.442" rx="14.716" ry="4.358" fill="#6b6b6b" filter="url(#a)" style="paint-order:fill markers stroke"/><rect width="54.78" height="27.179" rx="9.651" ry="2.858" fill="#c1b698" style="paint-order:fill markers stroke"/><g fill-opacity=".9" stroke-width=".174" style="font-variant-ligatures:none" aria-label="WASTE"><path d="M9.04 11.15 7.704 5.248 6.35 11.15q-.158.672-.254.967-.09.289-.321.524-.231.228-.615.228-.31 0-.513-.14-.198-.135-.322-.384-.124-.255-.203-.597-.079-.35-.14-.645l-1.377-6.63q-.124-.577-.124-.88 0-.382.226-.644.225-.262.558-.262.457 0 .615.35t.276 1.013l1.083 5.75 1.213-5.38q.135-.618.242-.94.107-.323.35-.558.242-.235.66-.235.423 0 .654.248.237.242.327.53.09.29.243.955L10.15 9.8l1.083-5.75q.08-.45.147-.705.073-.255.242-.457.175-.201.502-.201t.553.262q.231.255.231.645 0 .275-.124.88l-1.376 6.629q-.14.672-.237.987-.09.31-.316.544-.22.235-.626.235-.383 0-.614-.228-.232-.228-.322-.51-.09-.29-.254-.981zM21.48 11.587l-.396-1.235h-3.361l-.395 1.262q-.231.74-.395 1.001-.163.255-.535.255-.316 0-.559-.275-.242-.275-.242-.625 0-.201.056-.416.057-.215.186-.598l2.115-6.394.215-.659q.13-.39.27-.644.147-.256.378-.41.237-.161.581-.161.35 0 .58.16.238.155.379.404.146.248.242.537.102.282.254.76l2.16 6.353q.254.726.254 1.055 0 .342-.242.631-.237.282-.576.282-.197 0-.338-.087-.141-.08-.237-.222-.096-.148-.209-.443l-.186-.53zm-3.317-2.733h2.47L19.387 4.79zM32.948 9.747q0 .893-.389 1.605-.383.712-1.128 1.115-.744.403-1.765.403-1.224 0-2.02-.55-.563-.397-.919-1.055-.35-.665-.35-1.29 0-.362.21-.617.214-.262.54-.262.266 0 .446.201.187.202.316.598.158.47.339.786.186.315.519.524.332.201.874.201.744 0 1.207-.41.468-.416.468-1.034 0-.49-.254-.793-.248-.309-.649-.47-.394-.16-1.06-.342-.891-.249-1.494-.578-.598-.336-.954-.907-.35-.577-.35-1.43 0-.813.373-1.444t1.077-.968q.705-.342 1.658-.342.762 0 1.314.228.559.222.925.598.367.37.536.78.17.409.17.798 0 .356-.215.645-.209.282-.524.282-.288 0-.44-.168-.147-.174-.322-.564-.225-.557-.541-.866-.316-.316-1.015-.316-.65 0-1.05.343-.394.335-.394.812 0 .296.135.51t.372.37q.237.155.48.242.242.087.8.255.7.195 1.264.43.57.235.964.571.4.336.62.853.226.51.226 1.256zM41.907 4.501H40.08v7.154q0 .617-.231.92-.231.295-.598.295-.372 0-.61-.302-.23-.302-.23-.913V4.5h-1.828q-.428 0-.637-.221-.209-.229-.209-.598 0-.383.215-.605.22-.221.631-.221h5.324q.435 0 .643.228.215.228.215.598t-.215.598q-.214.221-.643.221zM51.374 4.394h-3.773v2.418h3.474q.384 0 .57.208.192.202.192.537 0 .336-.186.551-.187.208-.576.208h-3.474v2.801h3.903q.395 0 .592.222.203.215.203.577 0 .35-.203.571-.197.215-.592.215h-4.552q-.547 0-.79-.289-.236-.288-.236-.933V4.078q0-.43.107-.699.107-.275.333-.396.231-.127.586-.127h4.422q.4 0 .592.214.198.209.198.551 0 .35-.198.564-.191.209-.592.209z"/></g><g fill-opacity=".9" stroke-width=".228" style="font-variant-ligatures:none" aria-label="Zero waste methodology vs. scams"><path d="M2.586 19.078v-.32L3.92 17.09q.143-.178.27-.31H2.737v-.307h1.866v.308L3.14 18.588l-.158.183h1.663v.307zM6.267 18.47l.33.04q-.077.29-.289.45-.211.16-.54.16-.414 0-.657-.254-.242-.256-.242-.716 0-.476.245-.739t.636-.263q.379 0 .619.258.24.257.24.725l-.002.085H5.2q.017.31.175.476.159.165.395.165.176 0 .3-.092t.197-.295zm-1.05-.517h1.054q-.022-.238-.121-.357-.153-.185-.396-.185-.22 0-.372.148-.149.147-.165.394zM6.996 19.078v-1.887h.288v.286q.11-.2.202-.264.094-.064.206-.064.162 0 .329.103l-.11.296q-.118-.069-.235-.069-.105 0-.188.064-.084.062-.12.174-.052.17-.052.373v.988zM8.092 18.134q0-.524.291-.776.244-.21.594-.21.389 0 .636.256.247.254.247.703 0 .365-.11.574-.109.208-.319.324-.207.115-.454.115-.397 0-.642-.254-.243-.254-.243-.732zm.329 0q0 .362.158.544.158.18.398.18.238 0 .396-.182t.158-.553q0-.35-.16-.53-.158-.18-.394-.18-.24 0-.398.18t-.158.541zM11.594 19.078l-.577-1.887h.33l.3 1.09.112.404.098-.389.3-1.105h.329l.282 1.095.094.36.109-.364.323-1.09h.311l-.59 1.886h-.332l-.3-1.13-.073-.322-.382 1.452zM15.104 18.845q-.178.151-.343.213-.163.062-.352.062-.31 0-.478-.15-.167-.153-.167-.39 0-.138.063-.252.064-.115.165-.185.103-.069.23-.105.095-.024.285-.048.387-.046.57-.11l.002-.083q0-.196-.09-.276-.123-.108-.365-.108-.225 0-.334.08-.106.078-.158.279l-.312-.043q.042-.2.14-.323.098-.124.282-.19.185-.068.429-.068.241 0 .392.057.151.057.222.144.071.085.1.217.016.082.016.295v.426q0 .446.02.565.02.117.081.226h-.334q-.05-.1-.064-.233zm-.027-.714q-.174.07-.522.12-.197.029-.279.065-.082.035-.126.104-.044.068-.044.151 0 .128.095.214.098.085.285.085.184 0 .328-.08.144-.082.212-.222.051-.109.051-.32zM15.769 18.514l.316-.05q.027.19.148.292.122.1.34.1.221 0 .328-.088.106-.09.106-.211 0-.109-.094-.17-.066-.044-.327-.11-.352-.088-.488-.152-.135-.066-.206-.18-.07-.115-.07-.254 0-.126.057-.232.059-.109.158-.18.075-.055.203-.092.13-.04.277-.04.222 0 .389.065.169.064.249.174.08.108.11.291l-.313.043q-.021-.146-.124-.228-.101-.081-.288-.081-.22 0-.314.073-.095.072-.095.17 0 .062.04.112.039.052.122.085.048.018.283.082.339.09.472.15.135.056.212.166.076.11.076.274 0 .16-.094.302-.093.14-.268.218-.176.077-.398.077-.368 0-.562-.153-.192-.153-.245-.453zM18.414 18.792l.046.282q-.135.029-.241.029-.175 0-.27-.055-.096-.055-.136-.144-.039-.09-.039-.379V17.44h-.234v-.249h.234v-.467l.318-.192v.66h.322v.248h-.322v1.103q0 .137.016.176.018.04.055.062.04.023.11.023.054 0 .141-.012zM20.018 18.47l.33.04q-.078.29-.29.45-.21.16-.54.16-.413 0-.657-.254-.241-.256-.241-.716 0-.476.245-.739t.636-.263q.378 0 .618.258.24.257.24.725l-.002.085H18.95q.018.31.176.476.158.165.395.165.175 0 .3-.092.124-.092.197-.295zm-1.05-.517h1.054q-.022-.238-.121-.357-.153-.185-.396-.185-.22 0-.372.148-.15.147-.165.394zM21.761 19.078v-1.887h.286v.265q.089-.139.236-.222.148-.085.336-.085.21 0 .343.087.135.087.19.243.224-.33.583-.33.28 0 .432.156.15.154.15.478v1.295H24v-1.189q0-.191-.032-.275-.03-.085-.112-.137-.082-.051-.192-.051-.2 0-.33.133-.132.131-.132.423v1.096h-.32v-1.226q0-.213-.078-.32-.078-.106-.256-.106-.135 0-.25.07-.114.072-.166.209-.051.136-.051.394v.979zM26.084 18.47l.33.04q-.078.29-.29.45-.21.16-.54.16-.413 0-.657-.254-.241-.256-.241-.716 0-.476.245-.739t.636-.263q.378 0 .618.258.24.257.24.725l-.002.085h-1.407q.018.31.176.476.158.165.395.165.175 0 .3-.092.124-.092.197-.295zm-1.05-.517h1.054q-.022-.238-.121-.357-.153-.185-.396-.185-.22 0-.372.148-.15.147-.165.394zM27.514 18.792l.046.282q-.135.029-.241.029-.175 0-.27-.055-.096-.055-.136-.144-.039-.09-.039-.379V17.44h-.234v-.249h.234v-.467l.318-.192v.66h.322v.248h-.322v1.103q0 .137.016.176.018.04.055.062.04.023.11.023.054 0 .141-.012zM27.827 19.078v-2.604h.32v.934q.224-.26.565-.26.21 0 .364.084.155.082.22.228.068.145.068.422v1.196h-.32v-1.196q0-.24-.105-.348-.103-.11-.293-.11-.142 0-.268.075-.125.072-.178.199-.053.126-.053.348v1.032zM29.731 18.134q0-.524.291-.776.244-.21.594-.21.389 0 .636.256.247.254.247.703 0 .365-.11.574-.109.208-.318.324-.208.115-.455.115-.396 0-.642-.254-.243-.254-.243-.732zm.329 0q0 .362.158.544.158.18.398.18.238 0 .396-.182.158-.181.158-.553 0-.35-.16-.53-.158-.18-.394-.18-.24 0-.398.18-.158.179-.158.541zM33.098 19.078v-.238q-.18.28-.528.28-.225 0-.415-.124-.189-.124-.294-.346-.103-.224-.103-.514 0-.282.095-.511.094-.231.282-.354.188-.122.421-.122.17 0 .304.072.133.071.217.187v-.935h.318v2.605zm-1.01-.942q0 .363.152.542.153.18.36.18.21 0 .356-.17.147-.173.147-.525 0-.387-.149-.569-.15-.18-.368-.18-.213 0-.357.173-.142.174-.142.55zM33.778 18.134q0-.524.291-.776.244-.21.594-.21.389 0 .636.256.247.254.247.703 0 .365-.11.574-.109.208-.318.324-.208.115-.455.115-.396 0-.642-.254-.243-.254-.243-.732zm.329 0q0 .362.158.544.158.18.398.18.238 0 .396-.182.158-.181.158-.553 0-.35-.16-.53-.158-.18-.394-.18-.24 0-.398.18t-.158.541zM35.914 19.078v-2.604h.32v2.604zM36.61 18.134q0-.524.291-.776.244-.21.594-.21.389 0 .636.256.247.254.247.703 0 .365-.11.574-.109.208-.318.324-.208.115-.455.115-.396 0-.642-.254-.243-.254-.243-.732zm.329 0q0 .362.158.544.158.18.398.18.238 0 .396-.182.158-.181.158-.553 0-.35-.16-.53-.158-.18-.394-.18-.24 0-.398.18-.158.179-.158.541zM38.694 19.234l.31.046q.02.144.11.21.118.089.324.089.222 0 .343-.09.121-.088.164-.248.025-.098.023-.41-.21.247-.522.247-.39 0-.603-.281-.213-.28-.213-.673 0-.27.098-.498.097-.229.282-.353.187-.125.437-.125.334 0 .551.27v-.227h.295v1.63q0 .441-.09.624-.09.185-.285.292-.194.106-.478.106-.337 0-.545-.152-.208-.151-.201-.457zm.265-1.133q0 .37.147.541t.37.17q.22 0 .37-.168.149-.17.149-.533 0-.346-.155-.522-.153-.176-.37-.176-.213 0-.362.174-.15.172-.15.513zM40.762 19.804l-.036-.3q.105.028.183.028.107 0 .171-.035.064-.036.105-.1.03-.048.098-.238.008-.027.028-.078l-.716-1.89h.345l.392 1.092q.077.208.137.437.055-.22.132-.43l.403-1.1h.32l-.718 1.92q-.116.31-.18.428-.085.158-.195.23-.11.075-.263.075-.092 0-.206-.039zM44.131 19.078l-.718-1.887h.338l.405 1.13q.066.183.12.38.043-.149.12-.359l.419-1.15h.329l-.715 1.886zM45.298 18.514l.316-.05q.027.19.148.292.122.1.34.1.221 0 .328-.088.106-.09.106-.211 0-.109-.094-.17-.066-.044-.327-.11-.352-.088-.488-.152-.135-.066-.206-.18-.07-.115-.07-.254 0-.126.057-.232.059-.109.158-.18.075-.055.203-.092.13-.04.277-.04.222 0 .389.065.169.064.249.174.08.108.11.291l-.313.043q-.021-.146-.124-.228-.101-.081-.288-.081-.22 0-.314.073-.095.072-.095.17 0 .062.04.112.039.052.122.085.048.018.283.082.339.09.472.15.135.056.212.166.076.11.076.274 0 .16-.094.302-.093.14-.268.218-.176.077-.398.077-.368 0-.562-.153-.192-.153-.245-.453zM47.336 19.078v-.364h.364v.364zM2.625 23.884l.316-.05q.027.19.148.292.122.1.341.1.22 0 .327-.088.107-.09.107-.211 0-.109-.095-.17-.065-.044-.327-.11-.351-.088-.488-.152-.135-.066-.206-.18-.07-.115-.07-.254 0-.126.057-.232.059-.109.158-.18.075-.055.203-.092.13-.04.277-.04.222 0 .39.065.168.064.248.174.08.108.11.291l-.313.043q-.02-.146-.124-.228-.101-.081-.288-.081-.22 0-.314.073-.094.072-.094.17 0 .062.039.112.039.052.122.085.048.018.283.082.34.09.472.15.135.056.212.166.076.11.076.274 0 .16-.094.302-.092.14-.268.218-.176.077-.398.077-.368 0-.562-.153-.191-.153-.245-.453zM5.804 23.756l.314.04q-.051.326-.265.51-.211.184-.52.184-.388 0-.624-.253-.234-.254-.234-.726 0-.306.1-.535t.308-.343q.208-.115.452-.115.307 0 .502.156.196.155.25.44l-.31.049q-.044-.19-.158-.286-.112-.096-.272-.096-.242 0-.393.174-.15.172-.15.547 0 .38.145.552.146.173.38.173.189 0 .315-.116.126-.115.16-.355zM7.623 24.215q-.178.151-.343.213-.163.062-.352.062-.31 0-.478-.15-.167-.153-.167-.39 0-.138.063-.252.063-.115.165-.185.103-.069.23-.105.095-.024.285-.048.387-.046.57-.11l.002-.083q0-.196-.09-.276-.123-.108-.365-.108-.225 0-.334.08-.106.078-.158.279l-.313-.043q.043-.2.14-.323.098-.124.283-.19.185-.068.428-.068.242 0 .393.057t.222.144q.071.085.1.217.016.082.016.295v.426q0 .446.02.565.02.117.08.226h-.333q-.05-.1-.064-.233zm-.027-.714q-.174.07-.522.12-.197.029-.279.065-.082.035-.126.104-.045.068-.045.151 0 .128.096.214.098.085.285.085.184 0 .328-.08.144-.082.212-.222.051-.109.051-.32zM8.415 24.447V22.56h.286v.265q.09-.139.237-.222.147-.085.335-.085.21 0 .343.087.135.087.19.243.224-.33.583-.33.28 0 .432.156.15.154.15.478v1.295h-.317v-1.189q0-.191-.032-.275-.03-.085-.112-.137-.082-.051-.192-.051-.199 0-.33.133-.132.131-.132.423v1.096h-.32v-1.226q0-.213-.078-.32t-.256-.106q-.135 0-.25.07-.114.072-.166.209-.051.136-.051.394v.979zM11.318 23.884l.316-.05q.027.19.148.292.122.1.34.1.221 0 .328-.088.106-.09.106-.211 0-.109-.094-.17-.066-.044-.327-.11-.352-.088-.488-.152-.135-.066-.206-.18-.07-.115-.07-.254 0-.126.057-.232.059-.109.158-.18.075-.055.203-.092.13-.04.277-.04.222 0 .389.065.169.064.249.174.08.108.11.291l-.313.043q-.021-.146-.124-.228-.101-.081-.288-.081-.22 0-.314.073-.095.072-.095.17 0 .062.04.112.039.052.122.085.048.018.283.082.339.09.472.15.135.056.212.166.076.11.076.274 0 .16-.094.302-.093.14-.268.218-.176.077-.398.077-.368 0-.562-.153-.192-.153-.245-.453z"/></g></svg>