<svg width="50" height="50" viewBox="0 0 13.229 13.229" xmlns="http://www.w3.org/2000/svg"><path d="M1.656 0C.739 0 0 .739 0 1.656v9.917c0 .918.739 1.656 1.656 1.656h9.917c.918 0 1.656-.738 1.656-1.656V1.656C13.23.739 12.491 0 11.573 0zm6.481 1.354s.552.016 1.164 1.001l.666 1.129.47-.255-.488 1.067-.487 1.067-1.159-.178-1.16-.177.68-.367-1.167-2.162s-.447-1.017-1.263-1.12zm-3.2.26a.963.963 0 0 1 .593.157s.446.133.866 1.12l-1.1 1.786L3.229 3.41l.751-1.234s.404-.522.957-.563zm-.838 3.357.434 1.09.434 1.09-.661-.402L3.032 8.85s-.651.901-.328 1.657l-1.39-2.364s-.267-.485.274-1.51l.635-1.146-.457-.277 1.167-.12zm6.97.457.729 1.247s.476 1.073-.38 1.557c0 0-.33.33-1.397.23L8.974 6.646zM7.937 8.131v.773h2.457s1.108.09 1.587-.578l-1.3 2.416s-.277.478-1.435.548l-1.309.05v.535l-.706-.937-.707-.936.707-.935zm-4.34.692 2.096.045-.045 2.423-1.445-.023s-1.164-.15-1.134-1.132c0 0-.111-.452.528-1.313z" fill="#b86d2c" style="fill:#02187b;fill-opacity:1"/></svg>